{"glyphs":{"0":{"ha":857,"x_min":151,"x_max":878,"o":"m 443 -18 q 227 93 303 -18 q 151 376 151 204 q 178 591 151 485 q 256 789 204 697 q 394 937 307 881 q 589 993 481 993 q 728 957 669 993 q 819 861 788 921 q 864 738 850 801 q 878 606 878 674 q 854 403 878 506 q 782 203 831 300 q 645 44 733 106 q 443 -18 557 -18 m 465 185 q 580 256 529 185 q 653 416 631 326 q 676 585 676 506 q 647 731 676 672 q 560 790 618 790 q 468 745 510 790 q 403 633 426 700 q 366 501 379 567 q 353 386 353 436 q 381 243 353 301 q 465 185 410 185 z "},"1":{"ha":536,"x_min":146,"x_max":538,"o":"m 160 0 l 283 701 l 146 701 l 176 872 q 367 972 318 872 l 538 972 l 367 0 l 160 0 z "},"2":{"ha":783,"x_min":61,"x_max":847,"o":"m 61 0 q 118 205 81 117 q 214 357 156 293 q 325 460 272 421 q 463 550 378 499 q 506 573 475 557 q 554 600 536 589 q 594 628 572 611 q 626 667 615 646 q 636 713 636 688 q 543 800 636 800 q 379 692 432 800 l 214 776 q 572 989 347 989 q 768 913 689 989 q 847 728 847 838 q 808 578 847 640 q 726 485 769 515 q 567 390 682 454 q 553 382 557 385 q 354 203 389 290 l 753 203 l 717 0 l 61 0 z "},"3":{"ha":767,"x_min":78,"x_max":811,"o":"m 419 -17 q 199 42 288 -17 q 78 211 111 100 l 274 289 q 419 179 308 179 q 515 218 472 179 q 558 314 558 257 q 530 380 558 353 q 444 407 501 407 l 353 407 l 388 603 l 483 603 q 563 638 528 603 q 599 715 599 672 q 575 772 599 747 q 511 796 551 796 q 381 715 438 796 l 214 789 q 356 936 269 883 q 540 989 442 989 q 733 926 656 989 q 811 758 811 863 q 763 608 811 672 q 638 510 715 543 q 740 420 710 479 q 769 296 769 361 q 669 74 769 164 q 419 -17 568 -17 z "},"4":{"ha":856,"x_min":40,"x_max":881,"o":"m 500 0 l 532 178 l 40 178 l 69 344 l 632 972 l 876 972 l 772 374 l 881 374 l 846 178 l 738 178 l 706 0 l 500 0 m 565 374 l 624 703 l 335 374 l 565 374 z "},"5":{"ha":761,"x_min":81,"x_max":815,"o":"m 403 -17 q 196 49 285 -17 q 81 225 107 115 l 275 296 q 424 185 306 185 q 529 226 481 185 q 578 340 578 267 q 545 426 578 396 q 464 456 513 456 q 401 441 428 456 q 335 392 374 426 l 164 488 l 260 972 l 815 972 l 781 769 l 415 769 l 386 625 q 524 651 443 651 q 719 571 647 651 q 790 358 790 490 q 680 82 790 181 q 403 -17 569 -17 z "},"6":{"ha":792,"x_min":114,"x_max":813,"o":"m 702 84 q 647 34 702 84 q 436 -17 592 -17 q 197 75 281 -17 q 114 319 114 167 q 137 488 114 403 q 213 662 160 574 q 344 819 267 750 q 540 935 421 889 q 804 989 660 982 l 768 788 q 411 582 518 765 q 557 621 476 621 q 743 548 674 621 q 813 360 813 475 q 702 84 813 185 m 447 179 q 559 215 511 179 q 607 313 607 250 q 576 390 607 357 q 493 422 546 422 q 381 386 428 422 q 333 289 333 350 q 365 210 333 240 q 447 179 396 179 z "},"7":{"ha":699,"x_min":142,"x_max":840,"o":"m 199 0 q 554 768 279 432 l 142 768 l 176 972 l 840 972 l 807 782 q 556 410 658 633 q 421 0 453 188 l 199 0 z "},"8":{"ha":814,"x_min":108,"x_max":867,"o":"m 431 -17 q 201 68 294 -17 q 108 271 108 153 q 178 455 108 389 q 354 540 247 521 q 222 726 222 589 q 319 915 222 840 q 564 989 417 989 q 789 921 711 989 q 867 750 867 853 q 808 600 867 658 q 672 526 750 542 q 778 451 731 510 q 825 306 825 393 q 801 190 825 246 q 729 87 776 133 q 605 12 682 40 q 431 -17 528 -17 m 538 618 q 621 645 588 618 q 654 718 654 672 q 628 777 654 750 q 550 804 601 804 q 470 778 506 804 q 435 707 435 751 q 462 645 435 672 q 538 618 489 618 m 450 174 q 567 210 525 174 q 608 306 608 246 q 573 388 608 351 q 475 425 538 425 q 365 385 404 425 q 325 293 325 346 q 359 208 325 243 q 450 174 393 174 z "},"9":{"ha":792,"x_min":147,"x_max":857,"o":"m 189 -17 l 226 190 q 319 192 276 186 q 412 219 363 199 q 506 289 461 240 q 586 413 551 338 q 429 367 517 367 q 224 443 301 367 q 147 647 147 519 q 258 897 147 804 q 524 989 369 989 q 769 900 681 989 q 857 647 857 811 q 840 478 857 563 q 776 302 822 394 q 657 140 729 210 q 464 26 585 71 q 189 -17 343 -18 m 474 561 q 594 601 551 561 q 636 692 636 640 q 606 764 636 735 q 515 793 576 793 q 406 755 451 793 q 361 663 361 717 q 394 587 361 613 q 474 561 428 561 z "}," ":{"ha":307,"x_min":0,"x_max":0,"o":""},"!":{"ha":421,"x_min":111,"x_max":479,"o":"m 197 268 l 232 672 l 288 989 l 479 989 l 422 672 l 317 268 l 197 268 m 215 -17 q 140 13 169 -17 q 111 86 111 43 q 149 188 111 149 q 240 228 186 228 q 319 199 290 228 q 349 126 349 169 q 311 23 349 63 q 215 -17 274 -17 z "},"\"":{"ha":629,"x_min":193,"x_max":740,"o":"m 193 560 l 231 972 l 463 972 l 357 560 l 193 560 m 471 560 l 508 972 l 740 972 l 633 560 l 471 560 z "},"#":{"ha":949,"x_min":97,"x_max":1028,"o":"m 157 0 l 233 235 l 97 235 l 151 408 l 289 408 l 349 590 l 210 590 l 263 764 l 404 764 l 465 972 l 636 972 l 569 764 l 724 764 l 792 972 l 958 972 l 892 764 l 1028 764 l 974 590 l 838 590 l 778 408 l 917 408 l 861 235 l 722 235 l 646 0 l 481 0 l 556 235 l 401 235 l 326 0 l 157 0 m 458 408 l 613 408 l 669 590 l 515 590 l 458 408 z "},"$":{"ha":815,"x_min":119,"x_max":840,"o":"m 288 -126 l 311 0 q 119 267 153 53 l 306 332 q 451 183 339 183 q 545 212 510 183 q 581 288 581 240 q 554 353 581 324 q 488 400 528 382 q 403 444 449 418 q 317 501 357 471 q 251 585 278 531 q 225 710 225 639 q 250 819 225 764 q 336 923 275 874 q 483 986 397 972 l 501 1089 l 694 1089 l 675 974 q 840 750 804 925 l 647 686 q 606 765 632 738 q 528 793 581 793 q 466 772 490 793 q 442 721 442 750 q 478 658 442 686 q 567 607 515 631 q 671 551 619 583 q 759 456 722 518 q 796 307 796 394 q 728 103 796 192 q 518 -12 660 15 l 499 -126 l 288 -126 z "},"%":{"ha":1121,"x_min":138,"x_max":1156,"o":"m 343 -17 l 138 -17 l 951 989 l 1156 989 l 343 -17 m 389 478 q 239 544 292 478 q 186 696 186 611 q 256 899 186 810 q 447 989 325 989 q 599 922 546 989 q 651 771 651 856 q 576 560 651 642 q 389 478 501 478 m 403 638 q 463 676 439 638 q 488 758 488 714 q 472 810 488 790 q 432 829 457 829 q 372 792 396 829 q 349 708 349 756 q 403 638 349 638 m 856 -17 q 705 51 758 -17 q 651 203 651 118 q 721 406 651 317 q 913 496 790 496 q 1064 428 1011 496 q 1117 276 1117 361 q 1042 65 1117 147 q 856 -17 967 -17 m 869 144 q 929 183 906 144 q 953 265 953 221 q 897 335 953 335 q 838 297 861 335 q 815 214 815 260 q 869 144 815 144 z "},"&":{"ha":990,"x_min":129,"x_max":954,"o":"m 701 0 l 654 83 q 376 -17 535 -17 q 196 52 263 -17 q 129 229 129 121 q 375 553 129 442 q 329 725 329 624 q 408 917 329 846 q 590 989 488 989 q 760 933 700 989 q 819 781 819 876 q 635 514 819 621 l 694 421 q 701 456 696 431 q 708 497 707 482 l 900 497 q 804 244 872 356 l 954 0 l 701 0 m 517 751 q 553 646 517 697 q 635 775 635 701 q 619 822 635 806 q 579 838 604 838 q 535 815 554 838 q 517 751 517 792 m 433 179 q 568 225 513 179 l 460 411 q 339 268 339 351 q 363 203 339 226 q 433 179 388 179 z "},"'":{"ha":351,"x_min":193,"x_max":463,"o":"m 231 972 l 463 972 l 357 560 l 193 560 l 231 972 z "},"(":{"ha":517,"x_min":144,"x_max":639,"o":"m 228 -181 q 169 1 194 -118 q 144 235 144 119 q 229 671 144 479 q 435 989 314 863 l 639 989 q 552 883 594 942 q 457 727 510 824 q 372 502 404 631 q 339 235 339 374 q 365 -8 339 117 q 415 -181 390 -132 l 228 -181 z "},")":{"ha":517,"x_min":15,"x_max":517,"o":"m 15 -181 q 103 -72 58 -136 q 201 89 149 -8 q 288 316 254 186 q 321 581 321 446 q 297 819 321 697 q 247 989 272 940 l 435 989 q 492 810 468 928 q 517 581 517 693 q 429 140 517 335 q 221 -181 342 -54 l 15 -181 z "},"*":{"ha":749,"x_min":186,"x_max":814,"o":"m 489 511 l 479 586 l 450 511 l 339 376 l 204 492 l 318 621 l 401 647 l 335 650 l 186 704 l 251 868 l 401 814 l 451 782 l 432 840 l 463 1007 l 644 1007 l 615 847 l 572 779 l 633 822 l 778 865 l 814 697 l 660 650 l 575 647 l 632 624 l 719 471 l 565 374 l 489 511 z "},"+":{"ha":840,"x_min":194,"x_max":806,"o":"m 601 379 l 601 150 l 400 150 l 400 379 l 194 379 l 194 575 l 400 575 l 400 803 l 601 803 l 601 575 l 806 575 l 806 379 l 601 379 z "},",":{"ha":347,"x_min":17,"x_max":318,"o":"m 89 -196 l 17 -126 q 74 -71 38 -110 q 131 -6 111 -32 q 76 88 76 24 q 116 188 76 149 q 207 228 156 228 q 288 199 257 228 q 318 119 318 169 q 250 -54 318 33 q 89 -196 182 -142 z "},"-":{"ha":564,"x_min":156,"x_max":553,"o":"m 156 314 l 189 507 l 553 507 l 518 314 l 156 314 z "},".":{"ha":336,"x_min":69,"x_max":308,"o":"m 174 -17 q 99 13 128 -17 q 69 86 69 43 q 107 188 69 149 q 199 228 144 228 q 278 199 249 228 q 308 126 308 169 q 271 23 308 63 q 174 -17 233 -17 z "},"/":{"ha":718,"x_min":-51,"x_max":886,"o":"m -51 -181 l 679 989 l 886 989 l 154 -181 l -51 -181 z "},":":{"ha":336,"x_min":69,"x_max":386,"o":"m 251 433 q 176 463 206 433 q 147 535 147 492 q 185 637 147 597 q 276 676 222 676 q 357 648 328 676 q 386 575 386 619 q 349 472 386 511 q 251 433 311 433 m 174 -17 q 99 13 128 -17 q 69 86 69 43 q 107 188 69 149 q 199 228 144 228 q 278 199 249 228 q 308 126 308 169 q 271 23 308 63 q 174 -17 233 -17 z "},";":{"ha":336,"x_min":10,"x_max":386,"o":"m 251 433 q 176 463 206 433 q 147 535 147 492 q 185 637 147 597 q 276 676 222 676 q 357 648 328 676 q 386 575 386 619 q 349 472 386 511 q 251 433 311 433 m 82 -196 l 10 -126 q 70 -69 33 -108 q 125 -6 107 -31 q 69 88 69 21 q 109 188 69 149 q 200 228 149 228 q 281 199 250 228 q 311 119 311 169 q 243 -54 311 33 q 82 -196 175 -142 z "},"<":{"ha":840,"x_min":207,"x_max":818,"o":"m 818 129 l 207 397 l 207 558 l 818 825 l 818 613 l 500 476 l 818 340 l 818 129 z "},"=":{"ha":840,"x_min":194,"x_max":806,"o":"m 194 544 l 194 740 l 806 740 l 806 544 l 194 544 m 194 214 l 194 410 l 806 410 l 806 214 l 194 214 z "},">":{"ha":840,"x_min":196,"x_max":807,"o":"m 807 397 l 196 129 l 196 342 l 514 476 l 196 614 l 196 825 l 807 558 l 807 397 z "},"?":{"ha":678,"x_min":142,"x_max":760,"o":"m 278 263 l 289 322 q 338 455 304 397 q 408 544 371 513 q 481 602 446 576 q 540 654 517 628 q 563 713 563 681 q 542 771 563 747 q 481 794 522 794 q 386 756 425 794 q 335 646 347 717 l 142 646 q 271 899 169 810 q 514 989 372 989 q 693 917 626 989 q 760 738 760 846 q 734 626 760 675 q 670 545 708 578 q 593 482 632 513 q 522 410 554 451 q 481 319 489 369 l 471 263 l 278 263 m 336 -17 q 261 13 290 -17 q 232 86 232 43 q 269 188 232 149 q 361 228 307 228 q 441 199 411 228 q 471 126 471 169 q 433 23 471 63 q 336 -17 396 -17 z "},"@":{"ha":1140,"x_min":157,"x_max":1157,"o":"m 606 -17 q 272 97 388 -17 q 157 406 157 210 q 197 619 157 515 q 308 806 236 722 q 497 942 381 890 q 753 993 613 993 q 1049 890 942 993 q 1157 635 1157 786 q 1054 337 1157 454 q 801 219 951 219 q 697 283 707 219 q 565 222 654 222 q 450 272 492 222 q 408 415 408 322 q 497 647 408 547 q 706 747 586 747 q 804 704 772 747 l 813 729 l 961 729 l 879 501 q 832 367 832 369 q 843 357 832 357 q 958 428 903 357 q 1013 614 1013 499 q 947 776 1013 711 q 746 840 882 840 q 436 716 558 840 q 314 407 314 592 q 390 206 314 281 q 611 132 467 132 q 794 154 693 132 l 724 -4 q 606 -17 658 -17 m 604 371 q 699 426 658 371 q 739 538 739 481 q 726 581 739 564 q 689 599 713 599 q 598 549 639 599 q 557 436 557 499 q 570 390 557 408 q 604 371 583 371 z "},"A":{"ha":972,"x_min":21,"x_max":961,"o":"m 21 0 l 557 972 l 768 972 l 961 0 l 744 0 l 708 189 l 350 189 l 247 0 l 21 0 m 449 382 l 675 382 l 631 622 q 618 699 618 696 q 582 626 600 654 l 449 382 z "},"B":{"ha":928,"x_min":83,"x_max":964,"o":"m 254 972 l 692 972 q 897 908 829 972 q 964 751 964 843 q 829 503 964 574 q 942 307 942 446 q 844 87 942 174 q 561 0 746 0 l 83 0 l 254 972 m 610 601 q 717 629 682 601 q 753 696 753 657 q 732 751 753 725 q 665 776 711 776 l 429 776 l 399 601 l 610 601 m 557 197 q 715 304 715 197 q 615 404 715 404 l 364 404 l 328 197 l 557 197 z "},"C":{"ha":847,"x_min":140,"x_max":942,"o":"m 479 -15 q 227 99 314 -15 q 140 396 140 214 q 197 685 140 551 q 363 903 253 819 q 617 988 474 988 q 831 920 750 988 q 942 753 911 853 l 751 674 q 690 756 731 728 q 608 783 649 783 q 471 722 531 783 q 385 576 411 660 q 358 407 358 493 q 393 257 358 319 q 497 194 428 194 q 608 231 558 194 q 679 314 657 267 l 865 236 q 479 -15 719 -15 z "},"D":{"ha":946,"x_min":83,"x_max":974,"o":"m 254 972 l 569 972 q 869 847 765 972 q 974 521 974 721 q 943 334 974 424 q 852 168 913 244 q 690 46 792 92 q 461 0 589 0 l 83 0 l 254 972 m 454 201 q 667 294 589 201 q 744 510 744 386 q 692 703 744 633 q 536 772 639 772 l 424 772 l 324 201 l 454 201 z "},"E":{"ha":811,"x_min":83,"x_max":917,"o":"m 83 0 l 254 972 l 917 972 l 882 772 l 433 772 l 403 601 l 653 601 l 618 401 l 367 401 l 332 201 l 810 201 l 774 0 l 83 0 z "},"F":{"ha":747,"x_min":83,"x_max":900,"o":"m 83 0 l 254 972 l 900 972 l 865 772 l 433 772 l 403 607 l 671 607 l 633 396 l 367 396 l 296 0 l 83 0 z "},"G":{"ha":900,"x_min":140,"x_max":960,"o":"m 506 -17 q 228 108 317 -17 q 140 428 140 232 q 194 703 140 578 q 360 909 249 829 q 618 989 471 989 q 957 765 849 989 l 769 664 q 604 786 710 786 q 417 680 486 786 q 349 426 349 574 q 517 188 349 188 q 632 224 583 188 q 699 319 681 260 l 701 326 l 529 326 l 565 515 l 960 515 l 960 511 q 506 -17 883 -17 z "},"H":{"ha":958,"x_min":83,"x_max":1047,"o":"m 83 0 l 254 972 l 467 972 l 400 599 l 768 599 l 835 972 l 1047 972 l 876 0 l 664 0 l 733 400 l 367 400 l 296 0 l 83 0 z "},"I":{"ha":376,"x_min":83,"x_max":467,"o":"m 83 0 l 254 972 l 467 972 l 296 0 l 83 0 z "},"J":{"ha":746,"x_min":43,"x_max":838,"o":"m 383 -17 q 161 43 249 -17 q 43 210 74 103 l 232 294 q 374 189 275 189 q 465 227 429 189 q 511 332 500 265 l 624 972 l 838 972 l 715 281 q 661 131 700 193 q 572 39 622 69 q 475 -4 521 8 q 383 -17 429 -17 z "},"K":{"ha":963,"x_min":83,"x_max":1065,"o":"m 703 0 l 553 439 l 333 210 l 296 0 l 83 0 l 254 972 l 467 972 l 390 538 l 808 972 l 1065 972 l 711 603 l 929 0 l 703 0 z "},"L":{"ha":728,"x_min":83,"x_max":772,"o":"m 83 0 l 254 972 l 467 972 l 331 200 l 772 200 l 736 0 l 83 0 z "},"M":{"ha":1068,"x_min":83,"x_max":1157,"o":"m 533 -17 l 400 458 q 393 494 399 465 q 385 542 388 522 q 374 460 376 474 l 293 0 l 83 0 l 254 972 l 471 972 l 586 518 q 604 425 592 497 q 642 497 618 460 l 944 972 l 1157 972 l 986 0 l 775 0 l 854 458 q 872 540 864 508 q 828 457 835 469 l 533 -17 z "},"N":{"ha":946,"x_min":83,"x_max":1035,"o":"m 83 0 l 254 972 l 451 972 l 701 460 q 729 382 722 417 q 736 461 731 421 l 826 972 l 1035 972 l 864 0 l 681 0 l 414 536 q 392 603 406 554 q 386 536 392 565 l 292 0 l 83 0 z "},"O":{"ha":961,"x_min":140,"x_max":989,"o":"m 526 -17 q 348 20 425 -17 q 227 121 271 57 q 162 262 183 185 q 140 426 140 339 q 269 828 140 667 q 615 989 399 989 q 892 863 796 989 q 989 556 989 736 q 860 146 989 308 q 526 -17 731 -17 m 525 188 q 708 290 636 188 q 781 556 781 393 q 736 718 781 650 q 600 786 692 786 q 419 678 489 786 q 349 426 349 571 q 392 258 349 329 q 525 188 435 188 z "},"P":{"ha":863,"x_min":83,"x_max":956,"o":"m 83 0 l 254 972 l 678 972 q 888 887 819 972 q 956 685 956 801 q 856 444 956 542 q 590 347 756 347 l 357 347 l 296 0 l 83 0 m 611 549 q 705 585 672 549 q 738 664 738 622 q 651 771 738 771 l 433 771 l 393 549 l 611 549 z "},"Q":{"ha":961,"x_min":140,"x_max":989,"o":"m 989 556 q 936 278 989 403 q 789 76 883 153 l 840 -32 l 664 -124 l 611 -11 q 526 -17 574 -17 q 348 20 425 -17 q 227 121 271 57 q 162 262 183 185 q 140 426 140 339 q 269 828 140 667 q 615 989 399 989 q 892 863 796 989 q 989 556 989 736 m 697 274 q 781 556 781 382 q 736 718 781 650 q 600 786 692 786 q 419 678 489 786 q 349 426 349 571 q 390 262 349 332 q 517 188 431 192 l 465 299 l 646 388 l 697 274 z "},"R":{"ha":926,"x_min":83,"x_max":993,"o":"m 993 672 q 942 485 993 575 q 767 358 890 394 l 850 0 l 619 0 l 543 344 l 357 344 l 296 0 l 83 0 l 254 972 l 713 972 q 925 885 857 972 q 993 672 993 799 m 644 544 q 747 581 719 544 q 775 664 775 617 q 751 743 775 714 q 682 772 728 772 l 431 772 l 392 544 l 644 544 z "},"S":{"ha":818,"x_min":94,"x_max":853,"o":"m 660 685 q 617 763 653 732 q 526 794 582 794 q 436 771 468 794 q 404 713 404 747 q 435 660 404 683 q 512 621 465 638 q 612 578 558 604 q 712 519 665 551 q 789 430 758 488 q 819 296 819 372 q 714 70 819 157 q 433 -17 608 -17 q 214 61 299 -17 q 94 268 129 139 l 289 339 q 352 226 313 265 q 464 188 392 188 q 558 211 521 188 q 596 275 596 235 q 554 349 596 318 q 453 402 513 379 q 333 456 393 425 q 232 549 274 488 q 190 701 190 611 q 285 908 190 826 q 540 989 379 989 q 763 917 686 989 q 853 746 839 846 l 660 685 z "},"T":{"ha":806,"x_min":169,"x_max":944,"o":"m 644 769 l 508 0 l 297 0 l 433 769 l 169 769 l 204 972 l 944 972 l 910 769 l 644 769 z "},"U":{"ha":954,"x_min":147,"x_max":1049,"o":"m 496 -17 q 246 65 344 -17 q 147 303 147 146 q 164 457 147 357 l 258 972 l 468 972 l 371 415 q 360 325 360 349 q 403 224 360 256 q 513 192 446 192 q 660 233 604 192 q 733 375 717 274 l 839 972 l 1049 972 l 940 354 q 878 167 921 243 q 774 53 836 92 q 647 -1 713 14 q 496 -17 581 -17 z "},"V":{"ha":918,"x_min":197,"x_max":1072,"o":"m 360 0 l 197 972 l 417 972 l 497 432 q 510 275 510 347 q 571 425 542 368 l 846 972 l 1072 972 l 585 0 l 360 0 z "},"W":{"ha":1133,"x_min":201,"x_max":1278,"o":"m 238 0 l 201 972 l 415 972 l 417 463 q 416 421 417 442 q 415 389 415 400 q 442 465 424 421 l 643 972 l 825 972 l 851 467 q 853 390 853 439 q 879 467 864 426 l 1060 972 l 1278 972 l 904 0 l 710 0 l 676 492 q 675 619 675 518 q 631 500 663 574 l 432 0 l 238 0 z "},"X":{"ha":957,"x_min":35,"x_max":1075,"o":"m 35 0 l 440 508 l 236 972 l 476 972 l 596 707 l 813 972 l 1075 972 l 690 492 l 910 0 l 668 0 l 533 293 l 296 0 l 35 0 z "},"Y":{"ha":939,"x_min":181,"x_max":1096,"o":"m 363 0 l 432 393 l 181 972 l 403 972 l 564 601 l 854 972 l 1096 972 l 644 390 l 576 0 l 363 0 z "},"Z":{"ha":851,"x_min":47,"x_max":960,"o":"m 47 0 l 75 163 l 638 772 l 213 772 l 247 972 l 960 972 l 932 811 l 363 201 l 825 201 l 789 0 l 47 0 z "},"[":{"ha":533,"x_min":99,"x_max":656,"o":"m 99 -181 l 306 989 l 656 989 l 622 794 l 471 794 l 332 15 l 483 15 l 449 -181 l 99 -181 z "},"\\":{"ha":718,"x_min":156,"x_max":671,"o":"m 472 -181 l 156 989 l 353 989 l 671 -181 l 472 -181 z "},"]":{"ha":533,"x_min":24,"x_max":581,"o":"m 24 -181 l 57 15 l 208 15 l 347 794 l 196 794 l 231 989 l 581 989 l 374 -181 l 24 -181 z "},"^":{"ha":840,"x_min":157,"x_max":850,"o":"m 653 465 l 488 726 l 354 465 l 157 465 l 414 989 l 551 989 l 850 465 l 653 465 z "},"_":{"ha":667,"x_min":-50,"x_max":656,"o":"m -50 -246 l -25 -99 l 656 -99 l 631 -246 l -50 -246 z "},"`":{"ha":690,"x_min":335,"x_max":731,"o":"m 542 800 l 335 1017 l 579 1017 l 731 800 l 542 800 z "},"a":{"ha":736,"x_min":75,"x_max":751,"o":"m 471 0 l 483 56 q 404 4 456 25 q 297 -17 353 -17 q 140 40 204 -17 q 75 192 75 97 q 162 381 75 310 q 397 451 249 451 q 544 413 478 451 l 549 432 q 553 472 553 451 q 450 550 553 550 q 226 481 339 550 l 197 642 q 485 726 328 726 q 566 717 525 726 q 651 683 607 707 q 724 612 696 660 q 751 497 751 564 q 740 410 751 482 l 669 0 l 471 0 m 356 161 q 507 207 442 161 l 518 267 q 394 282 474 282 q 309 264 344 282 q 274 210 274 246 q 296 174 274 188 q 356 161 318 161 z "},"b":{"ha":756,"x_min":88,"x_max":782,"o":"m 435 -17 q 345 6 385 -17 q 292 61 306 28 l 281 0 l 88 0 l 251 939 l 464 1003 l 403 660 q 551 726 458 726 q 716 642 650 726 q 782 411 782 557 q 678 94 782 204 q 435 -17 575 -17 m 417 179 q 535 241 489 179 q 581 393 581 303 q 551 496 581 460 q 471 532 521 532 q 413 517 442 532 q 371 485 383 501 l 325 222 q 417 179 350 179 z "},"c":{"ha":733,"x_min":108,"x_max":764,"o":"m 400 -17 q 185 73 261 -17 q 108 306 108 163 q 214 602 108 478 q 490 726 319 726 q 670 665 597 726 q 764 504 743 603 l 568 442 q 464 532 550 532 q 357 473 403 532 q 311 324 311 414 q 338 222 311 264 q 411 179 364 179 q 538 281 499 179 l 719 222 q 595 47 682 111 q 400 -17 508 -17 z "},"d":{"ha":756,"x_min":110,"x_max":853,"o":"m 335 -17 q 170 63 231 -17 q 110 271 110 142 q 215 603 110 481 q 460 726 319 726 q 593 660 557 726 l 642 939 l 853 1003 l 676 0 l 482 0 l 494 65 q 335 -17 438 -17 m 407 179 q 518 225 482 179 l 563 482 q 472 532 542 532 q 351 465 396 532 q 307 304 307 399 q 407 179 307 179 z "},"e":{"ha":740,"x_min":93,"x_max":771,"o":"m 400 -17 q 176 60 260 -17 q 93 288 93 138 q 137 495 93 397 q 274 660 181 593 q 489 726 367 726 q 697 643 622 726 q 771 436 771 560 q 744 278 771 351 l 294 278 l 294 265 q 335 188 294 217 q 425 160 375 160 q 513 182 468 160 q 583 238 557 204 l 688 110 q 400 -17 575 -17 m 325 447 l 582 447 q 578 460 581 451 q 576 471 576 468 q 467 551 551 551 q 325 447 353 551 z "},"f":{"ha":476,"x_min":131,"x_max":636,"o":"m 422 535 l 328 0 l 131 0 l 224 535 l 139 535 l 169 710 l 256 710 l 274 814 q 352 953 292 913 q 483 993 413 993 q 636 954 563 993 l 607 792 q 514 814 553 814 q 464 774 472 814 l 453 710 l 585 710 l 553 535 l 422 535 z "},"g":{"ha":756,"x_min":110,"x_max":806,"o":"m 219 -106 q 403 -66 340 -97 q 481 31 467 -35 l 485 47 q 335 -17 432 -17 q 171 62 232 -17 q 110 275 110 140 q 213 600 110 474 q 463 726 315 726 q 541 708 506 726 q 593 661 576 690 l 600 710 l 806 710 l 688 51 q 565 -184 658 -111 q 290 -274 471 -257 l 219 -106 m 401 179 q 514 221 472 179 l 561 486 q 465 532 524 532 q 349 469 392 532 q 307 304 307 407 q 330 216 307 253 q 401 179 353 179 z "},"h":{"ha":781,"x_min":88,"x_max":781,"o":"m 88 0 l 251 939 l 464 1003 l 399 640 q 571 726 463 726 q 726 660 672 726 q 781 499 781 594 q 771 410 781 471 l 697 0 l 499 0 l 567 382 q 574 450 574 424 q 493 538 574 538 q 408 502 449 538 q 357 401 368 467 l 285 0 l 88 0 z "},"i":{"ha":369,"x_min":88,"x_max":453,"o":"m 325 779 q 258 807 285 779 q 232 874 232 835 q 271 966 232 926 q 356 1006 310 1006 q 426 978 399 1006 q 453 911 453 951 q 414 819 453 858 q 325 779 375 779 m 88 0 l 213 710 l 413 710 l 288 0 l 88 0 z "},"j":{"ha":367,"x_min":-126,"x_max":449,"o":"m 321 779 q 253 807 281 779 q 226 874 226 835 q 265 966 226 926 q 351 1006 304 1006 q 422 978 394 1006 q 449 911 449 950 q 410 819 449 858 q 321 779 371 779 m -56 -308 l -126 -142 q 31 -83 -19 -122 q 94 39 81 -44 l 211 710 l 411 710 l 296 64 q 273 -41 285 0 q 237 -129 261 -82 q 178 -206 213 -176 q 84 -264 143 -236 q -56 -308 25 -292 z "},"k":{"ha":754,"x_min":88,"x_max":826,"o":"m 564 488 l 719 0 l 513 0 l 401 349 l 338 294 l 285 0 l 88 0 l 251 939 l 464 1003 l 385 553 l 564 710 l 826 710 l 564 488 z "},"l":{"ha":379,"x_min":86,"x_max":461,"o":"m 86 0 l 250 939 l 461 1003 l 283 0 l 86 0 z "},"m":{"ha":1172,"x_min":88,"x_max":1172,"o":"m 88 0 l 213 710 l 407 710 l 396 646 q 579 726 467 726 q 669 698 628 726 q 731 624 711 669 q 957 726 817 726 q 1024 716 990 726 q 1093 682 1058 706 q 1150 613 1128 658 q 1172 507 1172 568 q 1167 440 1172 472 l 1089 0 l 885 0 l 957 413 q 961 447 961 433 q 943 506 961 485 q 911 531 925 528 q 883 535 897 535 q 761 414 783 535 l 689 0 l 483 0 l 557 413 q 560 447 560 440 q 550 496 560 476 q 526 523 540 515 q 501 533 511 531 q 483 535 492 535 q 446 531 465 535 q 397 497 426 526 q 357 414 367 467 l 285 0 l 88 0 z "},"n":{"ha":781,"x_min":88,"x_max":781,"o":"m 88 0 l 213 710 l 413 710 l 400 642 q 571 726 465 726 q 726 663 672 726 q 781 504 781 599 q 769 410 781 465 l 697 0 l 499 0 l 567 383 q 574 451 574 425 q 493 538 574 538 q 408 505 449 538 q 357 403 368 472 l 285 0 l 88 0 z "},"o":{"ha":750,"x_min":111,"x_max":765,"o":"m 399 -17 q 111 300 111 -17 q 217 610 111 494 q 489 726 322 726 q 690 644 614 726 q 765 421 765 563 q 662 101 765 218 q 399 -17 558 -17 m 418 181 q 523 235 479 181 q 567 382 567 289 q 457 532 567 532 q 352 476 396 532 q 308 333 308 421 q 418 181 308 181 z "},"p":{"ha":754,"x_min":38,"x_max":776,"o":"m 426 -17 q 294 46 333 -17 l 250 -212 l 38 -276 l 211 710 l 411 710 l 400 656 q 553 726 458 726 q 711 646 646 726 q 776 429 776 565 q 672 102 776 221 q 426 -17 568 -17 m 417 179 q 535 241 492 179 q 579 407 579 303 q 553 499 579 465 q 475 532 528 532 q 415 516 447 532 q 368 478 382 500 l 325 225 q 353 194 331 208 q 417 179 375 179 z "},"q":{"ha":754,"x_min":107,"x_max":800,"o":"m 326 -17 q 169 70 231 -17 q 107 300 107 157 q 213 613 107 499 q 454 726 318 726 q 593 651 556 726 l 601 710 l 800 710 l 639 -214 l 426 -278 l 485 47 q 326 -17 428 -17 m 410 179 q 515 224 486 179 l 561 485 q 533 517 557 501 q 481 532 510 532 q 356 470 406 532 q 307 317 307 408 q 333 216 307 253 q 410 179 360 179 z "},"r":{"ha":569,"x_min":82,"x_max":661,"o":"m 82 0 l 207 710 l 406 710 l 394 651 q 444 706 408 682 q 528 729 481 729 q 661 667 601 729 l 603 483 q 485 532 551 532 q 349 394 375 532 l 281 0 l 82 0 z "},"s":{"ha":651,"x_min":63,"x_max":683,"o":"m 336 -17 q 169 20 247 -17 q 63 117 92 57 l 206 225 q 358 153 274 153 q 421 165 394 153 q 447 203 447 178 q 400 252 447 226 q 297 301 353 278 q 194 376 242 325 q 147 494 147 426 q 230 664 147 601 q 443 726 313 726 q 588 690 522 726 q 683 611 653 654 l 532 501 q 419 561 494 561 q 362 547 383 561 q 340 511 340 533 q 372 476 340 494 q 447 438 403 458 q 537 390 492 417 q 613 322 582 364 q 644 226 644 279 q 563 48 644 113 q 336 -17 481 -17 z "},"t":{"ha":514,"x_min":108,"x_max":589,"o":"m 310 -17 q 197 22 240 -17 q 153 122 153 60 q 165 243 153 178 l 215 535 l 108 535 l 139 710 l 247 710 l 286 939 l 496 1003 l 444 710 l 589 710 l 558 535 l 414 535 l 364 249 q 354 190 354 201 q 400 156 354 156 q 506 181 442 156 l 471 15 q 310 -17 403 -17 z "},"u":{"ha":781,"x_min":115,"x_max":825,"o":"m 503 0 l 513 67 q 304 -17 429 -17 q 174 41 233 -17 q 115 206 115 99 q 121 271 115 239 l 199 710 l 399 710 l 331 329 q 322 261 322 279 q 404 179 322 179 q 502 208 460 179 q 554 294 544 238 l 628 710 l 825 710 l 700 0 l 503 0 z "},"v":{"ha":747,"x_min":146,"x_max":861,"o":"m 274 0 l 146 710 l 346 710 l 411 306 q 417 242 415 278 q 446 306 443 300 l 653 710 l 861 710 l 493 0 l 274 0 z "},"w":{"ha":1000,"x_min":154,"x_max":1096,"o":"m 231 0 l 154 710 l 344 710 l 363 413 q 364 310 364 383 q 403 413 374 340 l 525 710 l 718 710 l 739 413 q 742 310 742 385 q 761 365 749 329 q 779 413 774 400 l 901 710 l 1096 710 l 789 0 l 613 0 l 585 325 q 582 443 582 350 q 538 325 554 361 l 406 0 l 231 0 z "},"x":{"ha":800,"x_min":36,"x_max":874,"o":"m 36 0 l 350 374 l 174 710 l 389 710 l 482 532 l 633 710 l 874 710 l 574 354 l 760 0 l 544 0 l 442 197 l 276 0 l 36 0 z "},"y":{"ha":763,"x_min":128,"x_max":888,"o":"m 128 -269 l 283 13 l 149 710 l 346 710 l 421 326 q 431 258 429 290 q 461 326 444 296 l 672 710 l 888 710 l 349 -269 l 128 -269 z "},"z":{"ha":711,"x_min":56,"x_max":778,"o":"m 56 0 l 83 163 l 486 531 l 174 531 l 204 710 l 778 710 l 750 553 l 347 181 l 682 181 l 651 0 l 56 0 z "},"{":{"ha":518,"x_min":106,"x_max":636,"o":"m 429 -181 q 234 -105 306 -171 q 163 85 163 -39 q 171 174 163 125 l 183 243 q 186 268 186 260 q 154 313 186 313 l 106 313 l 138 497 l 188 497 q 240 565 229 497 l 260 686 q 381 908 285 828 q 636 989 478 989 l 603 801 q 453 685 474 794 l 435 586 q 338 417 410 444 q 263 404 315 410 l 261 401 q 349 361 319 394 q 378 275 378 328 q 376 253 378 268 q 374 233 374 239 l 351 111 q 351 102 351 108 q 350 92 350 96 q 461 3 350 8 l 429 -181 z "},"|":{"ha":421,"x_min":194,"x_max":403,"o":"m 194 -525 l 194 1475 l 403 1475 l 403 -525 l 194 -525 z "},"}":{"ha":518,"x_min":25,"x_max":556,"o":"m 25 -181 l 60 8 q 207 126 190 15 l 224 225 q 283 365 242 319 q 407 410 324 410 l 408 414 q 320 463 351 424 q 289 560 289 503 q 290 571 289 564 q 290 581 290 578 l 308 685 q 313 708 313 706 q 199 807 313 800 l 232 989 q 431 922 358 986 q 503 742 503 858 q 494 667 503 707 l 478 564 q 476 532 476 556 q 508 497 476 497 l 556 497 l 522 313 l 481 313 q 422 243 432 313 l 394 92 q 276 -109 371 -37 q 25 -181 182 -181 z "},"~":{"ha":840,"x_min":194,"x_max":817,"o":"m 629 343 q 494 379 567 343 q 399 415 422 415 q 354 343 357 415 l 197 343 q 240 535 194 458 q 382 613 286 613 q 513 576 443 613 q 613 540 583 540 q 657 613 654 540 l 814 613 q 773 419 817 494 q 629 343 729 343 z "}," ":{"ha":307,"x_min":0,"x_max":0,"o":""},"¡":{"ha":421,"x_min":69,"x_max":438,"o":"m 308 486 q 228 515 257 486 q 199 588 199 543 q 236 690 199 651 q 333 729 274 729 q 408 700 379 729 q 438 628 438 671 q 400 526 438 565 q 308 486 363 486 m 69 -278 l 125 40 l 232 444 l 351 444 l 317 40 l 260 -278 l 69 -278 z "},"¢":{"ha":751,"x_min":142,"x_max":797,"o":"m 275 -17 l 303 139 q 183 256 225 176 q 142 439 142 335 q 219 699 142 583 q 426 846 297 814 l 453 989 l 638 989 l 611 844 q 731 765 682 822 q 797 635 781 708 l 603 572 q 494 664 583 664 q 390 603 435 664 q 344 454 344 542 q 371 350 344 393 q 444 307 397 307 q 574 410 533 307 l 750 353 q 648 197 719 258 q 483 119 576 135 l 460 -17 l 275 -17 z "},"£":{"ha":810,"x_min":106,"x_max":921,"o":"m 106 0 l 139 189 q 274 364 233 231 l 164 364 l 199 551 l 268 551 q 263 601 269 558 q 256 669 256 643 q 349 896 256 803 q 632 989 443 989 q 791 959 714 989 q 921 883 868 929 l 817 697 q 724 764 783 732 q 604 796 665 796 q 490 763 525 796 q 456 678 456 729 q 465 622 456 669 q 476 551 474 574 l 706 551 l 671 364 l 475 364 q 394 199 444 264 l 803 199 l 769 0 l 106 0 z "},"¤":{"ha":882,"x_min":85,"x_max":960,"o":"m 463 118 q 313 153 379 118 l 203 54 l 85 204 l 203 307 q 194 393 194 344 q 261 619 194 507 l 178 726 l 342 871 l 419 772 q 583 807 500 807 q 731 772 674 807 l 840 871 l 960 722 l 842 618 q 849 521 849 556 q 785 303 849 403 l 868 200 l 701 54 l 624 154 q 463 118 542 118 m 496 315 q 605 367 560 315 q 650 493 650 418 q 623 577 650 544 q 549 610 596 610 q 441 559 486 610 q 396 433 396 508 q 424 349 396 382 q 496 315 451 315 z "},"¥":{"ha":839,"x_min":171,"x_max":989,"o":"m 633 490 l 778 490 l 750 342 l 576 342 l 561 251 l 735 251 l 708 101 l 536 101 l 517 0 l 319 0 l 339 101 l 171 101 l 197 251 l 364 251 l 379 342 l 213 342 l 240 490 l 379 490 l 190 972 l 408 972 l 529 653 l 751 972 l 989 972 l 633 490 z "},"¦":{"ha":421,"x_min":193,"x_max":401,"o":"m 193 508 l 193 1146 l 401 1146 l 401 508 l 193 508 m 193 -312 l 193 325 l 401 325 l 401 -312 l 193 -312 z "},"§":{"ha":714,"x_min":61,"x_max":767,"o":"m 365 -167 q 185 -122 265 -167 q 61 7 106 -76 l 228 108 q 368 28 286 28 q 433 42 406 28 q 460 88 460 57 q 313 199 460 126 q 253 230 276 215 q 203 268 229 244 q 163 323 176 292 q 150 393 150 354 q 265 581 150 501 q 207 733 207 643 q 291 917 207 844 q 504 989 375 989 q 660 953 589 989 q 767 858 731 918 l 606 742 q 494 797 561 797 q 437 783 460 797 q 414 746 414 768 q 546 653 414 713 q 675 571 628 617 q 722 446 722 525 q 622 254 722 326 q 676 99 676 186 q 594 -87 676 -8 q 365 -167 511 -167 m 494 351 q 515 394 515 364 q 396 485 515 435 q 361 447 361 476 q 494 351 361 407 z "},"¨":{"ha":690,"x_min":293,"x_max":772,"o":"m 386 799 q 319 825 344 799 q 293 890 293 851 q 331 981 293 943 q 414 1019 368 1019 q 484 993 458 1019 q 510 928 510 967 q 472 837 510 875 q 386 799 435 799 m 649 799 q 581 824 606 799 q 556 890 556 850 q 592 981 556 943 q 678 1019 629 1019 q 747 993 721 1019 q 772 928 772 967 q 734 837 772 875 q 649 799 696 799 z "},"©":{"ha":1125,"x_min":139,"x_max":1144,"o":"m 1000 128 q 928 56 1000 128 q 642 -17 856 -17 q 283 128 428 -17 q 139 486 139 272 q 283 844 139 700 q 642 989 428 989 q 1000 844 856 989 q 1144 486 1144 700 q 1000 128 1144 272 m 373 213 q 426 158 373 213 q 642 103 479 103 q 910 213 804 103 q 1017 486 1017 322 q 910 760 1017 650 q 642 869 804 869 q 373 760 479 869 q 267 486 267 650 q 373 213 267 322 m 646 183 q 527 209 578 183 q 449 280 476 235 q 408 376 421 325 q 394 486 394 428 q 457 697 394 606 q 646 789 519 789 q 856 660 794 789 l 729 600 q 646 653 697 653 q 566 602 592 653 q 540 486 540 551 q 568 370 540 421 q 646 319 596 319 q 729 372 700 319 l 857 328 q 646 183 792 183 z "},"ª":{"ha":590,"x_min":156,"x_max":660,"o":"m 436 393 l 442 435 q 319 379 404 379 q 203 425 251 379 q 156 554 156 471 q 220 710 156 654 q 376 765 285 765 q 496 739 454 765 l 501 769 q 502 776 501 771 q 503 786 503 782 q 433 849 503 849 q 263 789 351 849 l 236 918 q 475 989 350 989 q 605 944 550 989 q 660 808 660 900 q 656 761 660 775 l 592 393 l 436 393 m 356 519 q 467 565 414 519 l 475 611 q 382 631 431 631 q 320 614 344 631 q 296 568 296 597 q 313 533 296 547 q 356 519 329 519 z "},"«":{"ha":779,"x_min":103,"x_max":883,"o":"m 243 0 l 103 356 l 368 710 l 575 710 l 304 347 l 442 0 l 243 0 m 553 0 l 413 356 l 678 710 l 883 710 l 613 347 l 750 0 l 553 0 z "},"¬":{"ha":840,"x_min":196,"x_max":807,"o":"m 606 219 l 606 478 l 196 478 l 196 674 l 807 674 l 807 219 l 606 219 z "},"­":{"ha":564,"x_min":156,"x_max":553,"o":"m 156 314 l 189 507 l 553 507 l 518 314 l 156 314 z "},"®":{"ha":1125,"x_min":139,"x_max":1144,"o":"m 1000 128 q 928 56 1000 128 q 642 -17 856 -17 q 283 128 428 -17 q 139 486 139 272 q 283 844 139 700 q 642 989 428 989 q 1000 844 856 989 q 1144 486 1144 700 q 1000 128 1144 272 m 373 213 q 426 158 373 213 q 642 103 479 103 q 910 213 804 103 q 1017 486 1017 322 q 910 760 1017 650 q 642 869 804 869 q 373 760 479 869 q 267 486 267 650 q 373 213 267 322 m 432 193 l 432 779 l 681 779 q 829 727 785 779 q 874 596 874 675 q 844 495 874 540 q 753 429 814 450 l 888 193 l 738 193 l 617 413 l 574 413 l 574 193 l 432 193 m 574 542 l 672 542 q 715 558 701 542 q 729 596 729 574 q 716 633 729 617 q 672 650 703 650 l 574 650 l 574 542 z "},"¯":{"ha":690,"x_min":319,"x_max":788,"o":"m 319 807 l 347 969 l 788 969 l 760 807 l 319 807 z "},"°":{"ha":558,"x_min":178,"x_max":697,"o":"m 435 607 q 246 679 314 607 q 178 868 178 751 q 254 1062 178 985 q 440 1139 331 1139 q 628 1065 560 1139 q 697 876 697 992 q 621 683 697 760 q 435 607 544 607 m 429 790 q 489 815 464 790 q 514 879 514 840 q 495 932 514 911 q 444 953 476 953 q 385 928 408 953 q 361 865 361 904 q 379 811 361 832 q 429 790 397 790 z "},"±":{"ha":840,"x_min":196,"x_max":807,"o":"m 601 456 l 601 263 l 401 263 l 401 456 l 196 456 l 196 651 l 401 651 l 401 844 l 601 844 l 601 651 l 807 651 l 807 456 l 601 456 m 196 0 l 196 196 l 807 196 l 807 0 l 196 0 z "},"²":{"ha":504,"x_min":140,"x_max":642,"o":"m 140 617 q 218 824 165 746 q 400 975 271 901 q 464 1025 464 1008 q 431 1057 464 1057 q 391 1040 411 1057 q 357 996 371 1024 l 215 1031 q 322 1163 254 1114 q 471 1213 390 1213 q 595 1163 549 1213 q 642 1050 642 1114 q 610 950 642 990 q 488 854 578 910 q 383 776 399 799 l 589 776 l 561 617 l 140 617 z "},"³":{"ha":481,"x_min":154,"x_max":603,"o":"m 308 824 q 326 776 310 792 q 367 761 343 761 q 402 773 389 761 q 415 803 415 785 q 358 849 415 849 l 304 849 l 331 990 l 382 990 q 423 1002 408 990 q 438 1031 438 1014 q 428 1051 438 1043 q 404 1060 418 1060 q 349 1019 372 1060 l 224 1072 q 449 1213 303 1213 q 560 1170 517 1213 q 603 1069 603 1128 q 575 979 603 1018 q 508 919 547 940 q 556 873 535 907 q 576 794 576 839 q 517 663 576 717 q 360 608 457 608 q 154 786 182 608 l 308 824 z "},"´":{"ha":690,"x_min":329,"x_max":800,"o":"m 515 800 l 329 800 l 556 1017 l 800 1017 l 515 800 z "},"µ":{"ha":781,"x_min":31,"x_max":825,"o":"m 501 0 l 513 64 q 364 -17 457 -17 q 334 -13 349 -17 q 312 -6 319 -10 q 294 3 304 -3 q 281 10 283 8 l 242 -212 l 31 -276 l 203 710 l 397 710 l 331 325 q 324 269 324 293 q 411 179 324 179 q 556 315 532 179 l 626 710 l 825 710 l 700 0 l 501 0 z "},"¶":{"ha":878,"x_min":139,"x_max":950,"o":"m 250 -278 l 364 379 q 199 460 260 388 q 139 639 139 533 q 158 748 139 693 q 215 855 176 803 q 326 940 254 907 q 494 972 399 972 l 950 972 l 769 -49 l 560 -142 l 721 781 l 632 781 l 463 -185 l 250 -278 z "},"·":{"ha":336,"x_min":135,"x_max":374,"o":"m 239 365 q 164 394 193 365 q 135 465 135 422 q 172 567 135 528 q 264 607 210 607 q 344 578 314 607 q 374 507 374 550 q 335 405 374 444 q 239 365 297 365 z "},"¸":{"ha":690,"x_min":117,"x_max":481,"o":"m 420 -292 q 390 -318 420 -292 q 258 -343 360 -343 q 117 -274 157 -343 l 208 -210 q 258 -237 224 -237 q 313 -222 293 -237 q 332 -178 332 -206 q 279 -136 332 -136 q 215 -160 247 -136 l 182 -107 l 303 14 l 406 14 l 346 -61 q 447 -90 413 -61 q 481 -167 481 -119 q 420 -292 481 -242 z "},"¹":{"ha":317,"x_min":192,"x_max":458,"o":"m 192 617 l 268 1043 l 199 1043 l 222 1172 q 328 1203 300 1172 l 458 1203 l 354 617 l 192 617 z "},"º":{"ha":629,"x_min":169,"x_max":701,"o":"m 392 381 q 231 449 293 381 q 169 632 169 518 q 254 892 169 794 q 483 989 339 989 q 640 919 579 989 q 701 736 701 850 q 618 478 701 575 q 392 381 535 381 m 411 535 q 505 584 467 535 q 543 707 543 633 q 522 801 543 768 q 464 835 501 835 q 366 784 404 835 q 328 661 328 733 q 411 535 328 535 z "},"»":{"ha":779,"x_min":11,"x_max":801,"o":"m 11 0 l 288 368 l 157 710 l 353 710 l 493 356 l 228 0 l 11 0 m 319 0 l 596 368 l 465 710 l 661 710 l 801 356 l 536 0 l 319 0 z "},"¼":{"ha":1025,"x_min":26,"x_max":1033,"o":"m 26 -17 l 842 989 l 1033 989 l 218 -17 l 26 -17 m 150 393 l 225 819 l 156 819 l 178 949 q 285 979 254 949 l 415 979 l 313 393 l 150 393 m 749 0 l 767 101 l 494 101 l 515 217 l 847 586 l 999 586 l 939 243 l 1015 243 l 990 101 l 914 101 l 896 0 l 749 0 m 790 243 l 817 385 l 686 243 l 790 243 z "},"½":{"ha":1078,"x_min":26,"x_max":1082,"o":"m 26 -17 l 842 989 l 1033 989 l 218 -17 l 26 -17 m 150 393 l 225 819 l 156 819 l 178 949 q 285 979 254 949 l 415 979 l 313 393 l 150 393 m 660 414 q 767 547 699 497 q 915 596 835 596 q 1037 554 992 596 q 1082 447 1082 513 q 1076 388 1082 414 q 1055 340 1071 361 q 1028 305 1039 318 q 988 275 1017 292 q 948 252 960 258 q 901 229 936 246 q 807 160 832 197 l 1033 160 l 1006 0 l 585 0 q 678 225 608 135 q 844 358 747 315 q 875 373 865 368 q 897 389 885 378 q 908 413 908 400 q 878 440 908 440 q 800 379 832 440 l 660 414 z "},"¾":{"ha":1178,"x_min":114,"x_max":1188,"o":"m 296 386 q 170 433 217 386 q 114 564 124 479 l 269 600 q 324 539 271 539 q 363 553 347 539 q 378 592 378 568 q 318 625 378 625 l 265 625 l 290 767 l 346 767 q 399 807 399 767 q 367 836 399 836 q 335 827 346 836 q 311 796 324 818 l 185 849 q 410 989 265 989 q 523 947 483 989 q 563 846 563 906 q 535 756 563 794 q 469 696 508 717 q 536 590 536 665 q 471 444 536 503 q 296 386 406 386 m 179 -17 l 994 989 l 1188 989 l 372 -17 l 179 -17 m 901 0 l 919 101 l 647 101 l 668 217 l 1000 586 l 1151 586 l 1092 243 l 1168 243 l 1143 101 l 1067 101 l 1049 0 l 901 0 m 943 243 l 969 385 l 839 243 l 943 243 z "},"¿":{"ha":678,"x_min":44,"x_max":663,"o":"m 443 486 q 363 515 392 486 q 333 588 333 543 q 371 690 333 651 q 468 729 408 729 q 543 699 514 729 q 572 628 572 669 q 535 526 572 565 q 443 486 497 486 m 290 -278 q 111 -206 178 -278 q 44 -26 44 -135 q 70 85 44 36 q 134 167 96 135 q 211 230 172 200 q 283 301 250 260 q 324 392 315 342 l 333 450 l 526 450 l 515 390 q 467 258 500 315 q 396 168 433 200 q 323 110 358 136 q 265 58 288 85 q 242 -1 242 31 q 263 -60 242 -36 q 324 -83 283 -83 q 418 -44 379 -83 q 469 67 457 -4 l 663 67 q 533 -188 635 -99 q 290 -278 432 -278 z "},"À":{"ha":972,"x_min":21,"x_max":961,"o":"m 588 1082 l 381 1299 l 625 1299 l 776 1082 l 588 1082 m 21 0 l 557 972 l 768 972 l 961 0 l 744 0 l 708 189 l 350 189 l 247 0 l 21 0 m 449 382 l 675 382 l 631 622 q 618 699 618 696 q 582 626 600 654 l 449 382 z "},"Á":{"ha":972,"x_min":21,"x_max":1038,"o":"m 753 1082 l 567 1082 l 793 1299 l 1038 1299 l 753 1082 m 21 0 l 557 972 l 768 972 l 961 0 l 744 0 l 708 189 l 350 189 l 247 0 l 21 0 m 449 382 l 675 382 l 631 622 q 618 699 618 696 q 582 626 600 654 l 449 382 z "},"Â":{"ha":972,"x_min":21,"x_max":963,"o":"m 785 1082 l 699 1167 l 582 1082 l 404 1082 l 631 1299 l 813 1299 l 963 1082 l 785 1082 m 21 0 l 557 972 l 768 972 l 961 0 l 744 0 l 708 189 l 350 189 l 247 0 l 21 0 m 449 382 l 675 382 l 631 622 q 618 699 618 696 q 582 626 600 654 l 449 382 z "},"Ã":{"ha":972,"x_min":21,"x_max":999,"o":"m 801 1086 q 686 1117 750 1086 q 593 1149 622 1149 q 521 1092 535 1149 l 432 1092 q 628 1293 467 1293 q 743 1262 678 1293 q 838 1231 808 1231 q 908 1288 894 1231 l 999 1288 q 801 1086 963 1086 m 21 0 l 557 972 l 768 972 l 961 0 l 744 0 l 708 189 l 350 189 l 247 0 l 21 0 m 449 382 l 675 382 l 631 622 q 618 699 618 696 q 582 626 600 654 l 449 382 z "},"Ä":{"ha":972,"x_min":21,"x_max":961,"o":"m 556 1081 q 488 1107 514 1081 q 463 1172 463 1133 q 500 1263 463 1225 q 583 1301 538 1301 q 653 1276 628 1301 q 679 1210 679 1250 q 642 1119 679 1157 q 556 1081 604 1081 m 818 1081 q 750 1106 775 1081 q 725 1172 725 1132 q 762 1263 725 1225 q 847 1301 799 1301 q 916 1275 890 1301 q 942 1210 942 1249 q 903 1119 942 1157 q 818 1081 865 1081 m 21 0 l 557 972 l 768 972 l 961 0 l 744 0 l 708 189 l 350 189 l 247 0 l 21 0 m 449 382 l 675 382 l 631 622 q 618 699 618 696 q 582 626 600 654 l 449 382 z "},"Å":{"ha":972,"x_min":21,"x_max":961,"o":"m 779 917 l 961 0 l 744 0 l 708 189 l 350 189 l 247 0 l 21 0 l 522 910 q 486 1014 486 956 q 551 1164 486 1101 q 701 1226 617 1226 q 807 1181 765 1226 q 849 1072 849 1136 q 779 917 849 982 m 676 1096 q 634 1078 651 1096 q 617 1035 617 1061 q 628 1003 617 1015 q 660 990 639 990 q 701 1008 683 990 q 719 1051 719 1025 q 708 1083 719 1071 q 676 1096 696 1096 m 449 382 l 675 382 l 631 622 q 618 699 618 696 q 582 626 600 654 l 449 382 z "},"Æ":{"ha":1163,"x_min":-60,"x_max":1268,"o":"m -60 0 l 651 972 l 1268 972 l 1233 772 l 824 772 l 793 601 l 1001 601 l 965 401 l 757 401 l 724 201 l 1161 201 l 1125 0 l 481 0 l 515 189 l 301 189 l 164 0 l -60 0 m 442 382 l 547 382 l 586 590 q 544 524 572 561 l 442 382 z "},"Ç":{"ha":847,"x_min":140,"x_max":942,"o":"m 554 -293 q 524 -318 554 -293 q 393 -343 494 -343 q 251 -271 292 -343 l 342 -208 q 392 -237 360 -237 q 465 -179 465 -237 q 413 -136 465 -136 q 347 -160 382 -136 l 315 -107 l 411 -8 q 213 126 285 17 q 140 400 140 235 q 194 680 140 549 q 358 899 247 811 q 615 988 469 988 q 823 924 739 988 q 942 753 907 861 l 754 675 q 697 751 736 719 q 608 783 657 783 q 427 666 496 783 q 358 411 358 549 q 396 257 358 319 q 496 194 433 194 q 603 227 554 194 q 679 315 651 260 l 867 235 q 515 -14 732 0 l 479 -61 q 580 -90 546 -61 q 614 -168 614 -119 q 554 -293 614 -243 z "},"È":{"ha":811,"x_min":83,"x_max":917,"o":"m 514 1061 l 307 1278 l 551 1278 l 703 1061 l 514 1061 m 83 0 l 254 972 l 917 972 l 882 772 l 433 772 l 403 601 l 653 601 l 618 401 l 367 401 l 332 201 l 810 201 l 774 0 l 83 0 z "},"É":{"ha":811,"x_min":83,"x_max":964,"o":"m 679 1061 l 493 1061 l 719 1278 l 964 1278 l 679 1061 m 83 0 l 254 972 l 917 972 l 882 772 l 433 772 l 403 601 l 653 601 l 618 401 l 367 401 l 332 201 l 810 201 l 774 0 l 83 0 z "},"Ê":{"ha":811,"x_min":83,"x_max":917,"o":"m 711 1061 l 625 1146 l 508 1061 l 331 1061 l 557 1278 l 739 1278 l 889 1061 l 711 1061 m 83 0 l 254 972 l 917 972 l 882 772 l 433 772 l 403 601 l 653 601 l 618 401 l 367 401 l 332 201 l 810 201 l 774 0 l 83 0 z "},"Ë":{"ha":811,"x_min":83,"x_max":917,"o":"m 482 1060 q 415 1086 440 1060 q 389 1151 389 1113 q 426 1242 389 1204 q 510 1281 464 1281 q 579 1254 553 1281 q 606 1189 606 1228 q 568 1098 606 1136 q 482 1060 531 1060 m 744 1060 q 676 1085 701 1060 q 651 1151 651 1111 q 688 1242 651 1204 q 774 1281 725 1281 q 842 1254 817 1281 q 868 1189 868 1228 q 830 1098 868 1136 q 744 1060 792 1060 m 83 0 l 254 972 l 917 972 l 882 772 l 433 772 l 403 601 l 653 601 l 618 401 l 367 401 l 332 201 l 810 201 l 774 0 l 83 0 z "},"Ì":{"ha":376,"x_min":74,"x_max":469,"o":"m 281 1082 l 74 1299 l 318 1299 l 469 1082 l 281 1082 m 83 0 l 254 972 l 467 972 l 296 0 l 83 0 z "},"Í":{"ha":376,"x_min":83,"x_max":731,"o":"m 446 1082 l 260 1082 l 486 1299 l 731 1299 l 446 1082 m 83 0 l 254 972 l 467 972 l 296 0 l 83 0 z "},"Î":{"ha":376,"x_min":83,"x_max":656,"o":"m 478 1082 l 392 1167 l 275 1082 l 97 1082 l 324 1299 l 506 1299 l 656 1082 l 478 1082 m 83 0 l 254 972 l 467 972 l 296 0 l 83 0 z "},"Ï":{"ha":376,"x_min":83,"x_max":635,"o":"m 249 1081 q 181 1107 207 1081 q 156 1172 156 1133 q 193 1263 156 1225 q 276 1301 231 1301 q 346 1276 319 1301 q 372 1210 372 1250 q 335 1119 372 1157 q 249 1081 297 1081 m 511 1081 q 443 1106 468 1081 q 418 1172 418 1132 q 455 1263 418 1225 q 540 1301 492 1301 q 609 1275 583 1301 q 635 1210 635 1249 q 597 1119 635 1157 q 511 1081 558 1081 m 83 0 l 254 972 l 467 972 l 296 0 l 83 0 z "},"Ð":{"ha":953,"x_min":79,"x_max":981,"o":"m 90 0 l 158 389 l 79 389 l 114 586 l 193 586 l 261 972 l 576 972 q 877 846 774 972 q 981 521 981 719 q 949 333 981 424 q 858 166 918 242 q 697 45 797 90 q 468 0 596 0 l 90 0 m 331 201 l 461 201 q 674 293 596 201 q 751 510 751 385 q 699 703 751 633 q 543 772 647 772 l 431 772 l 399 586 l 585 586 l 550 389 l 364 389 l 331 201 z "},"Ñ":{"ha":946,"x_min":83,"x_max":1035,"o":"m 776 1088 q 662 1119 725 1088 q 568 1150 599 1150 q 496 1093 510 1150 l 407 1093 q 603 1294 442 1294 q 717 1263 653 1294 q 813 1232 782 1232 q 883 1289 869 1232 l 974 1289 q 776 1088 938 1088 m 83 0 l 254 972 l 451 972 l 701 460 q 729 382 722 417 q 736 461 731 421 l 826 972 l 1035 972 l 864 0 l 681 0 l 414 536 q 392 603 406 554 q 386 536 392 565 l 292 0 l 83 0 z "},"Ò":{"ha":961,"x_min":140,"x_max":989,"o":"m 532 1082 l 325 1299 l 569 1299 l 721 1082 l 532 1082 m 526 -17 q 348 20 425 -17 q 227 121 271 57 q 162 262 183 185 q 140 426 140 339 q 269 828 140 667 q 615 989 399 989 q 892 863 796 989 q 989 556 989 736 q 860 146 989 308 q 526 -17 731 -17 m 525 188 q 708 290 636 188 q 781 556 781 393 q 736 718 781 650 q 600 786 692 786 q 419 678 489 786 q 349 426 349 571 q 392 258 349 329 q 525 188 435 188 z "},"Ó":{"ha":961,"x_min":140,"x_max":989,"o":"m 697 1082 l 511 1082 l 738 1299 l 982 1299 l 697 1082 m 526 -17 q 348 20 425 -17 q 227 121 271 57 q 162 262 183 185 q 140 426 140 339 q 269 828 140 667 q 615 989 399 989 q 892 863 796 989 q 989 556 989 736 q 860 146 989 308 q 526 -17 731 -17 m 525 188 q 708 290 636 188 q 781 556 781 393 q 736 718 781 650 q 600 786 692 786 q 419 678 489 786 q 349 426 349 571 q 392 258 349 329 q 525 188 435 188 z "},"Ô":{"ha":961,"x_min":140,"x_max":989,"o":"m 729 1082 l 643 1167 l 526 1082 l 349 1082 l 575 1299 l 757 1299 l 907 1082 l 729 1082 m 526 -17 q 348 20 425 -17 q 227 121 271 57 q 162 262 183 185 q 140 426 140 339 q 269 828 140 667 q 615 989 399 989 q 892 863 796 989 q 989 556 989 736 q 860 146 989 308 q 526 -17 731 -17 m 525 188 q 708 290 636 188 q 781 556 781 393 q 736 718 781 650 q 600 786 692 786 q 419 678 489 786 q 349 426 349 571 q 392 258 349 329 q 525 188 435 188 z "},"Õ":{"ha":961,"x_min":140,"x_max":989,"o":"m 746 1086 q 631 1117 694 1086 q 538 1149 567 1149 q 465 1092 479 1149 l 376 1092 q 572 1293 411 1293 q 688 1262 622 1293 q 782 1231 753 1231 q 853 1288 839 1231 l 943 1288 q 746 1086 907 1086 m 526 -17 q 348 20 425 -17 q 227 121 271 57 q 162 262 183 185 q 140 426 140 339 q 269 828 140 667 q 615 989 399 989 q 892 863 796 989 q 989 556 989 736 q 860 146 989 308 q 526 -17 731 -17 m 525 188 q 708 290 636 188 q 781 556 781 393 q 736 718 781 650 q 600 786 692 786 q 419 678 489 786 q 349 426 349 571 q 392 258 349 329 q 525 188 435 188 z "},"Ö":{"ha":961,"x_min":140,"x_max":989,"o":"m 500 1081 q 433 1107 458 1081 q 407 1172 407 1133 q 444 1263 407 1225 q 528 1301 482 1301 q 598 1276 572 1301 q 624 1210 624 1250 q 586 1119 624 1157 q 500 1081 549 1081 m 763 1081 q 694 1106 719 1081 q 669 1172 669 1132 q 706 1263 669 1225 q 792 1301 743 1301 q 860 1275 835 1301 q 886 1210 886 1249 q 848 1119 886 1157 q 763 1081 810 1081 m 526 -17 q 348 20 425 -17 q 227 121 271 57 q 162 262 183 185 q 140 426 140 339 q 269 828 140 667 q 615 989 399 989 q 892 863 796 989 q 989 556 989 736 q 860 146 989 308 q 526 -17 731 -17 m 525 188 q 708 290 636 188 q 781 556 781 393 q 736 718 781 650 q 600 786 692 786 q 419 678 489 786 q 349 426 349 571 q 392 258 349 329 q 525 188 435 188 z "},"×":{"ha":840,"x_min":165,"x_max":835,"o":"m 501 335 l 310 143 l 165 290 l 354 478 l 167 669 l 307 811 l 499 622 l 688 813 l 835 667 l 643 475 l 833 288 l 690 144 l 501 335 z "},"Ø":{"ha":961,"x_min":49,"x_max":1085,"o":"m 49 -17 l 200 167 q 140 426 140 276 q 269 828 140 667 q 614 989 399 989 q 826 924 739 989 l 882 989 l 1085 989 l 929 801 q 989 556 989 689 q 859 146 989 308 q 529 -17 729 -17 q 306 47 393 -17 l 253 -17 l 49 -17 m 354 351 l 692 760 q 601 786 654 786 q 419 678 490 786 q 349 425 349 569 q 354 351 349 386 m 524 188 q 708 291 636 188 q 781 558 781 394 q 775 617 781 572 l 439 210 q 524 188 476 188 z "},"Ù":{"ha":954,"x_min":147,"x_max":1049,"o":"m 572 1085 l 365 1301 l 610 1301 l 761 1085 l 572 1085 m 496 -17 q 246 65 344 -17 q 147 303 147 146 q 164 457 147 357 l 258 972 l 468 972 l 371 415 q 360 325 360 349 q 403 224 360 256 q 513 192 446 192 q 660 233 604 192 q 733 375 717 274 l 839 972 l 1049 972 l 940 354 q 878 167 921 243 q 774 53 836 92 q 647 -1 713 14 q 496 -17 581 -17 z "},"Ú":{"ha":954,"x_min":147,"x_max":1049,"o":"m 738 1085 l 551 1085 l 778 1301 l 1022 1301 l 738 1085 m 496 -17 q 246 65 344 -17 q 147 303 147 146 q 164 457 147 357 l 258 972 l 468 972 l 371 415 q 360 325 360 349 q 403 224 360 256 q 513 192 446 192 q 660 233 604 192 q 733 375 717 274 l 839 972 l 1049 972 l 940 354 q 878 167 921 243 q 774 53 836 92 q 647 -1 713 14 q 496 -17 581 -17 z "},"Û":{"ha":954,"x_min":147,"x_max":1049,"o":"m 769 1085 l 683 1169 l 567 1085 l 389 1085 l 615 1301 l 797 1301 l 947 1085 l 769 1085 m 496 -17 q 246 65 344 -17 q 147 303 147 146 q 164 457 147 357 l 258 972 l 468 972 l 371 415 q 360 325 360 349 q 403 224 360 256 q 513 192 446 192 q 660 233 604 192 q 733 375 717 274 l 839 972 l 1049 972 l 940 354 q 878 167 921 243 q 774 53 836 92 q 647 -1 713 14 q 496 -17 581 -17 z "},"Ü":{"ha":954,"x_min":147,"x_max":1049,"o":"m 540 1083 q 473 1110 499 1083 q 447 1175 447 1136 q 485 1266 447 1228 q 568 1304 522 1304 q 638 1278 611 1304 q 664 1213 664 1253 q 626 1122 664 1160 q 540 1083 589 1083 m 803 1083 q 735 1109 760 1083 q 710 1175 710 1135 q 747 1266 710 1228 q 832 1304 783 1304 q 901 1278 875 1304 q 926 1213 926 1251 q 888 1122 926 1160 q 803 1083 850 1083 m 496 -17 q 246 65 344 -17 q 147 303 147 146 q 164 457 147 357 l 258 972 l 468 972 l 371 415 q 360 325 360 349 q 403 224 360 256 q 513 192 446 192 q 660 233 604 192 q 733 375 717 274 l 839 972 l 1049 972 l 940 354 q 878 167 921 243 q 774 53 836 92 q 647 -1 713 14 q 496 -17 581 -17 z "},"Ý":{"ha":939,"x_min":181,"x_max":1096,"o":"m 722 1085 l 536 1085 l 763 1301 l 1007 1301 l 722 1085 m 363 0 l 432 393 l 181 972 l 403 972 l 564 601 l 854 972 l 1096 972 l 644 390 l 576 0 l 363 0 z "},"Þ":{"ha":863,"x_min":82,"x_max":926,"o":"m 82 0 l 253 972 l 468 972 l 439 807 l 647 807 q 780 780 724 807 q 867 708 836 753 q 912 616 897 664 q 926 518 926 568 q 828 279 926 375 q 563 183 729 183 l 328 183 l 294 0 l 82 0 m 582 383 q 676 422 644 383 q 708 500 708 460 q 621 607 708 607 l 403 607 l 364 383 l 582 383 z "},"ß":{"ha":753,"x_min":25,"x_max":797,"o":"m 25 -276 l 189 661 q 315 911 219 833 q 542 989 410 989 q 726 926 654 989 q 797 758 797 864 q 753 626 797 689 q 629 531 708 564 q 733 449 693 508 q 772 301 772 390 q 676 72 772 161 q 451 -17 581 -17 q 285 18 335 -17 l 399 164 q 449 157 418 157 q 539 199 503 157 q 575 304 575 240 q 546 403 575 365 q 458 442 517 442 l 399 442 l 431 615 l 489 615 q 569 649 533 615 q 606 726 606 683 q 583 791 606 765 q 525 817 561 817 q 381 651 411 817 l 233 -183 l 25 -276 z "},"à":{"ha":736,"x_min":75,"x_max":751,"o":"m 413 821 l 206 1038 l 450 1038 l 601 821 l 413 821 m 471 0 l 483 56 q 404 4 456 25 q 297 -17 353 -17 q 140 40 204 -17 q 75 192 75 97 q 162 381 75 310 q 397 451 249 451 q 544 413 478 451 l 549 432 q 553 472 553 451 q 450 550 553 550 q 226 481 339 550 l 197 642 q 485 726 328 726 q 566 717 525 726 q 651 683 607 707 q 724 612 696 660 q 751 497 751 564 q 740 410 751 482 l 669 0 l 471 0 m 356 161 q 507 207 442 161 l 518 267 q 394 282 474 282 q 309 264 344 282 q 274 210 274 246 q 296 174 274 188 q 356 161 318 161 z "},"á":{"ha":736,"x_min":75,"x_max":863,"o":"m 578 821 l 392 821 l 618 1038 l 863 1038 l 578 821 m 471 0 l 483 56 q 404 4 456 25 q 297 -17 353 -17 q 140 40 204 -17 q 75 192 75 97 q 162 381 75 310 q 397 451 249 451 q 544 413 478 451 l 549 432 q 553 472 553 451 q 450 550 553 550 q 226 481 339 550 l 197 642 q 485 726 328 726 q 566 717 525 726 q 651 683 607 707 q 724 612 696 660 q 751 497 751 564 q 740 410 751 482 l 669 0 l 471 0 m 356 161 q 507 207 442 161 l 518 267 q 394 282 474 282 q 309 264 344 282 q 274 210 274 246 q 296 174 274 188 q 356 161 318 161 z "},"â":{"ha":736,"x_min":75,"x_max":788,"o":"m 610 821 l 524 906 l 407 821 l 229 821 l 456 1038 l 638 1038 l 788 821 l 610 821 m 471 0 l 483 56 q 404 4 456 25 q 297 -17 353 -17 q 140 40 204 -17 q 75 192 75 97 q 162 381 75 310 q 397 451 249 451 q 544 413 478 451 l 549 432 q 553 472 553 451 q 450 550 553 550 q 226 481 339 550 l 197 642 q 485 726 328 726 q 566 717 525 726 q 651 683 607 707 q 724 612 696 660 q 751 497 751 564 q 740 410 751 482 l 669 0 l 471 0 m 356 161 q 507 207 442 161 l 518 267 q 394 282 474 282 q 309 264 344 282 q 274 210 274 246 q 296 174 274 188 q 356 161 318 161 z "},"ã":{"ha":736,"x_min":75,"x_max":824,"o":"m 626 825 q 511 856 575 825 q 418 888 447 888 q 346 831 360 888 l 257 831 q 453 1032 292 1032 q 568 1001 503 1032 q 663 969 633 969 q 733 1026 719 969 l 824 1026 q 626 825 788 825 m 471 0 l 483 56 q 404 4 456 25 q 297 -17 353 -17 q 140 40 204 -17 q 75 192 75 97 q 162 381 75 310 q 397 451 249 451 q 544 413 478 451 l 549 432 q 553 472 553 451 q 450 550 553 550 q 226 481 339 550 l 197 642 q 485 726 328 726 q 566 717 525 726 q 651 683 607 707 q 724 612 696 660 q 751 497 751 564 q 740 410 751 482 l 669 0 l 471 0 m 356 161 q 507 207 442 161 l 518 267 q 394 282 474 282 q 309 264 344 282 q 274 210 274 246 q 296 174 274 188 q 356 161 318 161 z "},"ä":{"ha":736,"x_min":75,"x_max":767,"o":"m 381 819 q 313 846 339 819 q 288 911 288 872 q 325 1002 288 964 q 408 1040 363 1040 q 478 1015 453 1040 q 504 949 504 989 q 467 858 504 896 q 381 819 429 819 m 643 819 q 575 845 600 819 q 550 911 550 871 q 587 1002 550 964 q 672 1040 624 1040 q 741 1014 715 1040 q 767 949 767 988 q 728 858 767 896 q 643 819 690 819 m 471 0 l 483 56 q 404 4 456 25 q 297 -17 353 -17 q 140 40 204 -17 q 75 192 75 97 q 162 381 75 310 q 397 451 249 451 q 544 413 478 451 l 549 432 q 553 472 553 451 q 450 550 553 550 q 226 481 339 550 l 197 642 q 485 726 328 726 q 566 717 525 726 q 651 683 607 707 q 724 612 696 660 q 751 497 751 564 q 740 410 751 482 l 669 0 l 471 0 m 356 161 q 507 207 442 161 l 518 267 q 394 282 474 282 q 309 264 344 282 q 274 210 274 246 q 296 174 274 188 q 356 161 318 161 z "},"å":{"ha":736,"x_min":75,"x_max":751,"o":"m 507 793 q 399 838 442 793 q 357 949 357 883 q 422 1098 357 1035 q 571 1161 488 1161 q 676 1116 635 1161 q 718 1006 718 1071 q 654 856 718 918 q 507 793 590 793 m 531 929 q 568 945 551 929 q 585 985 585 961 q 574 1015 585 1003 q 547 1026 563 1026 q 508 1009 525 1026 q 492 968 492 992 q 531 929 492 929 m 471 0 l 483 56 q 404 4 456 25 q 297 -17 353 -17 q 140 40 204 -17 q 75 192 75 97 q 162 381 75 310 q 397 451 249 451 q 544 413 478 451 l 549 432 q 553 472 553 451 q 450 550 553 550 q 226 481 339 550 l 197 642 q 485 726 328 726 q 566 717 525 726 q 651 683 607 707 q 724 612 696 660 q 751 497 751 564 q 740 410 751 482 l 669 0 l 471 0 m 356 161 q 507 207 442 161 l 518 267 q 394 282 474 282 q 309 264 344 282 q 274 210 274 246 q 296 174 274 188 q 356 161 318 161 z "},"æ":{"ha":1115,"x_min":76,"x_max":1146,"o":"m 1119 278 l 671 278 l 669 268 q 708 189 669 218 q 801 160 746 160 q 958 238 893 160 l 1063 110 q 775 -17 946 -17 q 532 86 603 -17 q 275 -17 414 -17 q 136 38 196 -17 q 76 192 76 93 q 166 388 76 319 q 381 456 256 456 q 513 426 457 456 l 517 453 q 517 464 517 457 q 518 475 518 471 q 493 530 518 510 q 428 550 468 550 q 217 481 318 550 l 190 642 q 465 726 314 726 q 560 706 511 726 q 643 650 610 685 q 879 726 735 726 q 1072 656 999 726 q 1146 442 1146 585 q 1119 278 1146 353 m 836 551 q 699 447 726 551 l 954 447 l 951 458 q 836 551 935 551 m 475 222 q 476 227 475 222 q 478 238 476 232 q 481 253 479 243 q 483 268 482 263 q 389 282 447 282 q 306 264 339 282 q 272 210 272 246 q 353 161 272 161 q 472 206 418 161 q 475 222 474 211 z "},"ç":{"ha":733,"x_min":108,"x_max":764,"o":"m 288 -343 q 147 -271 182 -343 l 238 -208 q 286 -237 253 -237 q 358 -178 358 -237 q 306 -136 358 -136 q 243 -160 274 -136 l 210 -107 l 311 -6 q 163 106 218 22 q 108 303 108 189 q 214 606 108 486 q 486 726 319 726 q 669 665 596 726 q 764 504 742 603 l 568 442 q 465 532 550 532 q 358 474 404 532 q 311 329 311 415 q 338 222 311 264 q 408 179 364 179 q 538 281 496 179 l 719 222 q 629 75 689 132 q 516 0 569 18 q 408 -18 463 -18 l 374 -61 q 474 -90 440 -61 q 508 -168 508 -119 q 449 -293 508 -243 q 288 -343 389 -343 z "},"è":{"ha":740,"x_min":93,"x_max":771,"o":"m 414 821 l 207 1038 l 451 1038 l 603 821 l 414 821 m 400 -17 q 176 60 260 -17 q 93 288 93 138 q 137 495 93 397 q 274 660 181 593 q 489 726 367 726 q 697 643 622 726 q 771 436 771 560 q 744 278 771 351 l 294 278 l 294 265 q 335 188 294 217 q 425 160 375 160 q 513 182 468 160 q 583 238 557 204 l 688 110 q 400 -17 575 -17 m 325 447 l 582 447 q 578 460 581 451 q 576 471 576 468 q 467 551 551 551 q 325 447 353 551 z "},"é":{"ha":740,"x_min":93,"x_max":864,"o":"m 579 821 l 393 821 l 619 1038 l 864 1038 l 579 821 m 400 -17 q 176 60 260 -17 q 93 288 93 138 q 137 495 93 397 q 274 660 181 593 q 489 726 367 726 q 697 643 622 726 q 771 436 771 560 q 744 278 771 351 l 294 278 l 294 265 q 335 188 294 217 q 425 160 375 160 q 513 182 468 160 q 583 238 557 204 l 688 110 q 400 -17 575 -17 m 325 447 l 582 447 q 578 460 581 451 q 576 471 576 468 q 467 551 551 551 q 325 447 353 551 z "},"ê":{"ha":740,"x_min":93,"x_max":789,"o":"m 611 821 l 525 906 l 408 821 l 231 821 l 457 1038 l 639 1038 l 789 821 l 611 821 m 400 -17 q 176 60 260 -17 q 93 288 93 138 q 137 495 93 397 q 274 660 181 593 q 489 726 367 726 q 697 643 622 726 q 771 436 771 560 q 744 278 771 351 l 294 278 l 294 265 q 335 188 294 217 q 425 160 375 160 q 513 182 468 160 q 583 238 557 204 l 688 110 q 400 -17 575 -17 m 325 447 l 582 447 q 578 460 581 451 q 576 471 576 468 q 467 551 551 551 q 325 447 353 551 z "},"ë":{"ha":740,"x_min":93,"x_max":771,"o":"m 382 819 q 315 846 340 819 q 289 911 289 872 q 326 1002 289 964 q 410 1040 364 1040 q 479 1015 453 1040 q 506 949 506 989 q 468 858 506 896 q 382 819 431 819 m 644 819 q 576 845 601 819 q 551 911 551 871 q 588 1002 551 964 q 674 1040 625 1040 q 742 1014 717 1040 q 768 949 768 988 q 730 858 768 896 q 644 819 692 819 m 400 -17 q 176 60 260 -17 q 93 288 93 138 q 137 495 93 397 q 274 660 181 593 q 489 726 367 726 q 697 643 622 726 q 771 436 771 560 q 744 278 771 351 l 294 278 l 294 265 q 335 188 294 217 q 425 160 375 160 q 513 182 468 160 q 583 238 557 204 l 688 110 q 400 -17 575 -17 m 325 447 l 582 447 q 578 460 581 451 q 576 471 576 468 q 467 551 551 551 q 325 447 353 551 z "},"ì":{"ha":369,"x_min":25,"x_max":421,"o":"m 232 800 l 25 1017 l 269 1017 l 421 800 l 232 800 m 88 0 l 213 710 l 413 710 l 288 0 l 88 0 z "},"í":{"ha":369,"x_min":88,"x_max":682,"o":"m 397 800 l 211 800 l 438 1017 l 682 1017 l 397 800 m 88 0 l 213 710 l 413 710 l 288 0 l 88 0 z "},"î":{"ha":369,"x_min":49,"x_max":607,"o":"m 429 800 l 343 885 l 226 800 l 49 800 l 275 1017 l 457 1017 l 607 800 l 429 800 m 88 0 l 213 710 l 413 710 l 288 0 l 88 0 z "},"ï":{"ha":369,"x_min":88,"x_max":586,"o":"m 200 799 q 133 825 158 799 q 107 890 107 851 q 144 981 107 943 q 228 1019 182 1019 q 298 993 272 1019 q 324 928 324 967 q 286 837 324 875 q 200 799 249 799 m 463 799 q 394 824 419 799 q 369 890 369 850 q 406 981 369 943 q 492 1019 443 1019 q 560 993 535 1019 q 586 928 586 967 q 548 837 586 875 q 463 799 510 799 m 88 0 l 213 710 l 413 710 l 288 0 l 88 0 z "},"ð":{"ha":750,"x_min":100,"x_max":774,"o":"m 385 -17 q 178 63 257 -17 q 100 268 100 142 q 201 525 100 417 q 446 633 301 633 q 575 613 535 633 q 531 724 569 668 l 440 643 l 350 747 l 415 807 q 306 824 367 824 l 338 989 q 565 942 468 993 l 658 1026 l 746 919 l 671 851 q 774 468 774 725 q 674 120 774 257 q 385 -17 575 -17 m 407 179 q 513 222 468 179 q 557 331 557 265 q 528 409 557 379 q 451 439 499 439 q 344 397 388 439 q 301 288 301 354 q 333 211 301 243 q 407 179 364 179 z "},"ñ":{"ha":781,"x_min":88,"x_max":860,"o":"m 663 825 q 547 856 611 825 q 454 888 483 888 q 382 831 396 888 l 293 831 q 489 1032 328 1032 q 604 1001 539 1032 q 699 969 669 969 q 769 1026 756 969 l 860 1026 q 663 825 824 825 m 88 0 l 213 710 l 413 710 l 400 642 q 571 726 465 726 q 726 663 672 726 q 781 504 781 599 q 769 410 781 465 l 697 0 l 499 0 l 567 383 q 574 451 574 425 q 493 538 574 538 q 408 505 449 538 q 357 403 368 472 l 285 0 l 88 0 z "},"ò":{"ha":750,"x_min":111,"x_max":765,"o":"m 410 821 l 203 1038 l 447 1038 l 599 821 l 410 821 m 399 -17 q 111 300 111 -17 q 217 610 111 494 q 489 726 322 726 q 690 644 614 726 q 765 421 765 563 q 662 101 765 218 q 399 -17 558 -17 m 418 181 q 523 235 479 181 q 567 382 567 289 q 457 532 567 532 q 352 476 396 532 q 308 333 308 421 q 418 181 308 181 z "},"ó":{"ha":750,"x_min":111,"x_max":860,"o":"m 575 821 l 389 821 l 615 1038 l 860 1038 l 575 821 m 399 -17 q 111 300 111 -17 q 217 610 111 494 q 489 726 322 726 q 690 644 614 726 q 765 421 765 563 q 662 101 765 218 q 399 -17 558 -17 m 418 181 q 523 235 479 181 q 567 382 567 289 q 457 532 567 532 q 352 476 396 532 q 308 333 308 421 q 418 181 308 181 z "},"ô":{"ha":750,"x_min":111,"x_max":785,"o":"m 607 821 l 521 906 l 404 821 l 226 821 l 453 1038 l 635 1038 l 785 821 l 607 821 m 399 -17 q 111 300 111 -17 q 217 610 111 494 q 489 726 322 726 q 690 644 614 726 q 765 421 765 563 q 662 101 765 218 q 399 -17 558 -17 m 418 181 q 523 235 479 181 q 567 382 567 289 q 457 532 567 532 q 352 476 396 532 q 308 333 308 421 q 418 181 308 181 z "},"õ":{"ha":750,"x_min":111,"x_max":821,"o":"m 624 825 q 508 856 572 825 q 415 888 444 888 q 343 831 357 888 l 254 831 q 450 1032 289 1032 q 565 1001 500 1032 q 660 969 631 969 q 731 1026 717 969 l 821 1026 q 624 825 785 825 m 399 -17 q 111 300 111 -17 q 217 610 111 494 q 489 726 322 726 q 690 644 614 726 q 765 421 765 563 q 662 101 765 218 q 399 -17 558 -17 m 418 181 q 523 235 479 181 q 567 382 567 289 q 457 532 567 532 q 352 476 396 532 q 308 333 308 421 q 418 181 308 181 z "},"ö":{"ha":750,"x_min":111,"x_max":765,"o":"m 378 819 q 310 846 336 819 q 285 911 285 872 q 322 1002 285 964 q 406 1040 360 1040 q 476 1015 450 1040 q 501 949 501 989 q 464 858 501 896 q 378 819 426 819 m 640 819 q 572 845 597 819 q 547 911 547 871 q 584 1002 547 964 q 669 1040 621 1040 q 738 1014 713 1040 q 764 949 764 988 q 726 858 764 896 q 640 819 688 819 m 399 -17 q 111 300 111 -17 q 217 610 111 494 q 489 726 322 726 q 690 644 614 726 q 765 421 765 563 q 662 101 765 218 q 399 -17 558 -17 m 418 181 q 523 235 479 181 q 567 382 567 289 q 457 532 567 532 q 352 476 396 532 q 308 333 308 421 q 418 181 308 181 z "},"÷":{"ha":840,"x_min":196,"x_max":807,"o":"m 585 635 q 568 618 585 635 q 501 601 551 601 q 417 635 451 601 q 383 717 383 668 q 417 798 383 765 q 501 831 451 831 q 585 798 551 831 q 619 717 619 765 q 585 635 619 668 m 196 379 l 196 575 l 807 575 l 807 379 l 196 379 m 585 156 q 568 139 585 156 q 501 122 551 122 q 417 156 451 122 q 383 239 383 190 q 417 321 383 288 q 501 354 451 354 q 585 321 551 354 q 619 239 619 288 q 585 156 619 190 z "},"ø":{"ha":750,"x_min":53,"x_max":824,"o":"m 53 -17 l 151 107 q 111 300 111 183 q 217 610 111 494 q 489 726 322 726 q 625 694 565 726 l 651 726 l 824 726 l 721 599 q 765 421 765 526 q 662 101 765 218 q 399 -17 558 -17 q 249 13 308 -17 l 226 -17 l 53 -17 m 308 300 l 493 531 q 457 532 481 532 q 352 476 396 532 q 308 333 308 421 l 308 300 m 418 181 q 523 235 479 181 q 567 382 567 289 q 568 410 567 401 l 385 181 l 418 181 z "},"ù":{"ha":781,"x_min":115,"x_max":825,"o":"m 439 821 l 232 1038 l 476 1038 l 628 821 l 439 821 m 503 0 l 513 67 q 304 -17 429 -17 q 174 41 233 -17 q 115 206 115 99 q 121 271 115 239 l 199 710 l 399 710 l 331 329 q 322 261 322 279 q 404 179 322 179 q 502 208 460 179 q 554 294 544 238 l 628 710 l 825 710 l 700 0 l 503 0 z "},"ú":{"ha":781,"x_min":115,"x_max":889,"o":"m 604 821 l 418 821 l 644 1038 l 889 1038 l 604 821 m 503 0 l 513 67 q 304 -17 429 -17 q 174 41 233 -17 q 115 206 115 99 q 121 271 115 239 l 199 710 l 399 710 l 331 329 q 322 261 322 279 q 404 179 322 179 q 502 208 460 179 q 554 294 544 238 l 628 710 l 825 710 l 700 0 l 503 0 z "},"û":{"ha":781,"x_min":115,"x_max":825,"o":"m 636 821 l 550 906 l 433 821 l 256 821 l 482 1038 l 664 1038 l 814 821 l 636 821 m 503 0 l 513 67 q 304 -17 429 -17 q 174 41 233 -17 q 115 206 115 99 q 121 271 115 239 l 199 710 l 399 710 l 331 329 q 322 261 322 279 q 404 179 322 179 q 502 208 460 179 q 554 294 544 238 l 628 710 l 825 710 l 700 0 l 503 0 z "},"ü":{"ha":781,"x_min":115,"x_max":825,"o":"m 407 819 q 340 846 365 819 q 314 911 314 872 q 351 1002 314 964 q 435 1040 389 1040 q 504 1015 478 1040 q 531 949 531 989 q 493 858 531 896 q 407 819 456 819 m 669 819 q 601 845 626 819 q 576 911 576 871 q 613 1002 576 964 q 699 1040 650 1040 q 767 1014 742 1040 q 793 949 793 988 q 755 858 793 896 q 669 819 717 819 m 503 0 l 513 67 q 304 -17 429 -17 q 174 41 233 -17 q 115 206 115 99 q 121 271 115 239 l 199 710 l 399 710 l 331 329 q 322 261 322 279 q 404 179 322 179 q 502 208 460 179 q 554 294 544 238 l 628 710 l 825 710 l 700 0 l 503 0 z "},"ý":{"ha":763,"x_min":128,"x_max":888,"o":"m 597 821 l 411 821 l 638 1038 l 882 1038 l 597 821 m 128 -269 l 283 13 l 149 710 l 346 710 l 421 326 q 431 258 429 290 q 461 326 444 296 l 672 710 l 888 710 l 349 -269 l 128 -269 z "},"þ":{"ha":754,"x_min":36,"x_max":778,"o":"m 432 -17 q 294 47 336 -17 l 249 -214 l 36 -276 l 251 944 l 464 1007 l 400 656 q 553 726 456 726 q 712 645 646 726 q 778 426 778 564 q 674 101 778 218 q 432 -17 571 -17 m 421 179 q 536 241 493 179 q 579 406 579 303 q 475 532 579 532 q 413 516 446 532 q 368 478 381 500 l 325 225 q 354 193 331 207 q 421 179 378 179 z "},"ÿ":{"ha":763,"x_min":128,"x_max":888,"o":"m 400 819 q 333 846 358 819 q 307 911 307 872 q 344 1002 307 964 q 428 1040 382 1040 q 498 1015 472 1040 q 524 949 524 989 q 486 858 524 896 q 400 819 449 819 m 663 819 q 594 845 619 819 q 569 911 569 871 q 606 1002 569 964 q 692 1040 643 1040 q 760 1014 735 1040 q 786 949 786 988 q 748 858 786 896 q 663 819 710 819 m 128 -269 l 283 13 l 149 710 l 346 710 l 421 326 q 431 258 429 290 q 461 326 444 296 l 672 710 l 888 710 l 349 -269 l 128 -269 z "},"Ā":{"ha":972,"x_min":21,"x_max":961,"o":"m 461 1067 l 489 1229 l 929 1229 l 901 1067 l 461 1067 m 21 0 l 557 972 l 768 972 l 961 0 l 744 0 l 708 189 l 350 189 l 247 0 l 21 0 m 449 382 l 675 382 l 631 622 q 618 699 618 696 q 582 626 600 654 l 449 382 z "},"ā":{"ha":736,"x_min":75,"x_max":754,"o":"m 286 806 l 314 968 l 754 968 l 726 806 l 286 806 m 471 0 l 483 56 q 404 4 456 25 q 297 -17 353 -17 q 140 40 204 -17 q 75 192 75 97 q 162 381 75 310 q 397 451 249 451 q 544 413 478 451 l 549 432 q 553 472 553 451 q 450 550 553 550 q 226 481 339 550 l 197 642 q 485 726 328 726 q 566 717 525 726 q 651 683 607 707 q 724 612 696 660 q 751 497 751 564 q 740 410 751 482 l 669 0 l 471 0 m 356 161 q 507 207 442 161 l 518 267 q 394 282 474 282 q 309 264 344 282 q 274 210 274 246 q 296 174 274 188 q 356 161 318 161 z "},"Ă":{"ha":972,"x_min":21,"x_max":985,"o":"m 682 1074 q 518 1126 572 1074 q 464 1265 464 1179 q 468 1313 464 1288 l 613 1313 l 613 1294 q 635 1238 613 1261 q 708 1215 658 1215 q 801 1244 768 1215 q 840 1313 833 1274 l 985 1313 q 887 1142 967 1211 q 682 1074 807 1074 m 21 0 l 557 972 l 768 972 l 961 0 l 744 0 l 708 189 l 350 189 l 247 0 l 21 0 m 449 382 l 675 382 l 631 622 q 618 699 618 696 q 582 626 600 654 l 449 382 z "},"ă":{"ha":736,"x_min":75,"x_max":810,"o":"m 507 813 q 343 865 397 813 q 289 1004 289 918 q 293 1051 289 1026 l 438 1051 l 438 1033 q 460 977 438 1000 q 533 954 483 954 q 626 983 593 954 q 665 1051 658 1013 l 810 1051 q 712 881 792 950 q 507 813 632 813 m 471 0 l 483 56 q 404 4 456 25 q 297 -17 353 -17 q 140 40 204 -17 q 75 192 75 97 q 162 381 75 310 q 397 451 249 451 q 544 413 478 451 l 549 432 q 553 472 553 451 q 450 550 553 550 q 226 481 339 550 l 197 642 q 485 726 328 726 q 566 717 525 726 q 651 683 607 707 q 724 612 696 660 q 751 497 751 564 q 740 410 751 482 l 669 0 l 471 0 m 356 161 q 507 207 442 161 l 518 267 q 394 282 474 282 q 309 264 344 282 q 274 210 274 246 q 296 174 274 188 q 356 161 318 161 z "},"Ą":{"ha":972,"x_min":21,"x_max":961,"o":"m 710 -343 q 603 -308 642 -343 q 564 -214 564 -272 q 744 0 564 -81 l 710 189 l 350 189 l 247 0 l 21 0 l 557 972 l 768 972 l 961 0 q 801 -53 878 10 q 725 -187 725 -117 q 760 -229 725 -229 q 814 -204 789 -229 l 888 -269 q 710 -343 811 -343 m 449 382 l 675 382 l 631 622 q 618 699 618 696 q 582 626 600 654 l 449 382 z "},"ą":{"ha":736,"x_min":75,"x_max":751,"o":"m 433 -343 q 325 -308 364 -343 q 286 -214 286 -272 q 471 0 286 -78 l 483 56 q 404 4 456 25 q 297 -17 353 -17 q 140 40 204 -17 q 75 192 75 97 q 162 381 75 310 q 397 451 249 451 q 544 413 478 451 l 549 432 q 553 472 553 451 q 450 550 553 550 q 226 481 339 550 l 197 642 q 485 726 328 726 q 566 717 525 726 q 651 683 607 707 q 724 612 696 660 q 751 497 751 564 q 740 410 751 482 l 669 0 q 520 -68 592 -18 q 449 -187 449 -118 q 483 -229 449 -229 q 536 -204 514 -229 l 611 -269 q 433 -343 531 -343 m 356 161 q 507 207 442 161 l 518 267 q 394 282 474 282 q 309 264 344 282 q 274 210 274 246 q 296 174 274 188 q 356 161 318 161 z "},"Ć":{"ha":847,"x_min":140,"x_max":988,"o":"m 703 1082 l 517 1082 l 743 1299 l 988 1299 l 703 1082 m 479 -15 q 227 99 314 -15 q 140 396 140 214 q 197 685 140 551 q 363 903 253 819 q 617 988 474 988 q 831 920 750 988 q 942 753 911 853 l 751 674 q 690 756 731 728 q 608 783 649 783 q 471 722 531 783 q 385 576 411 660 q 358 407 358 493 q 393 257 358 319 q 497 194 428 194 q 608 231 558 194 q 679 314 657 267 l 865 236 q 479 -15 719 -15 z "},"ć":{"ha":733,"x_min":108,"x_max":860,"o":"m 575 821 l 389 821 l 615 1038 l 860 1038 l 575 821 m 400 -17 q 185 73 261 -17 q 108 306 108 163 q 214 602 108 478 q 490 726 319 726 q 670 665 597 726 q 764 504 743 603 l 568 442 q 464 532 550 532 q 357 473 403 532 q 311 324 311 414 q 338 222 311 264 q 411 179 364 179 q 538 281 499 179 l 719 222 q 595 47 682 111 q 400 -17 508 -17 z "},"Ĉ":{"ha":847,"x_min":140,"x_max":942,"o":"m 735 1082 l 649 1167 l 532 1082 l 354 1082 l 581 1299 l 763 1299 l 913 1082 l 735 1082 m 479 -15 q 227 99 314 -15 q 140 396 140 214 q 197 685 140 551 q 363 903 253 819 q 617 988 474 988 q 831 920 750 988 q 942 753 911 853 l 751 674 q 690 756 731 728 q 608 783 649 783 q 471 722 531 783 q 385 576 411 660 q 358 407 358 493 q 393 257 358 319 q 497 194 428 194 q 608 231 558 194 q 679 314 657 267 l 865 236 q 479 -15 719 -15 z "},"ĉ":{"ha":733,"x_min":108,"x_max":785,"o":"m 607 821 l 521 906 l 404 821 l 226 821 l 453 1038 l 635 1038 l 785 821 l 607 821 m 400 -17 q 185 73 261 -17 q 108 306 108 163 q 214 602 108 478 q 490 726 319 726 q 670 665 597 726 q 764 504 743 603 l 568 442 q 464 532 550 532 q 357 473 403 532 q 311 324 311 414 q 338 222 311 264 q 411 179 364 179 q 538 281 499 179 l 719 222 q 595 47 682 111 q 400 -17 508 -17 z "},"Ċ":{"ha":847,"x_min":140,"x_max":942,"o":"m 633 1081 q 569 1107 594 1081 q 544 1172 544 1133 q 583 1263 544 1225 q 674 1301 622 1301 q 738 1275 713 1301 q 763 1210 763 1249 q 724 1119 763 1157 q 633 1081 685 1081 m 479 -15 q 227 99 314 -15 q 140 396 140 214 q 197 685 140 551 q 363 903 253 819 q 617 988 474 988 q 831 920 750 988 q 942 753 911 853 l 751 674 q 690 756 731 728 q 608 783 649 783 q 471 722 531 783 q 385 576 411 660 q 358 407 358 493 q 393 257 358 319 q 497 194 428 194 q 608 231 558 194 q 679 314 657 267 l 865 236 q 479 -15 719 -15 z "},"ċ":{"ha":733,"x_min":108,"x_max":764,"o":"m 506 819 q 442 846 467 819 q 417 911 417 872 q 456 1002 417 964 q 546 1040 494 1040 q 610 1014 585 1040 q 635 949 635 988 q 596 858 635 896 q 506 819 557 819 m 400 -17 q 185 73 261 -17 q 108 306 108 163 q 214 602 108 478 q 490 726 319 726 q 670 665 597 726 q 764 504 743 603 l 568 442 q 464 532 550 532 q 357 473 403 532 q 311 324 311 414 q 338 222 311 264 q 411 179 364 179 q 538 281 499 179 l 719 222 q 595 47 682 111 q 400 -17 508 -17 z "},"Č":{"ha":847,"x_min":140,"x_max":951,"o":"m 725 1082 l 543 1082 l 393 1299 l 571 1299 l 658 1214 l 774 1299 l 951 1299 l 725 1082 m 479 -15 q 227 99 314 -15 q 140 396 140 214 q 197 685 140 551 q 363 903 253 819 q 617 988 474 988 q 831 920 750 988 q 942 753 911 853 l 751 674 q 690 756 731 728 q 608 783 649 783 q 471 722 531 783 q 385 576 411 660 q 358 407 358 493 q 393 257 358 319 q 497 194 428 194 q 608 231 558 194 q 679 314 657 267 l 865 236 q 479 -15 719 -15 z "},"č":{"ha":733,"x_min":108,"x_max":824,"o":"m 597 821 l 415 821 l 265 1038 l 443 1038 l 531 953 l 646 1038 l 824 1038 l 597 821 m 400 -17 q 185 73 261 -17 q 108 306 108 163 q 214 602 108 478 q 490 726 319 726 q 670 665 597 726 q 764 504 743 603 l 568 442 q 464 532 550 532 q 357 473 403 532 q 311 324 311 414 q 338 222 311 264 q 411 179 364 179 q 538 281 499 179 l 719 222 q 595 47 682 111 q 400 -17 508 -17 z "},"Ď":{"ha":946,"x_min":83,"x_max":974,"o":"m 681 1061 l 499 1061 l 349 1278 l 526 1278 l 614 1193 l 729 1278 l 907 1278 l 681 1061 m 254 972 l 569 972 q 869 847 765 972 q 974 521 974 721 q 943 334 974 424 q 852 168 913 244 q 690 46 792 92 q 461 0 589 0 l 83 0 l 254 972 m 454 201 q 667 294 589 201 q 744 510 744 386 q 692 703 744 633 q 536 772 639 772 l 424 772 l 324 201 l 454 201 z "},"ď":{"ha":1047,"x_min":110,"x_max":1188,"o":"m 335 -17 q 170 63 231 -17 q 110 271 110 142 q 215 603 110 481 q 460 726 319 726 q 593 660 557 726 l 642 939 l 853 1003 l 676 0 l 482 0 l 494 65 q 335 -17 438 -17 m 1188 989 l 1185 974 q 965 619 1147 775 l 913 669 q 1010 989 969 760 l 1188 989 m 407 179 q 518 225 482 179 l 563 482 q 472 532 542 532 q 351 465 396 532 q 307 304 307 399 q 407 179 307 179 z "},"Đ":{"ha":953,"x_min":79,"x_max":981,"o":"m 90 0 l 158 389 l 79 389 l 114 586 l 193 586 l 261 972 l 576 972 q 877 846 774 972 q 981 521 981 719 q 949 333 981 424 q 858 166 918 242 q 697 45 797 90 q 468 0 596 0 l 90 0 m 331 201 l 461 201 q 674 293 596 201 q 751 510 751 385 q 699 703 751 633 q 543 772 647 772 l 431 772 l 399 586 l 585 586 l 550 389 l 364 389 l 331 201 z "},"đ":{"ha":756,"x_min":107,"x_max":911,"o":"m 799 740 l 668 0 l 475 0 l 485 50 q 335 -17 433 -17 q 167 54 228 -17 q 107 246 107 125 q 212 560 107 438 q 461 683 317 683 q 583 615 554 683 l 606 740 l 461 740 l 486 893 l 632 893 l 636 911 l 844 1003 l 825 893 l 911 893 l 885 740 l 799 740 m 401 179 q 514 222 475 179 l 553 440 q 519 474 546 460 q 457 488 493 488 q 347 433 389 488 q 304 297 304 379 q 328 212 304 244 q 401 179 353 179 z "},"Ē":{"ha":811,"x_min":83,"x_max":917,"o":"m 388 1046 l 415 1208 l 856 1208 l 828 1046 l 388 1046 m 83 0 l 254 972 l 917 972 l 882 772 l 433 772 l 403 601 l 653 601 l 618 401 l 367 401 l 332 201 l 810 201 l 774 0 l 83 0 z "},"ē":{"ha":740,"x_min":93,"x_max":771,"o":"m 288 806 l 315 968 l 756 968 l 728 806 l 288 806 m 400 -17 q 176 60 260 -17 q 93 288 93 138 q 137 495 93 397 q 274 660 181 593 q 489 726 367 726 q 697 643 622 726 q 771 436 771 560 q 744 278 771 351 l 294 278 l 294 265 q 335 188 294 217 q 425 160 375 160 q 513 182 468 160 q 583 238 557 204 l 688 110 q 400 -17 575 -17 m 325 447 l 582 447 q 578 460 581 451 q 576 471 576 468 q 467 551 551 551 q 325 447 353 551 z "},"Ĕ":{"ha":811,"x_min":83,"x_max":917,"o":"m 608 1053 q 444 1106 499 1053 q 390 1244 390 1158 q 394 1292 390 1267 l 539 1292 l 539 1274 q 562 1217 539 1240 q 635 1194 585 1194 q 727 1224 694 1194 q 767 1292 760 1253 l 911 1292 q 813 1122 893 1190 q 608 1053 733 1053 m 83 0 l 254 972 l 917 972 l 882 772 l 433 772 l 403 601 l 653 601 l 618 401 l 367 401 l 332 201 l 810 201 l 774 0 l 83 0 z "},"ĕ":{"ha":740,"x_min":93,"x_max":811,"o":"m 508 813 q 344 865 399 813 q 290 1004 290 918 q 294 1051 290 1026 l 439 1051 l 439 1033 q 462 977 439 1000 q 535 954 485 954 q 627 983 594 954 q 667 1051 660 1013 l 811 1051 q 713 881 793 950 q 508 813 633 813 m 400 -17 q 176 60 260 -17 q 93 288 93 138 q 137 495 93 397 q 274 660 181 593 q 489 726 367 726 q 697 643 622 726 q 771 436 771 560 q 744 278 771 351 l 294 278 l 294 265 q 335 188 294 217 q 425 160 375 160 q 513 182 468 160 q 583 238 557 204 l 688 110 q 400 -17 575 -17 m 325 447 l 582 447 q 578 460 581 451 q 576 471 576 468 q 467 551 551 551 q 325 447 353 551 z "},"Ė":{"ha":811,"x_min":83,"x_max":917,"o":"m 610 1060 q 546 1086 571 1060 q 521 1151 521 1113 q 560 1242 521 1204 q 650 1281 599 1281 q 714 1254 689 1281 q 739 1189 739 1228 q 700 1098 739 1136 q 610 1060 661 1060 m 83 0 l 254 972 l 917 972 l 882 772 l 433 772 l 403 601 l 653 601 l 618 401 l 367 401 l 332 201 l 810 201 l 774 0 l 83 0 z "},"ė":{"ha":740,"x_min":93,"x_max":771,"o":"m 510 819 q 446 846 471 819 q 421 911 421 872 q 460 1002 421 964 q 550 1040 499 1040 q 614 1014 589 1040 q 639 949 639 988 q 600 858 639 896 q 510 819 561 819 m 400 -17 q 176 60 260 -17 q 93 288 93 138 q 137 495 93 397 q 274 660 181 593 q 489 726 367 726 q 697 643 622 726 q 771 436 771 560 q 744 278 771 351 l 294 278 l 294 265 q 335 188 294 217 q 425 160 375 160 q 513 182 468 160 q 583 238 557 204 l 688 110 q 400 -17 575 -17 m 325 447 l 582 447 q 578 460 581 451 q 576 471 576 468 q 467 551 551 551 q 325 447 353 551 z "},"Ę":{"ha":811,"x_min":82,"x_max":917,"o":"m 511 -343 q 403 -308 442 -343 q 365 -214 365 -272 q 549 0 365 -75 l 82 0 l 253 972 l 917 972 l 883 774 l 421 774 l 390 601 l 653 601 l 618 401 l 354 401 l 321 200 l 810 200 l 774 0 l 747 0 q 592 -62 657 0 q 526 -187 526 -125 q 563 -229 526 -229 q 615 -204 590 -229 l 690 -269 q 511 -343 610 -343 z "},"ę":{"ha":740,"x_min":93,"x_max":771,"o":"m 350 -343 q 243 -308 282 -343 q 204 -214 204 -272 q 360 -15 204 -89 q 317 -10 332 -12 q 153 88 213 13 q 93 288 93 163 q 138 495 93 397 q 277 660 182 593 q 500 726 372 726 q 703 649 635 726 q 771 436 771 572 q 744 278 771 351 l 296 278 l 296 267 q 335 189 296 218 q 425 160 375 160 q 513 182 469 160 q 585 238 557 204 l 688 110 q 517 -12 642 56 q 456 -46 476 -33 q 411 -79 436 -58 q 376 -126 386 -100 q 365 -187 365 -153 q 401 -229 365 -229 q 454 -204 432 -229 l 528 -269 q 350 -343 451 -343 m 325 447 l 582 447 q 578 460 581 451 q 576 471 576 468 q 467 551 553 551 q 325 447 351 551 z "},"Ě":{"ha":811,"x_min":83,"x_max":928,"o":"m 701 1061 l 519 1061 l 369 1278 l 547 1278 l 635 1193 l 750 1278 l 928 1278 l 701 1061 m 83 0 l 254 972 l 917 972 l 882 772 l 433 772 l 403 601 l 653 601 l 618 401 l 367 401 l 332 201 l 810 201 l 774 0 l 83 0 z "},"ě":{"ha":740,"x_min":93,"x_max":828,"o":"m 601 821 l 419 821 l 269 1038 l 447 1038 l 535 953 l 650 1038 l 828 1038 l 601 821 m 400 -17 q 176 60 260 -17 q 93 288 93 138 q 137 495 93 397 q 274 660 181 593 q 489 726 367 726 q 697 643 622 726 q 771 436 771 560 q 744 278 771 351 l 294 278 l 294 265 q 335 188 294 217 q 425 160 375 160 q 513 182 468 160 q 583 238 557 204 l 688 110 q 400 -17 575 -17 m 325 447 l 582 447 q 578 460 581 451 q 576 471 576 468 q 467 551 551 551 q 325 447 353 551 z "},"Ĝ":{"ha":900,"x_min":140,"x_max":960,"o":"m 732 1082 l 646 1167 l 529 1082 l 351 1082 l 578 1299 l 760 1299 l 910 1082 l 732 1082 m 506 -17 q 228 108 317 -17 q 140 428 140 232 q 194 703 140 578 q 360 909 249 829 q 618 989 471 989 q 957 765 849 989 l 769 664 q 604 786 710 786 q 417 680 486 786 q 349 426 349 574 q 517 188 349 188 q 632 224 583 188 q 699 319 681 260 l 701 326 l 529 326 l 565 515 l 960 515 l 960 511 q 506 -17 883 -17 z "},"ĝ":{"ha":756,"x_min":110,"x_max":806,"o":"m 597 821 l 511 906 l 394 821 l 217 821 l 443 1038 l 625 1038 l 775 821 l 597 821 m 219 -106 q 403 -66 340 -97 q 481 31 467 -35 l 485 47 q 335 -17 432 -17 q 171 62 232 -17 q 110 275 110 140 q 213 600 110 474 q 463 726 315 726 q 541 708 506 726 q 593 661 576 690 l 600 710 l 806 710 l 688 51 q 565 -184 658 -111 q 290 -274 471 -257 l 219 -106 m 401 179 q 514 221 472 179 l 561 486 q 465 532 524 532 q 349 469 392 532 q 307 304 307 407 q 330 216 307 253 q 401 179 353 179 z "},"Ğ":{"ha":900,"x_min":140,"x_max":960,"o":"m 629 1074 q 465 1126 519 1074 q 411 1265 411 1179 q 415 1313 411 1288 l 560 1313 l 560 1294 q 583 1238 560 1261 q 656 1215 606 1215 q 748 1244 715 1215 q 788 1313 781 1274 l 932 1313 q 834 1142 914 1211 q 629 1074 754 1074 m 506 -17 q 228 108 317 -17 q 140 428 140 232 q 194 703 140 578 q 360 909 249 829 q 618 989 471 989 q 957 765 849 989 l 769 664 q 604 786 710 786 q 417 680 486 786 q 349 426 349 574 q 517 188 349 188 q 632 224 583 188 q 699 319 681 260 l 701 326 l 529 326 l 565 515 l 960 515 l 960 511 q 506 -17 883 -17 z "},"ğ":{"ha":756,"x_min":110,"x_max":806,"o":"m 494 813 q 331 865 385 813 q 276 1004 276 918 q 281 1051 276 1026 l 425 1051 l 425 1033 q 448 977 425 1000 q 521 954 471 954 q 613 983 581 954 q 653 1051 646 1013 l 797 1051 q 699 881 779 950 q 494 813 619 813 m 219 -106 q 403 -66 340 -97 q 481 31 467 -35 l 485 47 q 335 -17 432 -17 q 171 62 232 -17 q 110 275 110 140 q 213 600 110 474 q 463 726 315 726 q 541 708 506 726 q 593 661 576 690 l 600 710 l 806 710 l 688 51 q 565 -184 658 -111 q 290 -274 471 -257 l 219 -106 m 401 179 q 514 221 472 179 l 561 486 q 465 532 524 532 q 349 469 392 532 q 307 304 307 407 q 330 216 307 253 q 401 179 353 179 z "},"Ġ":{"ha":900,"x_min":140,"x_max":960,"o":"m 631 1081 q 567 1107 592 1081 q 542 1172 542 1133 q 581 1263 542 1225 q 671 1301 619 1301 q 735 1275 710 1301 q 760 1210 760 1249 q 721 1119 760 1157 q 631 1081 682 1081 m 506 -17 q 228 108 317 -17 q 140 428 140 232 q 194 703 140 578 q 360 909 249 829 q 618 989 471 989 q 957 765 849 989 l 769 664 q 604 786 710 786 q 417 680 486 786 q 349 426 349 574 q 517 188 349 188 q 632 224 583 188 q 699 319 681 260 l 701 326 l 529 326 l 565 515 l 960 515 l 960 511 q 506 -17 883 -17 z "},"ġ":{"ha":756,"x_min":110,"x_max":806,"o":"m 496 819 q 432 846 457 819 q 407 911 407 872 q 446 1002 407 964 q 536 1040 485 1040 q 600 1014 575 1040 q 625 949 625 988 q 586 858 625 896 q 496 819 547 819 m 219 -106 q 403 -66 340 -97 q 481 31 467 -35 l 485 47 q 335 -17 432 -17 q 171 62 232 -17 q 110 275 110 140 q 213 600 110 474 q 463 726 315 726 q 541 708 506 726 q 593 661 576 690 l 600 710 l 806 710 l 688 51 q 565 -184 658 -111 q 290 -274 471 -257 l 219 -106 m 401 179 q 514 221 472 179 l 561 486 q 465 532 524 532 q 349 469 392 532 q 307 304 307 407 q 330 216 307 253 q 401 179 353 179 z "},"Ģ":{"ha":900,"x_min":140,"x_max":960,"o":"m 506 -17 q 228 108 317 -17 q 140 428 140 232 q 194 703 140 578 q 360 909 249 829 q 618 989 471 989 q 957 765 849 989 l 769 664 q 604 786 710 786 q 417 680 486 786 q 349 426 349 574 q 517 188 349 188 q 632 224 583 188 q 699 319 681 260 l 701 326 l 529 326 l 565 515 l 960 515 l 960 511 q 506 -17 883 -17 m 446 -403 l 388 -354 q 476 -251 450 -297 q 401 -162 401 -239 q 433 -76 401 -111 q 511 -40 464 -40 q 588 -69 557 -40 q 618 -149 618 -97 q 446 -403 618 -286 z "},"ģ":{"ha":756,"x_min":110,"x_max":806,"o":"m 519 821 q 444 849 475 821 q 414 926 414 876 q 588 1183 414 1067 l 644 1135 q 557 1032 578 1071 q 611 1004 590 1026 q 632 943 632 982 q 599 856 632 892 q 519 821 567 821 m 219 -106 q 403 -66 340 -97 q 481 31 467 -35 l 485 47 q 335 -17 432 -17 q 171 62 232 -17 q 110 275 110 140 q 213 600 110 474 q 463 726 315 726 q 541 708 506 726 q 593 661 576 690 l 600 710 l 806 710 l 688 51 q 565 -184 658 -111 q 290 -274 471 -257 l 219 -106 m 401 179 q 514 221 472 179 l 561 486 q 465 532 524 532 q 349 469 392 532 q 307 304 307 407 q 330 216 307 253 q 401 179 353 179 z "},"Ĥ":{"ha":958,"x_min":83,"x_max":1047,"o":"m 783 1083 l 697 1168 l 581 1083 l 403 1083 l 629 1300 l 811 1300 l 961 1083 l 783 1083 m 83 0 l 254 972 l 467 972 l 400 599 l 768 599 l 835 972 l 1047 972 l 876 0 l 664 0 l 733 400 l 367 400 l 296 0 l 83 0 z "},"ĥ":{"ha":779,"x_min":88,"x_max":853,"o":"m 675 1063 l 589 1147 l 472 1063 l 294 1063 l 521 1279 l 703 1279 l 853 1063 l 675 1063 m 88 0 l 251 939 l 464 1003 l 399 640 q 571 726 463 726 q 726 660 672 726 q 781 499 781 594 q 771 410 781 471 l 697 0 l 499 0 l 567 382 q 574 450 574 424 q 493 538 574 538 q 408 502 449 538 q 357 401 368 467 l 285 0 l 88 0 z "},"Ħ":{"ha":964,"x_min":85,"x_max":1136,"o":"m 665 0 l 735 400 l 368 400 l 299 0 l 85 0 l 203 679 l 101 679 l 135 878 l 239 878 l 256 972 l 469 972 l 453 878 l 819 878 l 836 972 l 1050 972 l 1033 878 l 1136 878 l 1103 679 l 999 679 l 879 0 l 665 0 m 769 599 l 783 679 l 417 679 l 403 599 l 769 599 z "},"ħ":{"ha":769,"x_min":88,"x_max":772,"o":"m 499 0 l 558 342 q 565 410 565 383 q 544 474 565 451 q 485 497 524 497 q 401 461 440 497 q 350 364 361 425 l 285 0 l 88 0 l 217 740 l 144 740 l 169 893 l 244 893 l 251 939 l 464 1003 l 444 893 l 606 893 l 579 740 l 417 740 l 392 601 q 561 686 460 686 q 711 624 650 686 q 772 460 772 563 q 763 369 772 422 l 697 0 l 499 0 z "},"Ĩ":{"ha":376,"x_min":83,"x_max":692,"o":"m 494 1086 q 380 1117 444 1086 q 286 1149 315 1149 q 214 1092 228 1149 l 125 1092 q 321 1293 160 1293 q 436 1262 372 1293 q 531 1231 500 1231 q 601 1288 588 1231 l 692 1288 q 494 1086 656 1086 m 83 0 l 254 972 l 467 972 l 296 0 l 83 0 z "},"ĩ":{"ha":369,"x_min":76,"x_max":643,"o":"m 446 804 q 331 835 394 804 q 238 867 267 867 q 165 810 179 867 l 76 810 q 272 1011 111 1011 q 388 980 322 1011 q 482 949 453 949 q 553 1006 539 949 l 643 1006 q 446 804 607 804 m 88 0 l 213 710 l 413 710 l 288 0 l 88 0 z "},"Ī":{"ha":376,"x_min":83,"x_max":622,"o":"m 154 1067 l 182 1229 l 622 1229 l 594 1067 l 154 1067 m 83 0 l 254 972 l 467 972 l 296 0 l 83 0 z "},"ī":{"ha":369,"x_min":88,"x_max":574,"o":"m 106 785 l 133 947 l 574 947 l 546 785 l 106 785 m 88 0 l 213 710 l 413 710 l 288 0 l 88 0 z "},"Ĭ":{"ha":376,"x_min":83,"x_max":678,"o":"m 375 1074 q 211 1126 265 1074 q 157 1265 157 1179 q 161 1313 157 1288 l 306 1313 l 306 1294 q 328 1238 306 1261 q 401 1215 351 1215 q 494 1244 461 1215 q 533 1313 526 1274 l 678 1313 q 580 1142 660 1211 q 375 1074 500 1074 m 83 0 l 254 972 l 467 972 l 296 0 l 83 0 z "},"ĭ":{"ha":369,"x_min":88,"x_max":629,"o":"m 326 792 q 163 844 217 792 q 108 983 108 897 q 113 1031 108 1006 l 257 1031 l 257 1013 q 280 956 257 979 q 353 933 303 933 q 445 963 413 933 q 485 1031 478 992 l 629 1031 q 531 860 611 929 q 326 792 451 792 m 88 0 l 213 710 l 413 710 l 288 0 l 88 0 z "},"Į":{"ha":376,"x_min":-99,"x_max":468,"o":"m 47 -343 q -60 -308 -22 -343 q -99 -214 -99 -272 q 82 0 -99 -74 l 253 972 l 468 972 l 297 0 q 143 -53 225 8 q 61 -186 61 -115 q 99 -229 61 -229 q 150 -204 128 -229 l 225 -269 q 47 -343 149 -343 z "},"į":{"ha":369,"x_min":-97,"x_max":451,"o":"m 324 779 q 257 807 283 779 q 231 875 231 835 q 268 966 231 926 q 354 1006 306 1006 q 424 979 397 1006 q 451 913 451 953 q 413 819 451 858 q 324 779 375 779 m 50 -343 q -58 -308 -19 -343 q -97 -214 -97 -272 q -49 -91 -97 -146 q 86 0 -1 -36 l 211 710 l 411 710 l 286 0 q 119 -80 175 -24 q 63 -186 63 -136 q 100 -229 63 -229 q 151 -204 132 -229 l 228 -269 q 50 -343 147 -343 z "},"İ":{"ha":376,"x_min":83,"x_max":506,"o":"m 376 1081 q 313 1107 338 1081 q 288 1172 288 1133 q 326 1263 288 1225 q 417 1301 365 1301 q 481 1275 456 1301 q 506 1210 506 1249 q 467 1119 506 1157 q 376 1081 428 1081 m 83 0 l 254 972 l 467 972 l 296 0 l 83 0 z "},"ı":{"ha":369,"x_min":88,"x_max":413,"o":"m 88 0 l 213 710 l 413 710 l 288 0 l 88 0 z "},"Ĳ":{"ha":1108,"x_min":83,"x_max":1200,"o":"m 83 0 l 254 972 l 467 972 l 296 0 l 83 0 m 746 -17 q 524 43 611 -17 q 406 210 436 103 l 594 294 q 736 189 638 189 q 827 227 792 189 q 874 332 863 265 l 986 972 l 1200 972 l 1078 281 q 1024 131 1063 193 q 934 39 985 69 q 838 -4 883 8 q 746 -17 792 -17 z "},"ĳ":{"ha":789,"x_min":88,"x_max":871,"o":"m 325 779 q 258 807 285 779 q 232 874 232 835 q 271 966 232 926 q 356 1006 310 1006 q 426 978 399 1006 q 453 911 453 951 q 414 819 453 858 q 325 779 375 779 m 743 779 q 676 807 703 779 q 649 874 649 835 q 688 966 649 926 q 774 1006 726 1006 q 844 978 817 1006 q 871 911 871 950 q 832 819 871 858 q 743 779 793 779 m 88 0 l 213 710 l 413 710 l 288 0 l 88 0 m 367 -308 l 296 -142 q 453 -83 403 -122 q 517 39 503 -44 l 633 710 l 833 710 l 718 64 q 695 -41 707 0 q 659 -129 683 -82 q 600 -206 635 -176 q 506 -264 565 -236 q 367 -308 447 -292 z "},"Ĵ":{"ha":746,"x_min":43,"x_max":1028,"o":"m 850 1079 l 764 1164 l 647 1079 l 469 1079 l 696 1296 l 878 1296 l 1028 1079 l 850 1079 m 383 -17 q 161 43 249 -17 q 43 210 74 103 l 232 294 q 374 189 275 189 q 465 227 429 189 q 511 332 500 265 l 624 972 l 838 972 l 715 281 q 661 131 700 193 q 572 39 622 69 q 475 -4 521 8 q 383 -17 429 -17 z "},"ĵ":{"ha":367,"x_min":-126,"x_max":615,"o":"m 438 821 l 351 906 l 235 821 l 57 821 l 283 1038 l 465 1038 l 615 821 l 438 821 m -56 -297 l -126 -137 q 39 -77 -11 -110 q 99 14 89 -44 l 222 710 l 415 710 l 299 53 q -56 -297 251 -224 z "},"Ķ":{"ha":963,"x_min":83,"x_max":1065,"o":"m 703 0 l 553 439 l 333 210 l 296 0 l 83 0 l 254 972 l 467 972 l 390 538 l 808 972 l 1065 972 l 711 603 l 929 0 l 703 0 m 418 -393 l 360 -344 q 449 -242 422 -287 q 374 -153 374 -229 q 405 -66 374 -101 q 483 -31 436 -31 q 560 -59 529 -31 q 590 -139 590 -87 q 418 -393 590 -276 z "},"ķ":{"ha":754,"x_min":88,"x_max":826,"o":"m 564 488 l 719 0 l 513 0 l 401 349 l 338 294 l 285 0 l 88 0 l 251 939 l 464 1003 l 385 553 l 564 710 l 826 710 l 564 488 m 293 -403 l 235 -354 q 324 -251 297 -297 q 249 -162 249 -239 q 280 -76 249 -111 q 358 -40 311 -40 q 435 -69 404 -40 q 465 -149 465 -97 q 293 -403 465 -286 z "},"ĸ":{"ha":722,"x_min":86,"x_max":789,"o":"m 476 0 l 381 283 l 321 222 l 281 0 l 86 0 l 211 710 l 406 710 l 367 486 l 579 710 l 789 710 l 533 444 l 688 0 l 476 0 z "},"Ĺ":{"ha":728,"x_min":83,"x_max":772,"o":"m 443 1082 l 257 1082 l 483 1299 l 728 1299 l 443 1082 m 83 0 l 254 972 l 467 972 l 331 200 l 772 200 l 736 0 l 83 0 z "},"ĺ":{"ha":379,"x_min":86,"x_max":678,"o":"m 393 1050 l 207 1050 l 433 1267 l 678 1267 l 393 1050 m 86 0 l 250 939 l 461 1003 l 283 0 l 86 0 z "},"Ļ":{"ha":728,"x_min":83,"x_max":772,"o":"m 83 0 l 254 972 l 467 972 l 331 200 l 772 200 l 736 0 l 83 0 m 336 -403 l 278 -354 q 367 -251 340 -297 q 292 -162 292 -239 q 323 -76 292 -111 q 401 -40 354 -40 q 478 -69 447 -40 q 508 -149 508 -97 q 336 -403 508 -286 z "},"ļ":{"ha":379,"x_min":51,"x_max":461,"o":"m 86 0 l 250 939 l 461 1003 l 283 0 l 86 0 m 110 -403 l 51 -354 q 140 -251 114 -297 q 65 -162 65 -239 q 97 -76 65 -111 q 175 -40 128 -40 q 251 -69 221 -40 q 282 -149 282 -97 q 110 -403 282 -286 z "},"Ľ":{"ha":728,"x_min":83,"x_max":772,"o":"m 465 1082 l 283 1082 l 133 1299 l 311 1299 l 399 1214 l 514 1299 l 692 1299 l 465 1082 m 83 0 l 254 972 l 467 972 l 331 200 l 772 200 l 736 0 l 83 0 z "},"ľ":{"ha":614,"x_min":86,"x_max":754,"o":"m 86 0 l 250 939 l 461 1003 l 283 0 l 86 0 m 754 989 l 751 974 q 532 619 714 775 l 479 669 q 576 989 536 760 l 754 989 z "},"Ŀ":{"ha":728,"x_min":83,"x_max":772,"o":"m 374 1081 q 310 1107 335 1081 q 285 1172 285 1133 q 324 1263 285 1225 q 414 1301 363 1301 q 478 1275 453 1301 q 503 1210 503 1249 q 464 1119 503 1157 q 374 1081 425 1081 m 83 0 l 254 972 l 467 972 l 331 200 l 772 200 l 736 0 l 83 0 z "},"ŀ":{"ha":758,"x_min":86,"x_max":765,"o":"m 86 0 l 250 939 l 461 1003 l 283 0 l 86 0 m 636 328 q 572 354 597 328 q 547 419 547 381 q 586 510 547 472 q 676 549 625 549 q 740 522 715 549 q 765 457 765 496 q 726 366 765 404 q 636 328 688 328 z "},"Ł":{"ha":728,"x_min":32,"x_max":772,"o":"m 82 0 l 128 269 l 32 200 l 79 435 l 168 497 l 253 972 l 468 972 l 413 663 l 632 814 l 585 581 l 372 436 l 331 200 l 772 200 l 736 0 l 82 0 z "},"ł":{"ha":379,"x_min":53,"x_max":478,"o":"m 89 417 l 168 469 l 250 939 l 461 1003 l 396 624 l 478 682 l 442 478 l 360 424 l 283 0 l 86 0 l 132 264 l 53 213 l 89 417 z "},"Ń":{"ha":946,"x_min":83,"x_max":1035,"o":"m 728 1083 l 542 1083 l 768 1300 l 1013 1300 l 728 1083 m 83 0 l 254 972 l 451 972 l 701 460 q 729 382 722 417 q 736 461 731 421 l 826 972 l 1035 972 l 864 0 l 681 0 l 414 536 q 392 603 406 554 q 386 536 392 565 l 292 0 l 83 0 z "},"ń":{"ha":781,"x_min":88,"x_max":899,"o":"m 614 821 l 428 821 l 654 1038 l 899 1038 l 614 821 m 88 0 l 213 710 l 413 710 l 400 642 q 571 726 465 726 q 726 663 672 726 q 781 504 781 599 q 769 410 781 465 l 697 0 l 499 0 l 567 383 q 574 451 574 425 q 493 538 574 538 q 408 505 449 538 q 357 403 368 472 l 285 0 l 88 0 z "},"Ņ":{"ha":946,"x_min":83,"x_max":1035,"o":"m 83 0 l 254 972 l 451 972 l 701 460 q 729 382 722 417 q 736 461 731 421 l 826 972 l 1035 972 l 864 0 l 681 0 l 414 536 q 392 603 406 554 q 386 536 392 565 l 292 0 l 83 0 m 406 -393 l 347 -344 q 436 -242 410 -287 q 361 -153 361 -229 q 392 -66 361 -101 q 471 -31 424 -31 q 547 -59 517 -31 q 578 -139 578 -87 q 406 -393 578 -276 z "},"ņ":{"ha":781,"x_min":88,"x_max":781,"o":"m 88 0 l 213 710 l 413 710 l 400 642 q 571 726 465 726 q 726 663 672 726 q 781 504 781 599 q 769 410 781 465 l 697 0 l 499 0 l 567 383 q 574 451 574 425 q 493 538 574 538 q 408 505 449 538 q 357 403 368 472 l 285 0 l 88 0 m 314 -403 l 256 -354 q 344 -251 318 -297 q 269 -162 269 -239 q 301 -76 269 -111 q 379 -40 332 -40 q 456 -69 425 -40 q 486 -149 486 -97 q 314 -403 486 -286 z "},"Ň":{"ha":946,"x_min":83,"x_max":1035,"o":"m 750 1083 l 568 1083 l 418 1300 l 596 1300 l 683 1215 l 799 1300 l 976 1300 l 750 1083 m 83 0 l 254 972 l 451 972 l 701 460 q 729 382 722 417 q 736 461 731 421 l 826 972 l 1035 972 l 864 0 l 681 0 l 414 536 q 392 603 406 554 q 386 536 392 565 l 292 0 l 83 0 z "},"ň":{"ha":781,"x_min":88,"x_max":863,"o":"m 636 821 l 454 821 l 304 1038 l 482 1038 l 569 953 l 685 1038 l 863 1038 l 636 821 m 88 0 l 213 710 l 413 710 l 400 642 q 571 726 465 726 q 726 663 672 726 q 781 504 781 599 q 769 410 781 465 l 697 0 l 499 0 l 567 383 q 574 451 574 425 q 493 538 574 538 q 408 505 449 538 q 357 403 368 472 l 285 0 l 88 0 z "},"ŉ":{"ha":1128,"x_min":153,"x_max":1128,"o":"m 225 565 l 153 635 q 265 754 208 679 q 211 847 211 781 q 253 947 211 906 q 351 989 294 989 q 424 960 396 989 q 453 881 453 931 q 385 707 453 794 q 225 565 318 619 m 433 0 l 558 710 l 758 710 l 746 642 q 918 726 811 726 q 1074 663 1019 726 q 1128 504 1128 599 q 1117 410 1128 483 l 1043 0 l 846 0 l 914 383 q 917 413 914 386 q 921 451 921 439 q 840 538 921 538 q 755 505 794 538 q 703 403 715 472 l 632 0 l 433 0 z "},"Ŋ":{"ha":928,"x_min":83,"x_max":1018,"o":"m 485 -339 l 411 -176 q 585 -114 536 -146 q 644 -18 633 -82 l 654 38 l 406 536 q 383 603 400 546 q 378 536 383 565 l 282 0 l 83 0 l 254 972 l 443 972 l 693 460 q 719 382 711 422 q 728 461 721 407 l 818 972 l 1018 972 l 853 38 q 742 -208 825 -131 q 485 -339 644 -299 z "},"ŋ":{"ha":779,"x_min":88,"x_max":781,"o":"m 279 -182 q 435 -122 386 -161 q 499 1 483 -83 l 567 383 q 574 451 574 425 q 493 538 574 538 q 406 503 444 538 q 357 406 367 468 l 285 0 l 88 0 l 213 710 l 411 710 l 401 644 q 571 726 469 726 q 719 671 658 726 q 781 504 781 615 q 772 433 781 471 l 700 24 q 656 -137 683 -74 q 581 -242 628 -201 q 483 -306 535 -283 q 350 -349 432 -328 l 279 -182 z "},"Ō":{"ha":961,"x_min":140,"x_max":989,"o":"m 406 1067 l 433 1229 l 874 1229 l 846 1067 l 406 1067 m 526 -17 q 348 20 425 -17 q 227 121 271 57 q 162 262 183 185 q 140 426 140 339 q 269 828 140 667 q 615 989 399 989 q 892 863 796 989 q 989 556 989 736 q 860 146 989 308 q 526 -17 731 -17 m 525 188 q 708 290 636 188 q 781 556 781 393 q 736 718 781 650 q 600 786 692 786 q 419 678 489 786 q 349 426 349 571 q 392 258 349 329 q 525 188 435 188 z "},"ō":{"ha":750,"x_min":111,"x_max":765,"o":"m 283 806 l 311 968 l 751 968 l 724 806 l 283 806 m 399 -17 q 111 300 111 -17 q 217 610 111 494 q 489 726 322 726 q 690 644 614 726 q 765 421 765 563 q 662 101 765 218 q 399 -17 558 -17 m 418 181 q 523 235 479 181 q 567 382 567 289 q 457 532 567 532 q 352 476 396 532 q 308 333 308 421 q 418 181 308 181 z "},"Ŏ":{"ha":961,"x_min":140,"x_max":989,"o":"m 626 1074 q 463 1126 517 1074 q 408 1265 408 1179 q 413 1313 408 1288 l 557 1313 l 557 1294 q 580 1238 557 1261 q 653 1215 603 1215 q 745 1244 713 1215 q 785 1313 778 1274 l 929 1313 q 831 1142 911 1211 q 626 1074 751 1074 m 526 -17 q 348 20 425 -17 q 227 121 271 57 q 162 262 183 185 q 140 426 140 339 q 269 828 140 667 q 615 989 399 989 q 892 863 796 989 q 989 556 989 736 q 860 146 989 308 q 526 -17 731 -17 m 525 188 q 708 290 636 188 q 781 556 781 393 q 736 718 781 650 q 600 786 692 786 q 419 678 489 786 q 349 426 349 571 q 392 258 349 329 q 525 188 435 188 z "},"ŏ":{"ha":750,"x_min":111,"x_max":807,"o":"m 504 813 q 340 865 394 813 q 286 1004 286 918 q 290 1051 286 1026 l 435 1051 l 435 1033 q 458 977 435 1000 q 531 954 481 954 q 623 983 590 954 q 663 1051 656 1013 l 807 1051 q 709 881 789 950 q 504 813 629 813 m 399 -17 q 111 300 111 -17 q 217 610 111 494 q 489 726 322 726 q 690 644 614 726 q 765 421 765 563 q 662 101 765 218 q 399 -17 558 -17 m 418 181 q 523 235 479 181 q 567 382 567 289 q 457 532 567 532 q 352 476 396 532 q 308 333 308 421 q 418 181 308 181 z "},"Ő":{"ha":961,"x_min":140,"x_max":1140,"o":"m 378 1082 l 604 1299 l 839 1299 l 564 1082 l 378 1082 m 678 1082 l 904 1299 l 1140 1299 l 865 1082 l 678 1082 m 526 -17 q 348 20 425 -17 q 227 121 271 57 q 162 262 183 185 q 140 426 140 339 q 269 828 140 667 q 615 989 399 989 q 892 863 796 989 q 989 556 989 736 q 860 146 989 308 q 526 -17 731 -17 m 525 188 q 708 290 636 188 q 781 556 781 393 q 736 718 781 650 q 600 786 692 786 q 419 678 489 786 q 349 426 349 571 q 392 258 349 329 q 525 188 435 188 z "},"ő":{"ha":750,"x_min":111,"x_max":1018,"o":"m 256 821 l 482 1038 l 717 1038 l 442 821 l 256 821 m 556 821 l 782 1038 l 1018 1038 l 743 821 l 556 821 m 399 -17 q 111 300 111 -17 q 217 610 111 494 q 489 726 322 726 q 690 644 614 726 q 765 421 765 563 q 662 101 765 218 q 399 -17 558 -17 m 418 181 q 523 235 479 181 q 567 382 567 289 q 457 532 567 532 q 352 476 396 532 q 308 333 308 421 q 418 181 308 181 z "},"Œ":{"ha":1371,"x_min":140,"x_max":1476,"o":"m 528 -17 q 348 20 425 -17 q 227 121 271 57 q 162 263 183 185 q 140 432 140 340 q 270 829 140 669 q 617 989 400 989 q 838 922 740 989 l 846 972 l 1476 972 l 1442 772 l 1025 772 l 994 601 l 1213 601 l 1178 401 l 958 401 l 925 201 l 1369 201 l 1333 0 l 675 0 l 676 11 q 528 -17 610 -17 m 525 188 q 729 304 642 188 l 785 625 q 597 786 742 786 q 419 678 490 786 q 349 425 349 571 q 392 258 349 328 q 525 188 436 188 z "},"œ":{"ha":1186,"x_min":111,"x_max":1217,"o":"m 390 -17 q 183 62 254 -17 q 111 293 111 140 q 219 608 111 490 q 485 726 326 726 q 697 643 629 726 q 926 726 796 726 q 1138 653 1060 726 q 1217 454 1217 579 q 1193 278 1217 343 l 743 278 l 743 265 q 783 188 743 217 q 874 160 824 160 q 961 182 917 160 q 1032 238 1006 204 l 1131 114 q 829 -17 1011 -17 q 628 67 704 -17 q 390 -17 525 -17 m 774 447 l 1031 447 q 1022 478 1028 467 q 915 551 997 551 q 774 447 800 551 m 408 179 q 522 233 476 179 q 567 382 567 288 q 468 532 567 532 q 354 477 400 532 q 308 333 308 422 q 408 179 308 179 z "},"Ŕ":{"ha":926,"x_min":83,"x_max":993,"o":"m 696 1082 l 510 1082 l 736 1299 l 981 1299 l 696 1082 m 993 672 q 942 485 993 575 q 767 358 890 394 l 850 0 l 619 0 l 543 344 l 357 344 l 296 0 l 83 0 l 254 972 l 713 972 q 925 885 857 972 q 993 672 993 799 m 644 544 q 747 581 719 544 q 775 664 775 617 q 751 743 775 714 q 682 772 728 772 l 431 772 l 392 544 l 644 544 z "},"ŕ":{"ha":569,"x_min":82,"x_max":801,"o":"m 517 821 l 331 821 l 557 1038 l 801 1038 l 517 821 m 82 0 l 207 710 l 406 710 l 394 651 q 444 706 408 682 q 528 729 481 729 q 661 667 601 729 l 603 483 q 485 532 551 532 q 349 394 375 532 l 281 0 l 82 0 z "},"Ŗ":{"ha":926,"x_min":83,"x_max":993,"o":"m 993 672 q 942 485 993 575 q 767 358 890 394 l 850 0 l 619 0 l 543 344 l 357 344 l 296 0 l 83 0 l 254 972 l 713 972 q 925 885 857 972 q 993 672 993 799 m 644 544 q 747 581 719 544 q 775 664 775 617 q 751 743 775 714 q 682 772 728 772 l 431 772 l 392 544 l 644 544 m 385 -403 l 326 -354 q 415 -251 389 -297 q 340 -162 340 -239 q 372 -76 340 -111 q 450 -40 403 -40 q 526 -69 496 -40 q 557 -149 557 -97 q 385 -403 557 -286 z "},"ŗ":{"ha":569,"x_min":49,"x_max":661,"o":"m 82 0 l 207 710 l 406 710 l 394 651 q 444 706 408 682 q 528 729 481 729 q 661 667 601 729 l 603 483 q 485 532 551 532 q 349 394 375 532 l 281 0 l 82 0 m 107 -403 l 49 -354 q 138 -251 111 -297 q 63 -162 63 -239 q 94 -76 63 -111 q 172 -40 125 -40 q 249 -69 218 -40 q 279 -149 279 -97 q 107 -403 279 -286 z "},"Ř":{"ha":926,"x_min":83,"x_max":993,"o":"m 718 1082 l 536 1082 l 386 1299 l 564 1299 l 651 1214 l 767 1299 l 944 1299 l 718 1082 m 993 672 q 942 485 993 575 q 767 358 890 394 l 850 0 l 619 0 l 543 344 l 357 344 l 296 0 l 83 0 l 254 972 l 713 972 q 925 885 857 972 q 993 672 993 799 m 644 544 q 747 581 719 544 q 775 664 775 617 q 751 743 775 714 q 682 772 728 772 l 431 772 l 392 544 l 644 544 z "},"ř":{"ha":569,"x_min":82,"x_max":765,"o":"m 539 821 l 357 821 l 207 1038 l 385 1038 l 472 953 l 588 1038 l 765 1038 l 539 821 m 82 0 l 207 710 l 406 710 l 394 651 q 444 706 408 682 q 528 729 481 729 q 661 667 601 729 l 603 483 q 485 532 551 532 q 349 394 375 532 l 281 0 l 82 0 z "},"Ś":{"ha":818,"x_min":94,"x_max":908,"o":"m 624 1082 l 438 1082 l 664 1299 l 908 1299 l 624 1082 m 660 685 q 617 763 653 732 q 526 794 582 794 q 436 771 468 794 q 404 713 404 747 q 435 660 404 683 q 512 621 465 638 q 612 578 558 604 q 712 519 665 551 q 789 430 758 488 q 819 296 819 372 q 714 70 819 157 q 433 -17 608 -17 q 214 61 299 -17 q 94 268 129 139 l 289 339 q 352 226 313 265 q 464 188 392 188 q 558 211 521 188 q 596 275 596 235 q 554 349 596 318 q 453 402 513 379 q 333 456 393 425 q 232 549 274 488 q 190 701 190 611 q 285 908 190 826 q 540 989 379 989 q 763 917 686 989 q 853 746 839 846 l 660 685 z "},"ś":{"ha":651,"x_min":63,"x_max":810,"o":"m 525 821 l 339 821 l 565 1038 l 810 1038 l 525 821 m 336 -17 q 169 20 247 -17 q 63 117 92 57 l 206 225 q 358 153 274 153 q 421 165 394 153 q 447 203 447 178 q 400 252 447 226 q 297 301 353 278 q 194 376 242 325 q 147 494 147 426 q 230 664 147 601 q 443 726 313 726 q 588 690 522 726 q 683 611 653 654 l 532 501 q 419 561 494 561 q 362 547 383 561 q 340 511 340 533 q 372 476 340 494 q 447 438 403 458 q 537 390 492 417 q 613 322 582 364 q 644 226 644 279 q 563 48 644 113 q 336 -17 481 -17 z "},"Ŝ":{"ha":818,"x_min":94,"x_max":853,"o":"m 656 1082 l 569 1167 l 453 1082 l 275 1082 l 501 1299 l 683 1299 l 833 1082 l 656 1082 m 660 685 q 617 763 653 732 q 526 794 582 794 q 436 771 468 794 q 404 713 404 747 q 435 660 404 683 q 512 621 465 638 q 612 578 558 604 q 712 519 665 551 q 789 430 758 488 q 819 296 819 372 q 714 70 819 157 q 433 -17 608 -17 q 214 61 299 -17 q 94 268 129 139 l 289 339 q 352 226 313 265 q 464 188 392 188 q 558 211 521 188 q 596 275 596 235 q 554 349 596 318 q 453 402 513 379 q 333 456 393 425 q 232 549 274 488 q 190 701 190 611 q 285 908 190 826 q 540 989 379 989 q 763 917 686 989 q 853 746 839 846 l 660 685 z "},"ŝ":{"ha":651,"x_min":63,"x_max":735,"o":"m 557 821 l 471 906 l 354 821 l 176 821 l 403 1038 l 585 1038 l 735 821 l 557 821 m 336 -17 q 169 20 247 -17 q 63 117 92 57 l 206 225 q 358 153 274 153 q 421 165 394 153 q 447 203 447 178 q 400 252 447 226 q 297 301 353 278 q 194 376 242 325 q 147 494 147 426 q 230 664 147 601 q 443 726 313 726 q 588 690 522 726 q 683 611 653 654 l 532 501 q 419 561 494 561 q 362 547 383 561 q 340 511 340 533 q 372 476 340 494 q 447 438 403 458 q 537 390 492 417 q 613 322 582 364 q 644 226 644 279 q 563 48 644 113 q 336 -17 481 -17 z "},"Ş":{"ha":818,"x_min":94,"x_max":853,"o":"m 346 -343 q 204 -274 240 -343 l 296 -210 q 346 -237 311 -237 q 400 -221 381 -237 q 419 -176 419 -204 q 367 -136 419 -136 q 303 -160 333 -136 l 269 -107 l 364 -12 q 94 268 161 26 l 289 339 q 352 226 313 265 q 464 188 392 188 q 558 211 521 188 q 596 275 596 235 q 554 349 596 318 q 453 402 513 379 q 333 456 393 425 q 232 549 274 488 q 190 701 190 611 q 285 908 190 826 q 540 989 379 989 q 763 917 686 989 q 853 746 839 846 l 660 685 q 617 763 653 732 q 526 794 582 794 q 436 771 468 794 q 404 713 404 747 q 435 660 404 683 q 512 621 465 638 q 612 578 558 604 q 712 519 665 551 q 789 430 758 488 q 819 296 819 372 q 724 79 819 165 q 469 -17 628 -7 l 433 -61 q 534 -90 500 -61 q 568 -167 568 -119 q 508 -292 568 -242 q 346 -343 447 -343 z "},"ş":{"ha":651,"x_min":63,"x_max":683,"o":"m 243 -343 q 101 -274 138 -343 l 193 -210 q 243 -237 208 -237 q 297 -221 278 -237 q 317 -176 317 -204 q 264 -136 317 -136 q 199 -160 231 -136 l 167 -107 l 264 -11 q 140 37 196 3 q 63 117 85 71 l 206 225 q 358 153 274 153 q 421 165 394 153 q 447 203 447 178 q 400 252 447 226 q 297 301 353 278 q 194 376 242 325 q 147 494 147 426 q 230 664 147 601 q 443 726 313 726 q 588 690 522 726 q 683 611 653 654 l 532 501 q 419 561 494 561 q 362 547 383 561 q 340 511 340 533 q 388 467 340 493 q 492 417 435 442 q 597 341 550 392 q 644 226 644 290 q 571 55 644 119 q 367 -17 497 -10 l 331 -61 q 431 -90 397 -61 q 465 -167 465 -119 q 405 -292 465 -242 q 243 -343 344 -343 z "},"Š":{"ha":818,"x_min":94,"x_max":872,"o":"m 646 1082 l 464 1082 l 314 1299 l 492 1299 l 579 1214 l 694 1299 l 872 1299 l 646 1082 m 660 685 q 617 763 653 732 q 526 794 582 794 q 436 771 468 794 q 404 713 404 747 q 435 660 404 683 q 512 621 465 638 q 612 578 558 604 q 712 519 665 551 q 789 430 758 488 q 819 296 819 372 q 714 70 819 157 q 433 -17 608 -17 q 214 61 299 -17 q 94 268 129 139 l 289 339 q 352 226 313 265 q 464 188 392 188 q 558 211 521 188 q 596 275 596 235 q 554 349 596 318 q 453 402 513 379 q 333 456 393 425 q 232 549 274 488 q 190 701 190 611 q 285 908 190 826 q 540 989 379 989 q 763 917 686 989 q 853 746 839 846 l 660 685 z "},"š":{"ha":651,"x_min":63,"x_max":774,"o":"m 547 821 l 365 821 l 215 1038 l 393 1038 l 481 953 l 596 1038 l 774 1038 l 547 821 m 336 -17 q 169 20 247 -17 q 63 117 92 57 l 206 225 q 358 153 274 153 q 421 165 394 153 q 447 203 447 178 q 400 252 447 226 q 297 301 353 278 q 194 376 242 325 q 147 494 147 426 q 230 664 147 601 q 443 726 313 726 q 588 690 522 726 q 683 611 653 654 l 532 501 q 419 561 494 561 q 362 547 383 561 q 340 511 340 533 q 372 476 340 494 q 447 438 403 458 q 537 390 492 417 q 613 322 582 364 q 644 226 644 279 q 563 48 644 113 q 336 -17 481 -17 z "},"Ţ":{"ha":806,"x_min":169,"x_max":944,"o":"m 325 -343 q 183 -274 222 -343 l 275 -210 q 325 -237 290 -237 q 379 -222 360 -237 q 399 -178 399 -206 q 346 -136 399 -136 q 281 -160 315 -136 l 249 -107 l 353 0 l 297 0 l 433 769 l 169 769 l 204 972 l 944 972 l 910 769 l 644 769 l 508 0 l 458 0 l 413 -61 q 513 -90 479 -61 q 547 -167 547 -119 q 487 -292 547 -242 q 325 -343 426 -343 z "},"ţ":{"ha":514,"x_min":92,"x_max":589,"o":"m 233 -343 q 92 -274 128 -343 l 183 -210 q 232 -237 196 -237 q 306 -176 306 -237 q 251 -136 306 -136 q 189 -160 221 -136 l 157 -107 l 254 -8 q 178 42 204 6 q 153 121 153 78 q 165 243 153 178 l 215 535 l 108 535 l 139 710 l 247 710 l 286 939 l 496 1003 l 444 710 l 589 710 l 558 535 l 414 535 l 364 249 q 354 190 354 206 q 400 156 354 156 q 506 181 442 156 l 471 15 q 357 -15 426 -4 l 321 -61 q 420 -90 386 -61 q 454 -167 454 -119 q 394 -292 454 -242 q 233 -343 333 -343 z "},"Ť":{"ha":806,"x_min":169,"x_max":944,"o":"m 686 1083 l 504 1083 l 354 1300 l 532 1300 l 619 1215 l 735 1300 l 913 1300 l 686 1083 m 644 769 l 508 0 l 297 0 l 433 769 l 169 769 l 204 972 l 944 972 l 910 769 l 644 769 z "},"ť":{"ha":588,"x_min":108,"x_max":804,"o":"m 804 1165 l 801 1150 q 582 796 764 951 l 529 846 q 626 1165 586 936 l 804 1165 m 310 -17 q 197 22 240 -17 q 153 122 153 60 q 165 243 153 178 l 215 535 l 108 535 l 139 710 l 247 710 l 286 939 l 496 1003 l 444 710 l 589 710 l 558 535 l 414 535 l 364 249 q 354 190 354 201 q 400 156 354 156 q 506 181 442 156 l 471 15 q 310 -17 403 -17 z "},"Ŧ":{"ha":806,"x_min":169,"x_max":944,"o":"m 297 0 l 358 349 l 213 349 l 246 542 l 392 542 l 433 769 l 169 769 l 204 972 l 944 972 l 910 769 l 644 769 l 606 542 l 751 542 l 718 349 l 571 349 l 508 0 l 297 0 z "},"ŧ":{"ha":542,"x_min":68,"x_max":599,"o":"m 318 -17 q 206 22 250 -17 q 161 122 161 60 q 174 243 161 165 l 176 257 l 68 257 l 99 432 l 208 432 l 225 535 l 117 535 l 147 710 l 256 710 l 294 939 l 506 1003 l 454 710 l 599 710 l 567 535 l 422 535 l 404 432 l 549 432 l 518 257 l 374 257 l 372 249 q 364 190 364 199 q 410 156 364 156 q 514 181 453 156 l 481 15 q 318 -17 413 -17 z "},"Ũ":{"ha":954,"x_min":147,"x_max":1049,"o":"m 786 1089 q 672 1120 736 1089 q 578 1151 608 1151 q 506 1094 519 1151 l 417 1094 q 613 1296 451 1296 q 728 1265 664 1296 q 822 1233 792 1233 q 893 1290 879 1233 l 983 1290 q 786 1089 947 1089 m 496 -17 q 246 65 344 -17 q 147 303 147 146 q 164 457 147 357 l 258 972 l 468 972 l 371 415 q 360 325 360 349 q 403 224 360 256 q 513 192 446 192 q 660 233 604 192 q 733 375 717 274 l 839 972 l 1049 972 l 940 354 q 878 167 921 243 q 774 53 836 92 q 647 -1 713 14 q 496 -17 581 -17 z "},"ũ":{"ha":781,"x_min":115,"x_max":850,"o":"m 653 825 q 539 856 603 825 q 444 888 475 888 q 372 831 386 888 l 283 831 q 479 1032 318 1032 q 594 1001 531 1032 q 689 969 658 969 q 760 1026 746 969 l 850 1026 q 653 825 814 825 m 503 0 l 513 67 q 304 -17 429 -17 q 174 41 233 -17 q 115 206 115 99 q 121 271 115 239 l 199 710 l 399 710 l 331 329 q 322 261 322 279 q 404 179 322 179 q 502 208 460 179 q 554 294 544 238 l 628 710 l 825 710 l 700 0 l 503 0 z "},"Ū":{"ha":954,"x_min":147,"x_max":1049,"o":"m 446 1069 l 474 1232 l 914 1232 l 886 1069 l 446 1069 m 496 -17 q 246 65 344 -17 q 147 303 147 146 q 164 457 147 357 l 258 972 l 468 972 l 371 415 q 360 325 360 349 q 403 224 360 256 q 513 192 446 192 q 660 233 604 192 q 733 375 717 274 l 839 972 l 1049 972 l 940 354 q 878 167 921 243 q 774 53 836 92 q 647 -1 713 14 q 496 -17 581 -17 z "},"ū":{"ha":781,"x_min":115,"x_max":825,"o":"m 313 806 l 340 968 l 781 968 l 753 806 l 313 806 m 503 0 l 513 67 q 304 -17 429 -17 q 174 41 233 -17 q 115 206 115 99 q 121 271 115 239 l 199 710 l 399 710 l 331 329 q 322 261 322 279 q 404 179 322 179 q 502 208 460 179 q 554 294 544 238 l 628 710 l 825 710 l 700 0 l 503 0 z "},"Ŭ":{"ha":954,"x_min":147,"x_max":1049,"o":"m 667 1076 q 503 1129 557 1076 q 449 1268 449 1182 q 453 1315 449 1290 l 597 1315 l 597 1297 q 620 1241 597 1264 q 693 1218 643 1218 q 785 1247 753 1218 q 825 1315 818 1276 l 969 1315 q 872 1145 951 1214 q 667 1076 792 1076 m 496 -17 q 246 65 344 -17 q 147 303 147 146 q 164 457 147 357 l 258 972 l 468 972 l 371 415 q 360 325 360 349 q 403 224 360 256 q 513 192 446 192 q 660 233 604 192 q 733 375 717 274 l 839 972 l 1049 972 l 940 354 q 878 167 921 243 q 774 53 836 92 q 647 -1 713 14 q 496 -17 581 -17 z "},"ŭ":{"ha":781,"x_min":115,"x_max":836,"o":"m 533 813 q 369 865 424 813 q 315 1004 315 918 q 319 1051 315 1026 l 464 1051 l 464 1033 q 487 977 464 1000 q 560 954 510 954 q 652 983 619 954 q 692 1051 685 1013 l 836 1051 q 738 881 818 950 q 533 813 658 813 m 503 0 l 513 67 q 304 -17 429 -17 q 174 41 233 -17 q 115 206 115 99 q 121 271 115 239 l 199 710 l 399 710 l 331 329 q 322 261 322 279 q 404 179 322 179 q 502 208 460 179 q 554 294 544 238 l 628 710 l 825 710 l 700 0 l 503 0 z "},"Ů":{"ha":954,"x_min":147,"x_max":1049,"o":"m 653 988 q 545 1033 588 988 q 503 1143 503 1078 q 568 1292 503 1229 q 717 1356 633 1356 q 822 1310 781 1356 q 864 1200 864 1265 q 800 1050 864 1113 q 653 988 736 988 m 676 1124 q 714 1140 697 1124 q 731 1179 731 1156 q 719 1209 731 1197 q 693 1221 708 1221 q 654 1203 671 1221 q 638 1163 638 1186 q 676 1124 638 1124 m 496 -17 q 246 65 344 -17 q 147 303 147 146 q 164 457 147 357 l 258 972 l 468 972 l 371 415 q 360 325 360 349 q 403 224 360 256 q 513 192 446 192 q 660 233 604 192 q 733 375 717 274 l 839 972 l 1049 972 l 940 354 q 878 167 921 243 q 774 53 836 92 q 647 -1 713 14 q 496 -17 581 -17 z "},"ů":{"ha":781,"x_min":115,"x_max":825,"o":"m 533 793 q 426 838 468 793 q 383 949 383 883 q 449 1098 383 1035 q 597 1161 514 1161 q 703 1116 661 1161 q 744 1006 744 1071 q 681 856 744 918 q 533 793 617 793 m 557 929 q 594 945 578 929 q 611 985 611 961 q 600 1015 611 1003 q 574 1026 589 1026 q 535 1009 551 1026 q 518 968 518 992 q 557 929 518 929 m 503 0 l 513 67 q 304 -17 429 -17 q 174 41 233 -17 q 115 206 115 99 q 121 271 115 239 l 199 710 l 399 710 l 331 329 q 322 261 322 279 q 404 179 322 179 q 502 208 460 179 q 554 294 544 238 l 628 710 l 825 710 l 700 0 l 503 0 z "},"Ű":{"ha":954,"x_min":147,"x_max":1181,"o":"m 418 1085 l 644 1301 l 879 1301 l 604 1085 l 418 1085 m 718 1085 l 944 1301 l 1181 1301 l 906 1085 l 718 1085 m 496 -17 q 246 65 344 -17 q 147 303 147 146 q 164 457 147 357 l 258 972 l 468 972 l 371 415 q 360 325 360 349 q 403 224 360 256 q 513 192 446 192 q 660 233 604 192 q 733 375 717 274 l 839 972 l 1049 972 l 940 354 q 878 167 921 243 q 774 53 836 92 q 647 -1 713 14 q 496 -17 581 -17 z "},"ű":{"ha":781,"x_min":115,"x_max":1047,"o":"m 285 821 l 511 1038 l 746 1038 l 471 821 l 285 821 m 585 821 l 811 1038 l 1047 1038 l 772 821 l 585 821 m 503 0 l 513 67 q 304 -17 429 -17 q 174 41 233 -17 q 115 206 115 99 q 121 271 115 239 l 199 710 l 399 710 l 331 329 q 322 261 322 279 q 404 179 322 179 q 502 208 460 179 q 554 294 544 238 l 628 710 l 825 710 l 700 0 l 503 0 z "},"Ų":{"ha":954,"x_min":147,"x_max":1049,"o":"m 442 -343 q 334 -307 374 -343 q 294 -214 294 -271 q 336 -99 294 -150 q 451 -15 378 -47 q 404 -8 421 -12 q 218 92 289 14 q 147 303 147 171 q 164 457 147 357 l 258 972 l 468 972 l 371 415 q 360 325 360 349 q 403 224 360 256 q 513 192 446 192 q 660 233 604 192 q 733 375 717 274 l 839 972 l 1049 972 l 940 354 q 826 95 908 175 q 601 -22 744 15 q 492 -93 529 -40 q 456 -186 456 -146 q 492 -229 456 -229 q 543 -204 521 -229 l 619 -269 q 442 -343 543 -343 z "},"ų":{"ha":781,"x_min":115,"x_max":825,"o":"m 471 -343 q 363 -308 401 -343 q 325 -214 325 -272 q 503 0 325 -79 l 513 67 q 304 -17 429 -17 q 174 41 233 -17 q 115 206 115 99 q 121 271 115 239 l 199 710 l 399 710 l 331 329 q 322 261 322 279 q 404 179 322 179 q 502 208 460 179 q 554 294 544 238 l 628 710 l 825 710 l 700 0 q 540 -83 593 -29 q 486 -187 486 -136 q 521 -229 486 -229 q 574 -204 551 -229 l 649 -269 q 471 -343 568 -343 z "},"Ŵ":{"ha":1133,"x_min":201,"x_max":1278,"o":"m 851 1082 l 765 1167 l 649 1082 l 471 1082 l 697 1299 l 879 1299 l 1029 1082 l 851 1082 m 238 0 l 201 972 l 415 972 l 417 463 q 416 421 417 442 q 415 389 415 400 q 442 465 424 421 l 643 972 l 825 972 l 851 467 q 853 390 853 439 q 879 467 864 426 l 1060 972 l 1278 972 l 904 0 l 710 0 l 676 492 q 675 619 675 518 q 631 500 663 574 l 432 0 l 238 0 z "},"ŵ":{"ha":1000,"x_min":154,"x_max":1096,"o":"m 743 821 l 657 906 l 540 821 l 363 821 l 589 1038 l 771 1038 l 921 821 l 743 821 m 231 0 l 154 710 l 344 710 l 363 413 q 364 310 364 383 q 403 413 374 340 l 525 710 l 718 710 l 739 413 q 742 310 742 385 q 761 365 749 329 q 779 413 774 400 l 901 710 l 1096 710 l 789 0 l 613 0 l 585 325 q 582 443 582 350 q 538 325 554 361 l 406 0 l 231 0 z "},"Ŷ":{"ha":939,"x_min":181,"x_max":1096,"o":"m 754 1085 l 668 1169 l 551 1085 l 374 1085 l 600 1301 l 782 1301 l 932 1085 l 754 1085 m 363 0 l 432 393 l 181 972 l 403 972 l 564 601 l 854 972 l 1096 972 l 644 390 l 576 0 l 363 0 z "},"ŷ":{"ha":763,"x_min":128,"x_max":888,"o":"m 629 821 l 543 906 l 426 821 l 249 821 l 475 1038 l 657 1038 l 807 821 l 629 821 m 128 -269 l 283 13 l 149 710 l 346 710 l 421 326 q 431 258 429 290 q 461 326 444 296 l 672 710 l 888 710 l 349 -269 l 128 -269 z "},"Ÿ":{"ha":939,"x_min":181,"x_max":1096,"o":"m 525 1083 q 458 1110 483 1083 q 432 1175 432 1136 q 469 1266 432 1228 q 553 1304 507 1304 q 623 1278 597 1304 q 649 1213 649 1253 q 611 1122 649 1160 q 525 1083 574 1083 m 788 1083 q 719 1109 744 1083 q 694 1175 694 1135 q 731 1266 694 1228 q 817 1304 768 1304 q 885 1278 860 1304 q 911 1213 911 1251 q 873 1122 911 1160 q 788 1083 835 1083 m 363 0 l 432 393 l 181 972 l 403 972 l 564 601 l 854 972 l 1096 972 l 644 390 l 576 0 l 363 0 z "},"Ź":{"ha":851,"x_min":47,"x_max":960,"o":"m 665 1082 l 479 1082 l 706 1299 l 950 1299 l 665 1082 m 47 0 l 75 163 l 638 772 l 213 772 l 247 972 l 960 972 l 932 811 l 363 201 l 825 201 l 789 0 l 47 0 z "},"ź":{"ha":711,"x_min":56,"x_max":850,"o":"m 565 821 l 379 821 l 606 1038 l 850 1038 l 565 821 m 56 0 l 83 163 l 486 531 l 174 531 l 204 710 l 778 710 l 750 553 l 347 181 l 682 181 l 651 0 l 56 0 z "},"Ż":{"ha":851,"x_min":47,"x_max":960,"o":"m 596 1081 q 532 1107 557 1081 q 507 1172 507 1133 q 546 1263 507 1225 q 636 1301 585 1301 q 700 1275 675 1301 q 725 1210 725 1249 q 686 1119 725 1157 q 596 1081 647 1081 m 47 0 l 75 163 l 638 772 l 213 772 l 247 972 l 960 972 l 932 811 l 363 201 l 825 201 l 789 0 l 47 0 z "},"ż":{"ha":711,"x_min":56,"x_max":778,"o":"m 496 819 q 432 846 457 819 q 407 911 407 872 q 446 1002 407 964 q 536 1040 485 1040 q 600 1014 575 1040 q 625 949 625 988 q 586 858 625 896 q 496 819 547 819 m 56 0 l 83 163 l 486 531 l 174 531 l 204 710 l 778 710 l 750 553 l 347 181 l 682 181 l 651 0 l 56 0 z "},"Ž":{"ha":851,"x_min":47,"x_max":960,"o":"m 688 1082 l 506 1082 l 356 1299 l 533 1299 l 621 1214 l 736 1299 l 914 1299 l 688 1082 m 47 0 l 75 163 l 638 772 l 213 772 l 247 972 l 960 972 l 932 811 l 363 201 l 825 201 l 789 0 l 47 0 z "},"ž":{"ha":711,"x_min":56,"x_max":814,"o":"m 588 821 l 406 821 l 256 1038 l 433 1038 l 521 953 l 636 1038 l 814 1038 l 588 821 m 56 0 l 83 163 l 486 531 l 174 531 l 204 710 l 778 710 l 750 553 l 347 181 l 682 181 l 651 0 l 56 0 z "},"ſ":{"ha":476,"x_min":131,"x_max":638,"o":"m 131 0 l 274 815 q 352 953 292 914 q 489 993 413 993 q 638 954 557 993 l 607 792 q 511 814 551 814 q 464 774 471 814 l 328 0 l 131 0 z "},"ƒ":{"ha":532,"x_min":-62,"x_max":672,"o":"m 8 -350 l -62 -190 q 99 -129 47 -167 q 164 -12 150 -92 l 260 531 l 172 531 l 203 710 l 290 710 l 310 815 q 518 989 342 989 q 672 954 610 989 l 643 792 q 550 814 588 814 q 499 774 506 814 l 488 710 l 629 710 l 599 531 l 456 531 l 365 8 q 256 -227 338 -147 q 8 -350 174 -307 z "},"Ǎ":{"ha":972,"x_min":21,"x_max":1001,"o":"m 775 1082 l 593 1082 l 443 1299 l 621 1299 l 708 1214 l 824 1299 l 1001 1299 l 775 1082 m 21 0 l 557 972 l 768 972 l 961 0 l 744 0 l 708 189 l 350 189 l 247 0 l 21 0 m 449 382 l 675 382 l 631 622 q 618 699 618 696 q 582 626 600 654 l 449 382 z "},"ǎ":{"ha":736,"x_min":75,"x_max":826,"o":"m 600 821 l 418 821 l 268 1038 l 446 1038 l 533 953 l 649 1038 l 826 1038 l 600 821 m 471 0 l 483 56 q 404 4 456 25 q 297 -17 353 -17 q 140 40 204 -17 q 75 192 75 97 q 162 381 75 310 q 397 451 249 451 q 544 413 478 451 l 549 432 q 553 472 553 451 q 450 550 553 550 q 226 481 339 550 l 197 642 q 485 726 328 726 q 566 717 525 726 q 651 683 607 707 q 724 612 696 660 q 751 497 751 564 q 740 410 751 482 l 669 0 l 471 0 m 356 161 q 507 207 442 161 l 518 267 q 394 282 474 282 q 309 264 344 282 q 274 210 274 246 q 296 174 274 188 q 356 161 318 161 z "},"Ǐ":{"ha":376,"x_min":83,"x_max":694,"o":"m 468 1082 l 286 1082 l 136 1299 l 314 1299 l 401 1214 l 517 1299 l 694 1299 l 468 1082 m 83 0 l 254 972 l 467 972 l 296 0 l 83 0 z "},"ǐ":{"ha":369,"x_min":88,"x_max":646,"o":"m 419 800 l 238 800 l 88 1017 l 265 1017 l 353 932 l 468 1017 l 646 1017 l 419 800 m 88 0 l 213 710 l 413 710 l 288 0 l 88 0 z "},"Ǒ":{"ha":961,"x_min":140,"x_max":989,"o":"m 719 1082 l 538 1082 l 388 1299 l 565 1299 l 653 1214 l 768 1299 l 946 1299 l 719 1082 m 526 -17 q 348 20 425 -17 q 227 121 271 57 q 162 262 183 185 q 140 426 140 339 q 269 828 140 667 q 615 989 399 989 q 892 863 796 989 q 989 556 989 736 q 860 146 989 308 q 526 -17 731 -17 m 525 188 q 708 290 636 188 q 781 556 781 393 q 736 718 781 650 q 600 786 692 786 q 419 678 489 786 q 349 426 349 571 q 392 258 349 329 q 525 188 435 188 z "},"ǒ":{"ha":750,"x_min":111,"x_max":824,"o":"m 597 821 l 415 821 l 265 1038 l 443 1038 l 531 953 l 646 1038 l 824 1038 l 597 821 m 399 -17 q 111 300 111 -17 q 217 610 111 494 q 489 726 322 726 q 690 644 614 726 q 765 421 765 563 q 662 101 765 218 q 399 -17 558 -17 m 418 181 q 523 235 479 181 q 567 382 567 289 q 457 532 567 532 q 352 476 396 532 q 308 333 308 421 q 418 181 308 181 z "},"Ǔ":{"ha":954,"x_min":147,"x_max":1049,"o":"m 760 1085 l 578 1085 l 428 1301 l 606 1301 l 693 1217 l 808 1301 l 986 1301 l 760 1085 m 496 -17 q 246 65 344 -17 q 147 303 147 146 q 164 457 147 357 l 258 972 l 468 972 l 371 415 q 360 325 360 349 q 403 224 360 256 q 513 192 446 192 q 660 233 604 192 q 733 375 717 274 l 839 972 l 1049 972 l 940 354 q 878 167 921 243 q 774 53 836 92 q 647 -1 713 14 q 496 -17 581 -17 z "},"ǔ":{"ha":781,"x_min":115,"x_max":853,"o":"m 626 821 l 444 821 l 294 1038 l 472 1038 l 560 953 l 675 1038 l 853 1038 l 626 821 m 503 0 l 513 67 q 304 -17 429 -17 q 174 41 233 -17 q 115 206 115 99 q 121 271 115 239 l 199 710 l 399 710 l 331 329 q 322 261 322 279 q 404 179 322 179 q 502 208 460 179 q 554 294 544 238 l 628 710 l 825 710 l 700 0 l 503 0 z "},"Ǽ":{"ha":1163,"x_min":-60,"x_max":1268,"o":"m 844 1064 l 658 1064 l 885 1281 l 1129 1281 l 844 1064 m -60 0 l 651 972 l 1268 972 l 1233 772 l 824 772 l 793 601 l 1001 601 l 965 401 l 757 401 l 724 201 l 1161 201 l 1125 0 l 481 0 l 515 189 l 301 189 l 164 0 l -60 0 m 442 382 l 547 382 l 586 590 q 544 524 572 561 l 442 382 z "},"ǽ":{"ha":1115,"x_min":76,"x_max":1146,"o":"m 1017 1038 l 732 821 l 546 821 l 772 1038 l 1017 1038 m 1119 278 l 671 278 l 669 268 q 708 189 669 218 q 801 160 746 160 q 958 238 893 160 l 1063 110 q 775 -17 946 -17 q 532 86 603 -17 q 275 -17 414 -17 q 136 38 196 -17 q 76 192 76 93 q 166 388 76 319 q 381 456 256 456 q 513 426 457 456 l 517 453 q 517 464 517 457 q 518 475 518 471 q 493 530 518 510 q 428 550 468 550 q 217 481 318 550 l 190 642 q 465 726 314 726 q 560 706 511 726 q 643 650 610 685 q 879 726 735 726 q 1072 656 999 726 q 1146 442 1146 585 q 1119 278 1146 353 m 836 551 q 699 447 726 551 l 954 447 l 951 458 q 836 551 935 551 m 475 222 q 476 227 475 222 q 478 238 476 232 q 481 253 479 243 q 483 268 482 263 q 389 282 447 282 q 306 264 339 282 q 272 210 272 246 q 353 161 272 161 q 472 206 418 161 q 475 222 474 211 z "},"Ǿ":{"ha":961,"x_min":49,"x_max":1085,"o":"m 715 1064 l 529 1064 l 756 1281 l 1000 1281 l 715 1064 m 49 -17 l 200 167 q 140 426 140 276 q 269 828 140 667 q 614 989 399 989 q 826 924 739 989 l 882 989 l 1085 989 l 929 801 q 989 556 989 689 q 859 146 989 308 q 529 -17 729 -17 q 306 47 393 -17 l 253 -17 l 49 -17 m 354 351 l 692 760 q 601 786 654 786 q 419 678 490 786 q 349 425 349 569 q 354 351 349 386 m 524 188 q 708 291 636 188 q 781 558 781 394 q 775 617 781 572 l 439 210 q 524 188 476 188 z "},"ǿ":{"ha":749,"x_min":53,"x_max":863,"o":"m 578 800 l 392 800 l 618 1017 l 863 1017 l 578 800 m 53 -17 l 151 107 q 111 300 111 183 q 217 610 111 494 q 489 726 322 726 q 625 694 565 726 l 651 726 l 824 726 l 721 599 q 765 421 765 526 q 662 101 765 218 q 399 -17 558 -17 q 249 13 308 -17 l 226 -17 l 53 -17 m 308 300 l 493 531 q 457 532 481 532 q 352 476 396 532 q 308 333 308 421 l 308 300 m 418 181 q 523 235 479 181 q 567 382 567 289 q 568 410 567 401 l 385 181 l 418 181 z "},"Ș":{"ha":818,"x_min":94,"x_max":853,"o":"m 660 685 q 617 763 653 732 q 526 794 582 794 q 436 771 468 794 q 404 713 404 747 q 435 660 404 683 q 512 621 465 638 q 612 578 558 604 q 712 519 665 551 q 789 430 758 488 q 819 296 819 372 q 714 70 819 157 q 433 -17 608 -17 q 214 61 299 -17 q 94 268 129 139 l 289 339 q 352 226 313 265 q 464 188 392 188 q 558 211 521 188 q 596 275 596 235 q 554 349 596 318 q 453 402 513 379 q 333 456 393 425 q 232 549 274 488 q 190 701 190 611 q 285 908 190 826 q 540 989 379 989 q 763 917 686 989 q 853 746 839 846 l 660 685 m 371 -403 l 313 -354 q 401 -251 375 -297 q 326 -162 326 -239 q 358 -76 326 -111 q 436 -40 389 -40 q 513 -69 482 -40 q 543 -149 543 -97 q 371 -403 543 -286 z "},"ș":{"ha":651,"x_min":63,"x_max":683,"o":"m 336 -17 q 169 20 247 -17 q 63 117 92 57 l 206 225 q 358 153 274 153 q 421 165 394 153 q 447 203 447 178 q 400 252 447 226 q 297 301 353 278 q 194 376 242 325 q 147 494 147 426 q 230 664 147 601 q 443 726 313 726 q 588 690 522 726 q 683 611 653 654 l 532 501 q 419 561 494 561 q 362 547 383 561 q 340 511 340 533 q 372 476 340 494 q 447 438 403 458 q 537 390 492 417 q 613 322 582 364 q 644 226 644 279 q 563 48 644 113 q 336 -17 481 -17 m 268 -403 l 210 -354 q 299 -251 272 -297 q 224 -162 224 -239 q 255 -76 224 -111 q 333 -40 286 -40 q 410 -69 379 -40 q 440 -149 440 -97 q 268 -403 440 -286 z "},"Ț":{"ha":806,"x_min":169,"x_max":944,"o":"m 644 769 l 508 0 l 297 0 l 433 769 l 169 769 l 204 972 l 944 972 l 910 769 l 644 769 m 313 -403 l 254 -354 q 343 -251 317 -297 q 268 -162 268 -239 q 299 -76 268 -111 q 378 -40 331 -40 q 454 -69 424 -40 q 485 -149 485 -97 q 313 -403 485 -286 z "},"ț":{"ha":514,"x_min":108,"x_max":589,"o":"m 310 -17 q 197 22 240 -17 q 153 122 153 60 q 165 243 153 178 l 215 535 l 108 535 l 139 710 l 247 710 l 286 939 l 496 1003 l 444 710 l 589 710 l 558 535 l 414 535 l 364 249 q 354 190 354 201 q 400 156 354 156 q 506 181 442 156 l 471 15 q 310 -17 403 -17 m 236 -403 l 178 -354 q 267 -251 240 -297 q 192 -162 192 -239 q 223 -76 192 -111 q 301 -40 254 -40 q 378 -69 347 -40 q 408 -149 408 -97 q 236 -403 408 -286 z "},"ȷ":{"ha":367,"x_min":-126,"x_max":415,"o":"m -56 -297 l -126 -137 q 39 -77 -11 -110 q 99 14 89 -44 l 222 710 l 415 710 l 299 53 q -56 -297 251 -224 z "},"ˆ":{"ha":690,"x_min":253,"x_max":811,"o":"m 633 800 l 547 885 l 431 800 l 253 800 l 479 1017 l 661 1017 l 811 800 l 633 800 z "},"ˇ":{"ha":690,"x_min":296,"x_max":854,"o":"m 628 800 l 446 800 l 296 1017 l 474 1017 l 561 932 l 676 1017 l 854 1017 l 628 800 z "},"ˉ":{"ha":690,"x_min":319,"x_max":788,"o":"m 319 807 l 347 969 l 788 969 l 760 807 l 319 807 z "},"˘":{"ha":690,"x_min":315,"x_max":836,"o":"m 533 792 q 369 844 424 792 q 315 983 315 897 q 319 1031 315 1006 l 464 1031 l 464 1013 q 487 956 464 979 q 560 933 510 933 q 652 963 619 933 q 692 1031 685 992 l 836 1031 q 738 860 818 929 q 533 792 658 792 z "},"˙":{"ha":690,"x_min":446,"x_max":664,"o":"m 535 799 q 471 825 496 799 q 446 890 446 851 q 485 981 446 943 q 575 1019 524 1019 q 639 993 614 1019 q 664 928 664 967 q 625 837 664 875 q 535 799 586 799 z "},"˚":{"ha":690,"x_min":353,"x_max":714,"o":"m 503 725 q 395 770 438 725 q 353 881 353 815 q 418 1030 353 967 q 567 1093 483 1093 q 672 1048 631 1093 q 714 938 714 1003 q 650 788 714 850 q 503 725 586 725 m 526 861 q 564 877 547 861 q 581 917 581 893 q 569 947 581 935 q 543 958 558 958 q 504 941 521 958 q 488 900 488 924 q 526 861 488 861 z "},"˛":{"ha":690,"x_min":142,"x_max":494,"o":"m 288 -343 q 180 -308 218 -343 q 142 -214 142 -272 q 201 -78 142 -137 q 364 14 260 -19 l 494 14 q 349 -81 396 -25 q 303 -187 303 -137 q 339 -229 303 -229 q 390 -204 368 -229 l 467 -269 q 288 -343 383 -343 z "},"˜":{"ha":690,"x_min":265,"x_max":832,"o":"m 635 804 q 519 835 583 804 q 426 867 456 867 q 354 810 368 867 l 265 810 q 461 1011 300 1011 q 576 980 511 1011 q 671 949 642 949 q 742 1006 728 949 l 832 1006 q 635 804 796 804 z "},"˝":{"ha":690,"x_min":143,"x_max":906,"o":"m 143 800 l 369 1017 l 604 1017 l 329 800 l 143 800 m 443 800 l 669 1017 l 906 1017 l 631 800 l 443 800 z "},"̒":{"ha":0,"x_min":-260,"x_max":-29,"o":"m -154 800 q -229 828 -199 800 q -260 906 -260 856 q -86 1163 -260 1046 l -29 1114 q -117 1011 -96 1050 q -62 983 -83 1006 q -42 922 -42 961 q -74 835 -42 871 q -154 800 -107 800 z "},"̦":{"ha":0,"x_min":-496,"x_max":-265,"o":"m -437 -403 l -496 -354 q -407 -251 -433 -297 q -482 -162 -482 -239 q -451 -76 -482 -111 q -372 -40 -419 -40 q -296 -69 -326 -40 q -265 -149 -265 -97 q -437 -403 -265 -286 z "},"Ω":{"ha":951,"x_min":67,"x_max":996,"o":"m 519 0 l 549 161 q 722 351 660 244 q 785 553 785 458 q 613 786 785 786 q 497 757 547 786 q 418 681 446 728 q 376 585 390 635 q 363 483 363 535 q 392 312 363 400 q 468 161 422 224 l 439 0 l 67 0 l 103 204 l 236 204 q 178 344 204 257 q 153 524 153 432 q 181 676 153 597 q 263 826 210 756 q 405 943 315 897 q 604 989 494 989 q 760 965 690 989 q 872 902 829 940 q 944 815 915 864 q 985 717 974 765 q 996 622 996 669 q 799 204 996 371 l 928 204 l 892 0 l 519 0 z "},"μ":{"ha":781,"x_min":31,"x_max":825,"o":"m 501 0 l 513 64 q 364 -17 457 -17 q 334 -13 349 -17 q 312 -6 319 -10 q 294 3 304 -3 q 281 10 283 8 l 242 -212 l 31 -276 l 203 710 l 397 710 l 331 325 q 324 269 324 293 q 411 179 324 179 q 556 315 532 179 l 626 710 l 825 710 l 700 0 l 501 0 z "},"π":{"ha":865,"x_min":24,"x_max":967,"o":"m 164 -35 l 24 100 q 169 224 108 147 q 256 442 231 301 l 267 501 l 158 501 l 194 710 l 967 710 l 929 501 l 786 501 l 736 225 q 735 213 736 219 q 735 203 735 206 q 774 158 735 158 q 886 182 825 158 l 836 17 q 689 -17 767 -17 q 576 26 618 -17 q 533 140 533 69 q 539 193 533 172 l 593 501 l 460 501 l 458 493 q 422 324 440 390 q 372 184 404 257 q 289 58 340 111 q 164 -35 238 6 z "},"Ẁ":{"ha":1133,"x_min":201,"x_max":1278,"o":"m 654 1082 l 447 1299 l 692 1299 l 843 1082 l 654 1082 m 238 0 l 201 972 l 415 972 l 417 463 q 416 421 417 442 q 415 389 415 400 q 442 465 424 421 l 643 972 l 825 972 l 851 467 q 853 390 853 439 q 879 467 864 426 l 1060 972 l 1278 972 l 904 0 l 710 0 l 676 492 q 675 619 675 518 q 631 500 663 574 l 432 0 l 238 0 z "},"ẁ":{"ha":1000,"x_min":154,"x_max":1096,"o":"m 546 821 l 339 1038 l 583 1038 l 735 821 l 546 821 m 231 0 l 154 710 l 344 710 l 363 413 q 364 310 364 383 q 403 413 374 340 l 525 710 l 718 710 l 739 413 q 742 310 742 385 q 761 365 749 329 q 779 413 774 400 l 901 710 l 1096 710 l 789 0 l 613 0 l 585 325 q 582 443 582 350 q 538 325 554 361 l 406 0 l 231 0 z "},"Ẃ":{"ha":1133,"x_min":201,"x_max":1278,"o":"m 819 1082 l 633 1082 l 860 1299 l 1104 1299 l 819 1082 m 238 0 l 201 972 l 415 972 l 417 463 q 416 421 417 442 q 415 389 415 400 q 442 465 424 421 l 643 972 l 825 972 l 851 467 q 853 390 853 439 q 879 467 864 426 l 1060 972 l 1278 972 l 904 0 l 710 0 l 676 492 q 675 619 675 518 q 631 500 663 574 l 432 0 l 238 0 z "},"ẃ":{"ha":1000,"x_min":154,"x_max":1096,"o":"m 711 821 l 525 821 l 751 1038 l 996 1038 l 711 821 m 231 0 l 154 710 l 344 710 l 363 413 q 364 310 364 383 q 403 413 374 340 l 525 710 l 718 710 l 739 413 q 742 310 742 385 q 761 365 749 329 q 779 413 774 400 l 901 710 l 1096 710 l 789 0 l 613 0 l 585 325 q 582 443 582 350 q 538 325 554 361 l 406 0 l 231 0 z "},"Ẅ":{"ha":1133,"x_min":201,"x_max":1278,"o":"m 622 1081 q 555 1107 581 1081 q 529 1172 529 1133 q 567 1263 529 1225 q 650 1301 604 1301 q 720 1276 694 1301 q 746 1210 746 1250 q 708 1119 746 1157 q 622 1081 671 1081 m 885 1081 q 817 1106 842 1081 q 792 1172 792 1132 q 828 1263 792 1225 q 914 1301 865 1301 q 983 1275 957 1301 q 1008 1210 1008 1249 q 970 1119 1008 1157 q 885 1081 932 1081 m 238 0 l 201 972 l 415 972 l 417 463 q 416 421 417 442 q 415 389 415 400 q 442 465 424 421 l 643 972 l 825 972 l 851 467 q 853 390 853 439 q 879 467 864 426 l 1060 972 l 1278 972 l 904 0 l 710 0 l 676 492 q 675 619 675 518 q 631 500 663 574 l 432 0 l 238 0 z "},"ẅ":{"ha":1000,"x_min":154,"x_max":1096,"o":"m 514 819 q 447 846 472 819 q 421 911 421 872 q 458 1002 421 964 q 542 1040 496 1040 q 612 1015 586 1040 q 638 949 638 989 q 600 858 638 896 q 514 819 563 819 m 776 819 q 708 845 733 819 q 683 911 683 871 q 720 1002 683 964 q 806 1040 757 1040 q 874 1014 849 1040 q 900 949 900 988 q 862 858 900 896 q 776 819 824 819 m 231 0 l 154 710 l 344 710 l 363 413 q 364 310 364 383 q 403 413 374 340 l 525 710 l 718 710 l 739 413 q 742 310 742 385 q 761 365 749 329 q 779 413 774 400 l 901 710 l 1096 710 l 789 0 l 613 0 l 585 325 q 582 443 582 350 q 538 325 554 361 l 406 0 l 231 0 z "},"Ỳ":{"ha":939,"x_min":181,"x_max":1096,"o":"m 557 1085 l 350 1301 l 594 1301 l 746 1085 l 557 1085 m 363 0 l 432 393 l 181 972 l 403 972 l 564 601 l 854 972 l 1096 972 l 644 390 l 576 0 l 363 0 z "},"ỳ":{"ha":763,"x_min":128,"x_max":888,"o":"m 432 821 l 225 1038 l 469 1038 l 621 821 l 432 821 m 128 -269 l 283 13 l 149 710 l 346 710 l 421 326 q 431 258 429 290 q 461 326 444 296 l 672 710 l 888 710 l 349 -269 l 128 -269 z "},"–":{"ha":660,"x_min":122,"x_max":681,"o":"m 122 311 l 154 488 l 681 488 l 649 311 l 122 311 z "},"—":{"ha":767,"x_min":49,"x_max":861,"o":"m 49 311 l 81 488 l 861 488 l 829 311 l 49 311 z "},"―":{"ha":767,"x_min":49,"x_max":861,"o":"m 49 311 l 81 488 l 861 488 l 829 311 l 49 311 z "},"‘":{"ha":347,"x_min":171,"x_max":471,"o":"m 271 565 q 199 595 228 565 q 171 675 171 625 q 238 848 171 761 q 399 989 306 935 l 471 919 q 357 801 410 869 q 411 708 411 772 q 369 607 411 649 q 271 565 328 565 z "},"’":{"ha":347,"x_min":153,"x_max":453,"o":"m 225 565 l 153 635 q 265 754 208 679 q 211 847 211 781 q 253 947 211 906 q 351 989 294 989 q 424 960 396 989 q 453 881 453 931 q 385 707 453 794 q 225 565 318 619 z "},"‚":{"ha":347,"x_min":17,"x_max":318,"o":"m 89 -196 l 17 -126 q 74 -71 38 -110 q 131 -6 111 -32 q 76 88 76 24 q 116 188 76 149 q 207 228 156 228 q 288 199 257 228 q 318 119 318 169 q 250 -54 318 33 q 89 -196 182 -142 z "},"‛":{"ha":347,"x_min":197,"x_max":442,"o":"m 325 567 q 233 676 268 607 q 197 817 197 744 q 239 943 197 897 q 342 989 281 989 q 413 960 385 989 q 442 886 442 932 q 349 754 442 793 q 368 711 357 728 q 421 635 392 664 l 325 567 z "},"“":{"ha":681,"x_min":171,"x_max":803,"o":"m 271 565 q 199 595 228 565 q 171 675 171 625 q 238 848 171 761 q 399 989 306 935 l 471 919 q 357 801 410 869 q 411 708 411 772 q 369 607 411 649 q 271 565 328 565 m 601 565 q 530 595 557 565 q 503 675 503 625 q 571 847 503 760 q 731 989 639 935 l 803 919 q 744 864 781 901 q 690 801 708 826 q 743 708 743 771 q 699 606 743 647 q 601 565 656 565 z "},"”":{"ha":681,"x_min":153,"x_max":786,"o":"m 225 565 l 153 635 q 265 754 208 679 q 211 847 211 781 q 253 947 211 906 q 351 989 294 989 q 424 960 396 989 q 453 881 453 931 q 385 707 453 794 q 225 565 318 619 m 558 565 l 486 635 q 600 754 544 682 q 546 847 546 781 q 587 947 546 906 q 686 989 628 989 q 758 960 729 989 q 786 881 786 931 q 719 707 786 794 q 558 565 651 619 z "},"„":{"ha":681,"x_min":17,"x_max":650,"o":"m 89 -196 l 17 -126 q 74 -71 38 -110 q 131 -6 111 -32 q 76 88 76 24 q 116 188 76 149 q 207 228 156 228 q 288 199 257 228 q 318 119 318 169 q 250 -54 318 33 q 89 -196 182 -142 m 422 -196 l 350 -126 q 463 -6 410 -78 q 408 88 408 24 q 448 188 408 149 q 539 228 488 228 q 619 199 589 228 q 650 119 650 169 q 583 -54 650 33 q 422 -196 515 -142 z "},"†":{"ha":797,"x_min":185,"x_max":844,"o":"m 589 578 l 578 463 l 419 -196 l 308 -196 l 385 463 l 415 578 l 292 563 l 185 563 l 221 756 l 326 756 l 444 738 l 447 815 l 478 989 l 671 989 l 640 815 l 615 738 l 740 756 l 844 756 l 808 563 l 704 563 l 589 578 z "},"‡":{"ha":797,"x_min":92,"x_max":846,"o":"m 649 232 l 753 232 l 718 39 l 614 39 l 497 56 l 493 -22 l 463 -196 l 267 -196 l 297 -22 l 322 56 l 197 39 l 92 39 l 125 232 l 232 232 l 350 217 l 360 332 l 383 463 l 414 578 l 289 563 l 183 563 l 219 756 l 325 756 l 442 738 l 446 815 l 476 989 l 672 989 l 642 815 l 617 738 l 742 756 l 846 756 l 810 563 l 706 563 l 590 578 l 579 463 l 557 332 l 526 217 l 649 232 z "},"•":{"ha":574,"x_min":163,"x_max":583,"o":"m 338 279 q 212 331 261 279 q 163 456 163 382 q 236 625 163 554 q 407 696 310 696 q 533 644 483 696 q 583 518 583 592 q 510 349 583 419 q 338 279 436 279 z "},"…":{"ha":1482,"x_min":138,"x_max":1385,"o":"m 244 -17 q 167 15 197 -17 q 138 92 138 46 q 183 199 138 154 q 290 243 229 243 q 367 211 338 243 q 397 133 397 179 q 351 28 397 72 q 244 -17 304 -17 m 738 -17 q 661 15 690 -17 q 632 92 632 46 q 678 199 632 154 q 783 243 724 243 q 861 211 831 243 q 892 133 892 179 q 845 28 892 72 q 738 -17 799 -17 m 1232 -17 q 1155 15 1185 -17 q 1125 92 1125 46 q 1171 199 1125 154 q 1278 243 1217 243 q 1355 211 1325 243 q 1385 133 1385 179 q 1338 28 1385 72 q 1232 -17 1292 -17 z "},"‰":{"ha":1653,"x_min":144,"x_max":1640,"o":"m 336 -17 l 144 -17 l 958 989 l 1149 989 l 336 -17 m 375 478 q 231 539 278 478 q 183 683 183 600 q 212 820 183 753 q 307 938 240 888 q 467 989 374 989 q 611 928 564 989 q 658 783 658 867 q 631 647 658 714 q 536 528 603 579 q 375 478 469 478 m 404 644 q 467 678 446 644 q 489 757 489 711 q 476 804 489 786 q 438 822 463 822 q 375 790 397 822 q 353 710 353 757 q 366 663 353 681 q 404 644 379 644 m 828 -17 q 683 44 729 -17 q 636 189 636 104 q 710 399 636 303 q 917 496 783 496 q 1062 435 1015 496 q 1108 289 1108 374 q 1092 188 1108 239 q 1043 89 1075 136 q 955 13 1011 42 q 828 -17 899 -17 m 1360 -17 q 1215 44 1261 -17 q 1168 189 1168 104 q 1242 399 1168 303 q 1449 496 1315 496 q 1594 435 1547 496 q 1640 289 1640 374 q 1624 188 1640 239 q 1575 89 1607 136 q 1487 13 1543 42 q 1360 -17 1431 -17 m 857 151 q 918 184 896 151 q 940 263 940 217 q 888 328 940 328 q 825 295 847 328 q 803 215 803 263 q 857 151 803 151 m 1389 151 q 1451 184 1429 151 q 1474 263 1474 217 q 1419 328 1474 328 q 1358 296 1381 328 q 1336 217 1336 264 q 1389 151 1336 151 z "},"′":{"ha":351,"x_min":143,"x_max":483,"o":"m 253 1014 l 483 1014 l 314 542 l 143 542 l 253 1014 z "},"″":{"ha":618,"x_min":143,"x_max":750,"o":"m 143 542 l 253 1014 l 483 1014 l 314 542 l 143 542 m 410 542 l 519 1014 l 750 1014 l 581 542 l 410 542 z "},"‹":{"ha":471,"x_min":103,"x_max":583,"o":"m 243 0 l 103 356 l 368 710 l 583 710 l 311 351 l 447 0 l 243 0 z "},"›":{"ha":471,"x_min":18,"x_max":493,"o":"m 18 0 l 290 363 l 154 710 l 353 710 l 493 356 l 228 0 l 18 0 z "},"⁄":{"ha":507,"x_min":-164,"x_max":844,"o":"m -164 -17 l 651 989 l 844 989 l 29 -17 l -164 -17 z "},"ⁿ":{"ha":661,"x_min":150,"x_max":724,"o":"m 494 393 l 553 711 q 558 768 558 739 q 490 839 558 839 q 413 810 447 839 q 372 735 379 781 l 311 393 l 150 393 l 256 979 l 415 979 l 406 924 q 556 993 458 993 q 674 946 624 993 q 724 810 724 899 q 721 769 724 778 l 656 393 l 494 393 z "},"₤":{"ha":810,"x_min":106,"x_max":921,"o":"m 106 0 l 139 189 q 229 258 192 213 l 147 258 l 172 411 l 278 411 l 278 431 q 277 467 278 442 q 276 503 276 493 l 189 503 l 215 657 l 256 657 l 256 665 q 276 783 256 728 q 339 886 296 839 q 457 961 382 933 q 632 989 532 989 q 784 961 707 989 q 921 883 861 933 l 817 697 q 601 796 718 796 q 491 763 526 796 q 456 676 456 729 q 457 666 456 674 q 458 657 458 658 l 722 657 l 696 503 l 483 503 q 486 463 486 467 q 483 411 486 442 l 679 411 l 653 258 l 433 258 q 419 237 428 250 q 404 215 410 224 q 394 199 399 206 l 803 199 l 769 0 l 106 0 z "},"€":{"ha":849,"x_min":107,"x_max":953,"o":"m 543 -17 q 242 294 268 -17 l 107 297 l 196 443 l 243 443 q 253 511 249 488 l 146 511 l 233 658 l 293 658 q 448 896 347 803 q 706 989 549 989 q 953 889 840 989 l 853 713 q 686 794 775 794 q 506 658 576 794 l 825 661 l 739 511 l 456 511 q 443 443 444 463 l 703 443 l 619 293 l 442 294 q 551 178 465 178 q 708 276 632 178 l 846 178 q 706 31 778 78 q 543 -17 633 -17 z "},"℅":{"ha":1458,"x_min":181,"x_max":1450,"o":"m 396 378 q 238 442 296 378 q 181 617 181 506 q 272 887 181 785 q 504 989 363 989 q 714 808 690 989 l 558 758 q 531 814 553 793 q 479 835 510 835 q 379 781 419 835 q 339 646 339 728 q 360 565 339 596 q 421 533 382 533 q 533 619 497 533 l 674 574 q 396 378 589 378 m 318 -17 l 1133 989 l 1300 989 l 485 -17 l 318 -17 m 1131 -17 q 974 47 1031 -17 q 918 219 918 111 q 1008 490 918 388 q 1238 593 1097 593 q 1393 529 1336 593 q 1450 357 1450 465 q 1360 86 1450 189 q 1131 -17 1271 -17 m 1158 139 q 1253 191 1215 139 q 1290 328 1290 243 q 1269 408 1290 378 q 1210 439 1247 439 q 1113 385 1150 439 q 1075 249 1075 332 q 1097 168 1075 197 q 1158 139 1118 139 z "},"ℓ":{"ha":689,"x_min":146,"x_max":771,"o":"m 350 -17 q 197 113 197 -17 q 200 149 197 138 l 219 261 q 200 253 215 260 q 176 244 185 247 l 146 406 q 210 435 174 418 q 254 456 247 453 l 297 692 q 394 922 325 854 q 575 989 463 989 q 717 944 664 989 q 771 819 771 899 q 748 694 771 754 q 695 591 725 633 q 614 504 665 549 q 526 435 563 460 q 433 375 490 410 l 403 207 q 402 198 403 203 q 401 192 401 193 q 432 160 401 160 q 553 228 481 160 l 586 83 q 350 -17 479 -17 m 549 839 q 517 814 529 839 q 492 707 506 789 l 471 581 q 575 794 575 678 q 549 839 575 839 z "},"№":{"ha":1589,"x_min":121,"x_max":1617,"o":"m 1300 381 q 1144 444 1200 381 q 1088 615 1088 507 q 1177 886 1088 783 q 1408 989 1267 989 q 1562 925 1507 989 q 1617 753 1617 861 q 1528 483 1617 585 q 1300 381 1440 381 m 121 0 l 292 972 l 481 972 l 731 460 q 757 382 749 422 q 765 461 761 426 l 856 972 l 1056 972 l 885 0 l 710 0 l 443 536 q 421 603 436 549 q 415 536 421 565 l 319 0 l 121 0 m 1326 536 q 1423 588 1385 536 q 1461 722 1461 639 q 1440 803 1461 772 q 1381 835 1418 835 q 1283 781 1319 835 q 1246 642 1246 726 q 1267 565 1246 593 q 1326 536 1288 536 m 993 136 l 1022 301 l 1547 301 l 1517 136 l 993 136 z "},"™":{"ha":1190,"x_min":94,"x_max":1204,"o":"m 236 386 l 236 831 l 94 831 l 94 972 l 533 972 l 533 831 l 393 831 l 393 386 l 236 386 m 1204 386 l 1047 386 l 1047 672 l 1035 646 l 888 383 l 740 646 l 726 672 l 726 386 l 569 386 l 569 972 l 724 972 l 871 689 l 888 653 l 903 689 l 1050 972 l 1204 972 l 1204 386 z "},"Ω":{"ha":951,"x_min":67,"x_max":996,"o":"m 519 0 l 549 161 q 722 351 660 244 q 785 553 785 458 q 613 786 785 786 q 497 757 547 786 q 418 681 446 728 q 376 585 390 635 q 363 483 363 535 q 392 312 363 400 q 468 161 422 224 l 439 0 l 67 0 l 103 204 l 236 204 q 178 344 204 257 q 153 524 153 432 q 181 676 153 597 q 263 826 210 756 q 405 943 315 897 q 604 989 494 989 q 760 965 690 989 q 872 902 829 940 q 944 815 915 864 q 985 717 974 765 q 996 622 996 669 q 799 204 996 371 l 928 204 l 892 0 l 519 0 z "},"℮":{"ha":1040,"x_min":132,"x_max":1076,"o":"m 611 -17 q 271 122 410 -17 q 132 486 132 261 q 172 708 132 610 q 281 868 213 807 q 435 961 349 929 q 615 993 521 993 q 785 960 706 993 q 929 866 865 928 q 1032 706 993 804 q 1076 486 1071 608 l 350 486 l 350 182 q 454 99 385 132 q 611 67 524 67 q 947 260 821 67 l 1018 217 q 847 42 942 101 q 611 -17 751 -17 m 865 801 q 756 879 825 849 q 611 910 688 910 q 350 814 453 910 l 350 567 l 865 568 l 865 801 z "},"⅓":{"ha":1071,"x_min":26,"x_max":1064,"o":"m 26 -17 l 842 989 l 1033 989 l 218 -17 l 26 -17 m 150 393 l 225 819 l 156 819 l 178 949 q 285 979 254 949 l 415 979 l 313 393 l 150 393 m 771 207 q 825 146 772 146 q 864 160 849 146 q 879 199 879 175 q 819 232 879 232 l 767 232 l 792 374 l 847 374 q 900 414 900 374 q 868 443 900 443 q 836 434 847 443 q 813 403 825 425 l 686 456 q 911 596 767 596 q 1024 554 985 596 q 1064 453 1064 513 q 1037 363 1064 401 q 971 303 1010 324 q 1038 197 1038 272 q 972 51 1038 110 q 797 -8 907 -8 q 672 39 719 -8 q 615 171 625 86 l 771 207 z "},"⅔":{"ha":1297,"x_min":101,"x_max":1290,"o":"m 176 807 q 283 940 215 890 q 432 989 351 989 q 553 947 508 989 q 599 840 599 906 q 585 756 599 792 q 541 695 572 721 q 488 657 510 669 q 418 622 465 644 q 324 553 349 590 l 550 553 l 522 393 l 101 393 q 194 618 125 528 q 360 751 264 708 q 425 806 425 779 q 394 833 425 833 q 317 772 349 833 l 176 807 m 253 -17 l 1068 989 l 1260 989 l 444 -17 l 253 -17 m 997 207 q 1051 146 999 146 q 1090 160 1075 146 q 1106 199 1106 175 q 1046 232 1106 232 l 993 232 l 1018 374 l 1074 374 q 1126 414 1126 374 q 1094 443 1126 443 q 1063 434 1074 443 q 1039 403 1051 425 l 913 456 q 1138 596 993 596 q 1251 554 1211 596 q 1290 453 1290 513 q 1263 363 1290 401 q 1197 303 1236 324 q 1264 197 1264 272 q 1199 51 1264 110 q 1024 -8 1133 -8 q 898 39 944 -8 q 842 171 851 86 l 997 207 z "},"⅛":{"ha":1083,"x_min":26,"x_max":1078,"o":"m 26 -17 l 842 989 l 1033 989 l 218 -17 l 26 -17 m 150 393 l 225 819 l 156 819 l 178 949 q 285 979 254 949 l 415 979 l 313 393 l 150 393 m 803 -10 q 668 34 718 -10 q 618 149 618 78 q 653 251 618 206 q 738 319 689 297 q 686 417 686 354 q 747 545 686 494 q 908 596 808 596 q 1033 559 989 596 q 1078 463 1078 522 q 1051 378 1078 415 q 985 319 1025 340 q 1033 269 1014 304 q 1053 197 1053 235 q 982 49 1053 108 q 803 -10 911 -10 m 874 393 q 914 406 899 393 q 929 435 929 418 q 918 459 929 449 q 886 469 907 469 q 847 456 864 469 q 831 425 831 442 q 842 403 831 413 q 874 393 854 393 m 824 115 q 888 135 863 115 q 913 188 913 156 q 894 231 913 215 q 846 247 876 247 q 783 225 808 247 q 757 168 757 203 q 775 130 757 144 q 824 115 793 115 z "},"⅜":{"ha":1236,"x_min":114,"x_max":1231,"o":"m 296 386 q 170 433 217 386 q 114 564 124 479 l 269 600 q 324 539 271 539 q 363 553 347 539 q 378 592 378 568 q 318 625 378 625 l 265 625 l 290 767 l 346 767 q 399 807 399 767 q 367 836 399 836 q 335 827 346 836 q 311 796 324 818 l 185 849 q 410 989 265 989 q 523 947 483 989 q 563 846 563 906 q 535 756 563 794 q 469 696 508 717 q 536 590 536 665 q 471 444 536 503 q 296 386 406 386 m 179 -17 l 994 989 l 1188 989 l 372 -17 l 179 -17 m 956 -10 q 821 34 871 -10 q 771 149 771 78 q 806 251 771 206 q 890 319 842 297 q 839 417 839 354 q 900 545 839 494 q 1061 596 961 596 q 1186 559 1142 596 q 1231 463 1231 522 q 1204 378 1231 415 q 1138 319 1178 340 q 1186 269 1167 304 q 1206 197 1206 235 q 1135 49 1206 108 q 956 -10 1064 -10 m 1026 393 q 1067 406 1051 393 q 1082 435 1082 418 q 1071 459 1082 449 q 1039 469 1060 469 q 1000 456 1017 469 q 983 425 983 442 q 995 403 983 413 q 1026 393 1007 393 m 976 115 q 1040 135 1015 115 q 1065 188 1065 156 q 1047 231 1065 215 q 999 247 1029 247 q 935 225 961 247 q 910 168 910 203 q 928 130 910 144 q 976 115 946 115 z "},"⅝":{"ha":1238,"x_min":110,"x_max":1232,"o":"m 297 386 q 110 447 189 386 l 214 571 q 315 535 264 535 q 375 552 351 535 q 399 601 399 569 q 358 643 399 643 q 288 590 322 643 l 164 669 l 229 993 l 600 993 l 574 846 l 343 846 l 329 776 q 406 792 375 792 q 523 744 483 792 q 563 631 563 697 q 487 451 563 517 q 297 386 411 386 m 179 -17 l 994 989 l 1188 989 l 372 -17 l 179 -17 m 956 -10 q 822 33 871 -10 q 772 149 772 76 q 807 252 772 206 q 892 319 842 299 q 839 417 839 354 q 901 545 839 494 q 1063 596 963 596 q 1188 559 1143 596 q 1232 463 1232 522 q 1138 319 1232 369 q 1186 269 1167 304 q 1206 197 1206 235 q 1135 49 1206 108 q 956 -10 1064 -10 m 1026 393 q 1067 406 1051 393 q 1082 435 1082 418 q 1071 459 1082 449 q 1039 469 1060 469 q 1000 456 1017 469 q 983 425 983 442 q 996 403 983 413 q 1026 393 1008 393 m 976 115 q 1041 135 1015 115 q 1067 188 1067 156 q 1049 231 1067 215 q 1000 247 1031 247 q 937 225 963 247 q 911 168 911 203 q 929 130 911 144 q 976 115 947 115 z "},"⅞":{"ha":1114,"x_min":57,"x_max":1108,"o":"m 189 393 q 389 836 232 640 l 156 836 l 183 993 l 597 993 l 575 867 q 428 644 486 778 q 349 393 371 510 l 189 393 m 57 -17 l 872 989 l 1065 989 l 250 -17 l 57 -17 m 833 -10 q 699 34 749 -10 q 649 149 649 78 q 684 251 649 206 q 768 319 719 297 q 717 417 717 354 q 778 545 717 494 q 939 596 839 596 q 1064 559 1019 596 q 1108 463 1108 522 q 1082 378 1108 415 q 1015 319 1056 340 q 1064 269 1044 304 q 1083 197 1083 235 q 1013 49 1083 108 q 833 -10 942 -10 m 904 393 q 944 406 929 393 q 960 435 960 418 q 949 459 960 449 q 917 469 938 469 q 878 456 894 469 q 861 425 861 442 q 873 403 861 413 q 904 393 885 393 m 854 115 q 918 135 893 115 q 943 188 943 156 q 925 231 943 215 q 876 247 907 247 q 813 225 839 247 q 788 168 788 203 q 806 130 788 144 q 854 115 824 115 z "},"←":{"ha":1042,"x_min":28,"x_max":1000,"o":"m 503 168 q 479 179 497 168 l 43 476 q 28 500 28 486 q 43 524 28 517 l 479 822 q 503 833 497 833 q 519 818 519 833 q 511 789 519 811 l 443 593 l 1000 607 l 1000 393 l 443 407 l 511 213 q 519 183 519 190 q 503 168 519 168 z "},"↑":{"ha":724,"x_min":28,"x_max":696,"o":"m 254 0 l 269 558 l 72 489 q 43 481 50 481 q 28 497 28 481 q 39 521 28 503 l 338 957 q 361 972 347 972 q 385 957 375 972 l 685 521 q 696 497 696 503 q 681 481 696 481 q 651 489 674 481 l 454 558 l 469 0 l 254 0 z "},"→":{"ha":1042,"x_min":42,"x_max":1014,"o":"m 539 168 q 522 183 522 168 q 531 213 522 190 l 600 407 l 42 393 l 42 607 l 600 593 l 531 789 q 522 818 522 811 q 539 833 522 833 q 563 822 544 833 l 999 524 q 1014 500 1014 517 q 999 476 1014 486 l 563 179 q 539 168 544 168 z "},"↓":{"ha":703,"x_min":24,"x_max":681,"o":"m 665 483 q 681 467 681 483 q 669 443 681 461 l 375 15 q 351 0 365 0 q 328 15 338 0 l 35 443 q 26 463 31 450 q 24 467 24 467 q 39 483 24 483 q 68 475 46 483 l 260 408 l 244 972 l 460 972 l 444 408 l 636 475 q 665 483 658 483 z "},"↔":{"ha":1479,"x_min":28,"x_max":1451,"o":"m 976 168 q 960 183 960 168 q 968 213 960 190 l 1036 406 l 444 406 l 511 213 q 519 183 519 190 q 503 168 519 168 q 479 179 497 168 l 43 476 q 28 500 28 486 q 43 524 28 517 l 479 822 q 503 833 497 833 q 519 818 519 833 q 511 789 519 811 l 444 594 l 1036 594 l 968 789 q 960 818 960 811 q 976 833 960 833 q 1000 822 982 833 l 1436 524 q 1451 500 1451 517 q 1436 476 1451 486 l 1000 179 q 976 168 982 168 z "},"↕":{"ha":703,"x_min":18,"x_max":686,"o":"m 350 -236 q 326 -221 336 -236 l 29 215 q 18 239 18 233 q 33 256 18 256 q 63 247 40 256 l 256 181 l 256 649 l 63 581 q 33 572 40 572 q 18 589 18 572 q 29 613 18 594 l 326 1049 q 350 1064 336 1064 q 374 1049 367 1064 l 675 613 q 686 589 686 594 q 671 572 686 572 q 642 581 664 572 l 444 649 l 444 181 l 642 247 q 671 256 664 256 q 686 239 686 256 q 675 215 686 233 l 374 -221 q 350 -236 367 -236 z "},"↖":{"ha":843,"x_min":49,"x_max":819,"o":"m 668 65 l 285 471 l 194 283 q 169 254 181 254 q 150 281 153 254 l 54 779 q 49 814 49 810 q 71 836 49 836 q 99 832 82 836 l 603 738 q 610 736 604 738 q 619 734 617 735 q 626 731 622 733 q 632 726 631 729 q 633 717 633 722 q 606 692 633 703 l 415 603 l 819 218 l 668 65 z "},"↗":{"ha":843,"x_min":25,"x_max":794,"o":"m 175 65 l 25 218 l 428 603 l 238 692 q 210 717 210 704 q 212 726 210 722 q 217 731 214 729 q 224 734 221 733 q 233 736 228 735 q 240 738 239 738 l 744 832 q 774 836 761 836 q 794 814 794 836 q 789 779 794 810 l 694 281 q 674 254 689 254 q 667 256 669 254 q 662 260 664 257 q 658 265 660 263 q 654 274 657 268 q 650 283 651 281 l 560 471 l 175 65 z "},"↘":{"ha":843,"x_min":25,"x_max":794,"o":"m 774 65 q 744 69 769 65 l 240 164 q 234 165 239 164 q 227 167 229 167 q 221 169 225 168 q 215 173 217 171 q 211 178 213 175 q 210 186 210 182 q 238 210 210 196 l 428 300 l 25 685 l 175 836 l 560 431 l 650 619 q 653 627 651 622 q 657 634 656 632 q 660 640 658 636 q 664 644 663 643 q 668 646 665 644 q 674 647 671 647 q 694 622 689 647 l 789 122 q 794 88 794 92 q 774 65 794 65 z "},"↙":{"ha":843,"x_min":49,"x_max":819,"o":"m 71 65 q 49 88 49 65 q 54 122 49 92 l 150 622 q 169 647 153 647 q 194 619 182 647 l 285 431 l 668 836 l 819 685 l 415 300 l 606 210 q 633 186 633 196 q 603 164 633 171 l 99 69 q 71 65 74 65 z "},"↳":{"ha":1154,"x_min":106,"x_max":1106,"o":"m 1090 321 q 1106 297 1106 314 q 1090 274 1106 283 l 654 -24 q 631 -35 636 -35 q 614 -19 614 -35 q 622 10 614 -12 l 689 203 l 106 203 l 106 972 l 306 972 l 306 392 l 689 392 l 622 586 q 614 615 614 608 q 631 631 614 631 q 654 619 636 631 l 1090 321 z "},"↴":{"ha":1154,"x_min":106,"x_max":1106,"o":"m 1090 447 q 1106 431 1106 447 q 1094 407 1106 425 l 797 -29 q 774 -44 788 -44 q 750 -29 758 -44 l 451 407 q 440 431 440 425 q 456 447 440 447 q 485 439 463 447 l 676 374 l 676 779 l 106 779 l 106 972 l 871 972 l 871 374 l 1061 439 q 1090 447 1083 447 z "},"↵":{"ha":1154,"x_min":49,"x_max":1049,"o":"m 849 972 l 1049 972 l 1049 203 l 465 203 l 532 10 q 540 -19 540 -12 q 524 -35 540 -35 q 500 -24 518 -35 l 64 274 q 49 297 49 283 q 64 321 49 314 l 500 619 q 524 631 518 631 q 540 615 540 631 q 532 586 540 608 l 465 392 l 849 392 l 849 972 z "},"↶":{"ha":1188,"x_min":49,"x_max":1090,"o":"m 688 989 q 833 965 763 989 q 961 892 903 940 q 1055 764 1019 844 q 1090 582 1090 683 l 1090 0 l 896 0 l 896 582 q 836 745 896 689 q 688 801 776 801 q 539 745 597 801 q 481 582 481 689 l 481 553 l 669 618 q 699 626 692 626 q 714 610 714 626 q 703 586 714 604 l 406 150 q 382 135 396 135 q 358 150 368 135 l 60 586 q 49 610 49 604 q 64 626 49 626 q 93 618 71 626 l 285 553 l 285 582 q 321 766 285 685 q 417 894 357 847 q 546 965 476 942 q 688 989 615 989 z "},"↷":{"ha":1188,"x_min":97,"x_max":1139,"o":"m 1124 626 q 1139 610 1139 626 q 1128 586 1139 604 l 829 150 q 806 135 822 135 q 782 150 792 135 l 485 586 q 474 610 474 604 q 489 626 474 626 q 518 618 496 626 l 708 553 l 708 582 q 649 745 708 689 q 500 801 590 801 q 352 745 411 801 q 293 582 293 689 l 293 0 l 97 0 l 97 582 q 133 764 97 683 q 226 892 168 844 q 355 965 285 940 q 500 989 425 989 q 642 965 572 989 q 771 894 711 942 q 867 766 831 847 q 903 582 903 685 l 903 553 l 1094 618 q 1124 626 1117 626 z "},"↸":{"ha":843,"x_min":49,"x_max":819,"o":"m 49 779 l 49 972 l 819 972 l 819 779 l 49 779 m 668 -86 l 285 319 l 194 132 q 169 103 181 103 q 150 129 153 103 l 54 628 q 49 663 49 658 q 71 685 49 685 q 99 681 82 685 l 603 586 q 610 585 604 586 q 619 583 617 583 q 626 580 622 582 q 632 574 631 578 q 633 565 633 571 q 606 540 633 551 l 415 451 l 819 67 l 668 -86 z "},"↹":{"ha":1514,"x_min":106,"x_max":1408,"o":"m 864 411 q 840 422 858 411 l 404 719 q 389 743 389 729 q 404 767 389 758 l 840 1065 q 864 1076 858 1076 q 881 1061 881 1076 q 872 1032 881 1054 l 804 836 l 1408 850 l 1408 636 l 804 650 l 872 456 q 881 426 881 433 q 864 411 881 411 m 106 421 l 106 1063 l 304 1063 l 304 421 l 106 421 m 650 -382 q 633 -367 633 -382 q 642 -337 633 -360 l 710 -143 l 106 -158 l 106 57 l 710 43 l 642 239 q 633 268 633 261 q 650 283 633 283 q 674 272 656 283 l 1110 -26 q 1125 -50 1125 -36 q 1110 -74 1125 -64 l 674 -371 q 650 -382 656 -382 m 1210 -368 l 1210 269 l 1408 269 l 1408 -368 l 1210 -368 z "},"↺":{"ha":1175,"x_min":139,"x_max":1146,"o":"m 1115 918 q 1146 896 1146 911 q 1118 872 1146 883 l 925 782 q 1036 486 1036 650 q 904 169 1036 300 q 588 38 772 38 q 271 169 403 38 q 139 486 139 300 q 271 803 139 674 l 396 678 q 317 486 317 599 q 397 296 317 375 q 588 217 476 217 q 778 296 699 217 q 858 486 858 375 q 799 656 858 582 l 707 463 q 682 435 693 435 q 663 460 665 435 l 567 960 q 561 994 561 990 q 583 1017 561 1017 q 611 1013 586 1017 l 1115 918 z "},"⇚":{"ha":1042,"x_min":28,"x_max":1000,"o":"m 1000 590 l 443 590 l 426 544 l 1000 544 l 1000 454 l 426 454 l 443 410 l 1000 410 l 1000 319 l 474 319 l 511 213 q 519 183 519 190 q 503 168 519 168 q 479 179 497 168 l 43 476 q 28 500 28 486 q 43 524 28 517 l 479 822 q 503 833 497 833 q 519 818 519 833 q 511 789 519 811 l 474 681 l 1000 681 l 1000 590 z "},"⇛":{"ha":1042,"x_min":42,"x_max":1014,"o":"m 999 524 q 1014 500 1014 517 q 999 476 1014 486 l 563 179 q 539 168 544 168 q 522 183 522 168 q 531 213 522 190 l 568 319 l 42 319 l 42 410 l 600 410 l 615 454 l 42 454 l 42 544 l 617 544 l 600 590 l 42 590 l 42 681 l 568 681 l 531 789 q 522 818 522 811 q 539 833 522 833 q 563 822 544 833 l 999 524 z "},"⇜":{"ha":1042,"x_min":28,"x_max":1000,"o":"m 911 601 l 1000 601 l 1000 403 l 885 403 l 849 517 l 794 350 l 706 350 l 651 518 l 597 350 l 508 350 l 492 403 l 403 403 l 469 213 q 478 183 478 190 q 464 168 478 168 q 440 179 456 168 l 43 479 q 28 503 28 490 q 43 524 28 513 l 440 822 q 464 833 453 833 q 478 818 478 833 q 469 789 478 811 l 403 601 l 517 601 l 553 486 l 607 656 l 696 656 l 750 486 l 804 656 l 893 656 l 911 601 z "},"⇝":{"ha":1042,"x_min":42,"x_max":1014,"o":"m 999 524 q 1014 503 1014 513 q 999 479 1014 490 l 603 179 q 579 168 588 168 q 564 183 564 168 q 572 213 564 190 l 640 403 l 551 403 l 535 350 l 446 350 l 392 518 l 338 350 l 249 350 l 194 517 l 158 403 l 42 403 l 42 601 l 131 601 l 150 656 l 239 656 l 293 486 l 347 656 l 436 656 l 490 486 l 525 601 l 640 601 l 572 789 q 564 818 564 811 q 579 833 564 833 q 603 822 590 833 l 999 524 z "},"⇞":{"ha":724,"x_min":28,"x_max":696,"o":"m 685 521 q 696 497 696 503 q 681 481 696 481 q 651 489 674 481 l 458 557 l 458 410 l 678 410 l 678 292 l 458 292 l 458 211 l 678 211 l 678 93 l 458 93 l 458 0 l 265 0 l 265 93 l 42 93 l 42 211 l 265 211 l 265 292 l 42 292 l 42 410 l 265 410 l 265 557 l 72 489 q 43 481 50 481 q 28 497 28 481 q 39 521 28 503 l 338 957 q 361 972 347 972 q 385 957 375 972 l 685 521 z "},"⇟":{"ha":724,"x_min":28,"x_max":696,"o":"m 681 492 q 696 475 696 492 q 685 451 696 469 l 385 15 q 361 0 375 0 q 338 15 347 0 l 39 451 q 28 475 28 469 q 43 492 28 492 q 72 483 50 492 l 265 417 l 265 563 l 42 563 l 42 681 l 265 681 l 265 761 l 42 761 l 42 879 l 265 879 l 265 972 l 458 972 l 458 879 l 678 879 l 678 761 l 458 761 l 458 681 l 678 681 l 678 563 l 458 563 l 458 417 l 651 483 q 681 492 674 492 z "},"⇠":{"ha":1042,"x_min":28,"x_max":1000,"o":"m 511 789 l 444 594 l 543 594 l 543 406 l 444 406 l 511 211 q 519 182 519 189 q 503 167 519 167 q 479 178 497 167 l 43 476 q 28 500 28 486 q 43 524 28 517 l 479 822 q 503 833 497 833 q 519 818 519 833 q 511 789 519 811 m 642 406 l 642 594 l 772 594 l 772 406 l 642 406 m 871 594 l 1000 594 l 1000 406 l 871 406 l 871 594 z "},"⇡":{"ha":724,"x_min":28,"x_max":696,"o":"m 685 521 q 696 497 696 503 q 681 481 696 481 q 651 489 674 481 l 461 554 l 461 456 l 263 456 l 263 554 l 72 489 q 43 481 50 481 q 28 497 28 481 q 39 521 28 503 l 338 957 q 361 972 347 972 q 385 957 375 972 l 685 521 m 263 228 l 263 357 l 461 357 l 461 228 l 263 228 m 263 0 l 263 129 l 461 129 l 461 0 l 263 0 z "},"⇢":{"ha":1042,"x_min":42,"x_max":1014,"o":"m 999 524 q 1014 500 1014 517 q 999 476 1014 486 l 563 178 q 539 167 544 167 q 522 182 522 167 q 531 211 522 189 l 599 406 l 499 406 l 499 594 l 599 594 l 531 789 q 522 818 522 811 q 539 833 522 833 q 563 822 544 833 l 999 524 m 42 406 l 42 594 l 172 594 l 172 406 l 42 406 m 271 406 l 271 594 l 400 594 l 400 406 l 271 406 z "},"⇣":{"ha":724,"x_min":28,"x_max":696,"o":"m 461 972 l 461 846 l 263 846 l 263 972 l 461 972 m 461 747 l 461 621 l 263 621 l 263 747 l 461 747 m 681 492 q 696 475 696 492 q 685 451 696 469 l 385 15 q 361 0 375 0 q 338 15 347 0 l 39 451 q 28 475 28 469 q 43 492 28 492 q 72 483 50 492 l 263 418 l 263 522 l 461 522 l 461 418 l 651 483 q 681 492 674 492 z "},"⇤":{"ha":1386,"x_min":106,"x_max":1344,"o":"m 106 144 l 106 854 l 304 854 l 304 144 l 106 144 m 864 168 q 840 179 858 168 l 404 476 q 389 500 389 486 q 404 524 389 517 l 840 822 q 864 833 858 833 q 881 818 881 833 q 872 789 881 811 l 804 593 l 1344 607 l 1344 393 l 804 407 l 872 213 q 881 183 881 190 q 864 168 881 168 z "},"⇥":{"ha":1386,"x_min":42,"x_max":1281,"o":"m 1082 144 l 1082 854 l 1281 854 l 1281 144 l 1082 144 m 522 168 q 506 183 506 168 q 514 213 506 190 l 582 407 l 42 393 l 42 607 l 582 593 l 514 789 q 506 818 506 811 q 522 833 506 833 q 546 822 528 833 l 982 524 q 997 500 997 517 q 982 476 997 486 l 546 179 q 522 168 528 168 z "},"∂":{"ha":806,"x_min":88,"x_max":825,"o":"m 454 989 q 737 845 649 950 q 825 529 825 740 q 774 276 825 399 q 617 69 724 154 q 369 -17 510 -17 q 162 64 236 -17 q 88 260 88 144 q 122 422 88 350 q 212 537 157 494 q 330 601 267 579 q 457 624 393 624 q 624 571 560 624 q 556 738 621 685 q 376 806 492 790 l 454 989 m 625 569 l 626 568 l 625 569 m 392 178 q 518 223 465 178 q 571 328 571 268 q 540 403 571 376 q 453 429 508 429 q 335 385 383 429 q 286 282 286 340 q 315 207 286 236 q 392 178 343 178 z "},"∆":{"ha":857,"x_min":3,"x_max":858,"o":"m 3 0 l 507 972 l 699 972 l 858 0 l 3 0 m 318 199 l 631 199 l 572 613 q 563 688 569 631 q 526 613 551 656 l 318 199 z "},"∏":{"ha":999,"x_min":83,"x_max":1050,"o":"m 649 -194 l 819 781 l 451 781 l 281 -194 l 83 -194 l 289 972 l 1050 972 l 844 -194 l 649 -194 z "},"∑":{"ha":835,"x_min":25,"x_max":938,"o":"m 25 -192 l 60 -1 l 418 406 l 218 783 l 253 975 l 938 975 l 904 782 l 451 782 l 660 396 l 322 1 l 790 1 l 756 -192 l 25 -192 z "},"−":{"ha":840,"x_min":208,"x_max":790,"o":"m 208 575 l 790 575 l 790 379 l 208 379 l 208 575 z "},"∕":{"ha":507,"x_min":-161,"x_max":840,"o":"m -161 -17 l 656 989 l 840 989 l 25 -17 l -161 -17 z "},"∙":{"ha":336,"x_min":135,"x_max":374,"o":"m 239 365 q 164 394 193 365 q 135 465 135 422 q 172 567 135 528 q 264 607 210 607 q 344 578 314 607 q 374 507 374 550 q 335 405 374 444 q 239 365 297 365 z "},"√":{"ha":788,"x_min":147,"x_max":918,"o":"m 918 972 l 463 0 l 318 0 l 147 500 l 354 500 l 413 311 l 713 972 l 918 972 z "},"∞":{"ha":1360,"x_min":125,"x_max":1401,"o":"m 411 147 q 209 236 293 147 q 125 449 125 325 q 238 704 125 608 q 503 800 350 800 q 682 757 607 800 q 796 656 757 714 q 929 759 846 718 q 1088 800 1013 800 q 1309 719 1217 800 q 1401 499 1401 639 q 1290 243 1401 339 q 1022 147 1178 147 q 848 188 924 147 q 732 292 772 229 q 411 147 594 147 m 449 342 q 672 474 567 342 q 597 569 646 533 q 483 604 549 604 q 369 566 417 604 q 321 464 321 528 q 356 376 321 411 q 449 342 392 342 m 1042 342 q 1156 381 1107 342 q 1206 478 1206 419 q 1169 570 1206 536 q 1076 604 1133 604 q 854 474 963 604 q 1042 342 918 342 z "},"∫":{"ha":582,"x_min":26,"x_max":696,"o":"m 178 -194 q 26 -158 92 -194 l 54 8 q 150 -18 115 -18 q 203 24 196 -18 l 342 815 q 549 989 374 989 q 696 954 635 989 l 665 789 q 572 813 611 813 q 524 772 531 813 l 385 -21 q 178 -194 353 -194 z "},"≈":{"ha":840,"x_min":171,"x_max":831,"o":"m 171 510 q 222 703 171 625 q 375 781 274 781 q 511 744 440 781 q 613 708 582 708 q 651 726 640 708 q 665 781 661 744 l 831 781 q 781 586 831 663 q 626 510 732 510 q 486 546 560 510 q 389 582 413 582 q 351 565 363 582 q 336 510 340 547 l 171 510 m 171 176 q 222 368 171 292 q 375 444 274 444 q 511 409 440 444 q 613 374 582 374 q 650 392 639 374 q 665 444 661 410 l 831 444 q 781 252 831 328 q 626 176 732 176 q 486 212 560 176 q 389 247 413 247 q 351 230 363 247 q 336 176 340 213 l 171 176 z "},"≠":{"ha":840,"x_min":197,"x_max":815,"o":"m 507 215 l 469 122 l 250 122 l 288 215 l 197 215 l 197 408 l 368 408 l 425 546 l 197 546 l 197 739 l 507 739 l 556 858 l 776 858 l 728 739 l 815 739 l 815 546 l 644 546 l 590 408 l 815 408 l 815 215 l 507 215 z "},"≤":{"ha":840,"x_min":200,"x_max":813,"o":"m 813 204 l 200 444 l 200 599 l 813 836 l 813 646 l 471 521 l 813 396 l 813 204 m 200 0 l 200 196 l 811 196 l 811 0 l 200 0 z "},"≥":{"ha":840,"x_min":193,"x_max":806,"o":"m 193 204 l 193 396 l 535 521 l 193 646 l 193 836 l 806 599 l 806 444 l 193 204 m 193 0 l 193 196 l 804 196 l 804 0 l 193 0 z "},"◊":{"ha":818,"x_min":160,"x_max":829,"o":"m 340 -17 l 160 486 l 518 989 l 649 989 l 829 486 l 471 -17 l 340 -17 m 546 707 l 369 468 l 443 271 l 619 507 l 546 707 z "},"◌":{"ha":858,"x_min":146,"x_max":888,"o":"m 486 794 q 481 800 486 794 q 475 825 475 806 q 487 857 475 844 q 517 869 499 869 q 547 857 535 869 q 558 825 558 844 q 547 794 558 806 q 517 783 536 783 q 486 794 497 783 m 349 800 q 360 832 349 819 q 392 844 372 844 q 422 832 410 844 q 433 800 433 819 q 422 770 433 782 q 392 758 410 758 q 361 770 374 758 q 349 800 349 782 m 610 770 q 605 776 610 770 q 599 800 599 782 q 611 831 599 818 q 640 843 624 843 q 672 831 660 843 q 685 800 685 819 q 672 770 685 782 q 640 758 660 758 q 610 770 622 758 m 243 731 q 255 760 243 749 q 286 772 267 772 q 317 761 306 772 q 328 731 328 750 q 317 699 328 711 q 286 688 306 688 q 255 699 267 688 q 243 731 243 711 m 717 699 q 711 705 717 699 q 706 731 706 711 q 717 761 706 750 q 747 772 728 772 q 778 760 767 772 q 790 731 790 749 q 778 699 790 711 q 747 688 767 688 q 717 699 728 688 m 788 594 q 782 600 788 594 q 776 624 776 606 q 788 655 776 642 q 818 668 800 668 q 849 655 836 668 q 861 624 861 642 q 849 594 861 606 q 818 582 836 582 q 788 594 800 582 m 185 593 q 178 599 185 593 q 172 624 172 606 q 185 654 172 642 q 215 667 197 667 q 246 654 233 667 q 258 624 258 642 q 245 593 258 606 q 215 581 232 581 q 185 593 197 581 m 146 499 q 158 530 146 518 q 190 542 171 542 q 221 530 210 542 q 232 499 232 518 q 220 469 232 481 q 190 457 208 457 q 158 469 171 457 q 146 499 146 481 m 801 499 q 813 530 801 518 q 843 542 824 542 q 874 530 861 542 q 888 499 888 518 q 874 469 888 481 q 843 457 861 457 q 813 469 825 457 q 801 499 801 481 m 185 343 q 178 349 185 343 q 172 374 172 356 q 185 404 172 392 q 215 417 197 417 q 245 404 233 417 q 257 374 257 392 q 245 343 257 356 q 215 331 233 331 q 185 343 197 331 m 775 375 q 788 405 775 393 q 818 417 800 417 q 849 405 836 417 q 861 375 861 393 q 849 344 861 356 q 818 332 836 332 q 788 344 800 332 q 775 375 775 356 m 255 238 q 249 244 255 238 q 243 268 243 250 q 255 299 243 286 q 286 311 267 311 q 316 299 304 311 q 328 268 328 288 q 317 238 328 250 q 286 226 306 226 q 255 238 267 226 m 706 268 q 717 299 706 288 q 747 311 729 311 q 778 299 767 311 q 790 268 790 286 q 778 238 790 250 q 747 226 767 226 q 717 238 728 226 q 706 268 706 250 m 349 199 q 361 228 349 217 q 393 240 374 240 q 423 228 411 240 q 435 199 435 217 q 422 167 435 181 q 393 154 410 154 q 361 167 374 154 q 349 199 349 179 m 612 167 q 606 173 612 167 q 600 197 600 179 q 612 228 600 215 q 642 240 624 240 q 673 228 661 240 q 685 197 685 217 q 673 166 685 178 q 642 154 661 154 q 612 167 624 154 m 487 141 q 481 147 487 141 q 475 172 475 153 q 487 203 475 192 q 517 215 499 215 q 547 203 535 215 q 558 172 558 192 q 547 141 558 153 q 517 129 535 129 q 487 141 499 129 z "},"":{"ha":0,"x_min":-332,"x_max":-57,"o":"m -57 1014 l -60 999 q -279 644 -97 800 l -332 694 q -235 1014 -275 785 l -57 1014 z "},"ﬁ":{"ha":846,"x_min":131,"x_max":929,"o":"m 801 779 q 735 807 761 779 q 708 874 708 835 q 747 966 708 926 q 832 1006 786 1006 q 902 978 875 1006 q 929 911 929 951 q 890 819 929 858 q 801 779 851 779 m 422 535 l 328 0 l 131 0 l 224 535 l 139 535 l 169 710 l 256 710 l 274 814 q 352 953 292 913 q 483 993 413 993 q 636 954 563 993 l 607 792 q 514 814 553 814 q 464 774 472 814 l 453 710 l 585 710 l 553 535 l 422 535 m 564 0 l 689 710 l 889 710 l 764 0 l 564 0 z "},"ﬂ":{"ha":856,"x_min":131,"x_max":938,"o":"m 563 0 l 726 939 l 938 1003 l 760 0 l 563 0 m 422 535 l 328 0 l 131 0 l 224 535 l 139 535 l 169 710 l 256 710 l 274 814 q 352 953 292 913 q 483 993 413 993 q 636 954 563 993 l 607 792 q 514 814 553 814 q 464 774 472 814 l 453 710 l 585 710 l 553 535 l 422 535 z "}}}
